SplineFontDB: 3.2
FontName: KoreeneSans-LightItalic
FullName: Koreene Sans Light Italic
FamilyName: Koreene Sans Light
Weight: Light
Copyright: (C) Copyright HanYang I&C Co.,Ltd. All rights reserved.
Version: 2.50; ttfautohint (v1.8.4.7-5d5b-dirty)
ItalicAngle: 0
UnderlinePosition: -122
UnderlineWidth: 45
Ascent: 819
Descent: 205
InvalidEm: 0
sfntRevision: 0x00020147
LayerCount: 2
Layer: 0 1 "Back" 1
Layer: 1 1 "Fore" 0
XUID: [1021 531 -1996577725 10343650]
StyleMap: 0x0001
FSType: 0
OS2Version: 4
OS2_WeightWidthSlopeOnly: 0
OS2_UseTypoMetrics: 1
CreationTime: 1068260456
ModificationTime: 1706914940
PfmFamily: 81
TTFWeight: 300
TTFWidth: 5
LineGap: 256
VLineGap: 0
Panose: 0 0 0 0 0 0 0 0 0 0
OS2TypoAscent: 970
OS2TypoAOffset: 0
OS2TypoDescent: -235
OS2TypoDOffset: 0
OS2TypoLinegap: 256
OS2WinAscent: 1098
OS2WinAOffset: 0
OS2WinDescent: 363
OS2WinDOffset: 0
HheadAscent: 970
HheadAOffset: 0
HheadDescent: -235
HheadDOffset: 0
OS2SubXSize: 205
OS2SubYSize: 205
OS2SubXOff: 0
OS2SubYOff: 287
OS2SupXSize: 205
OS2SupYSize: 205
OS2SupXOff: 0
OS2SupYOff: 963
OS2StrikeYSize: 102
OS2StrikeYPos: 512
OS2CapHeight: 735
OS2XHeight: 525
OS2Vendor: 'HY  '
OS2CodePages: 2000019f.00000000
OS2UnicodeRanges: e10002ff.4000001b.00000000.00000000
Lookup: 1 0 0 "'aalt' Access All Alternates lookup 0" { "'aalt' Access All Alternates lookup 0 subtable"  } ['aalt' ('DFLT' <'dflt' > 'cyrl' <'dflt' > 'grek' <'dflt' > 'hang' <'dflt' > 'jamo' <'dflt' > 'latn' <'dflt' > ) ]
Lookup: 3 0 0 "'aalt' Access All Alternates lookup 1" { "'aalt' Access All Alternates lookup 1 subtable"  } ['aalt' ('DFLT' <'dflt' > 'cyrl' <'dflt' > 'grek' <'dflt' > 'hang' <'dflt' > 'jamo' <'dflt' > 'latn' <'dflt' > ) ]
Lookup: 1 0 0 "'locl' Localized Forms in Latin lookup 2" { "'locl' Localized Forms in Latin lookup 2 subtable"  } ['locl' ('latn' <'MOL ' > ) ]
Lookup: 1 0 0 "'locl' Localized Forms in Latin lookup 3" { "'locl' Localized Forms in Latin lookup 3 subtable"  } ['locl' ('latn' <'ROM ' > ) ]

StartChar: exclam
Encoding: 33 33 4
Width: 291
GlyphClass: 2
Flags: W
LayerCount: 2
Fore
SplineSet
43 -9 m 1,0,-1
 60 94 l 1,1,-1
 169 94 l 1,2,-1
 152 -9 l 1,3,-1
 43 -9 l 1,0,-1
161 206 m 1,4,-1
 106 206 l 1,5,-1
 186 736 l 1,6,-1
 257 736 l 1,7,-1
 161 206 l 1,4,-1
EndSplineSet
EndChar

StartChar: quotedbl
Encoding: 34 34 5
Width: 461
GlyphClass: 2
Flags: W
LayerCount: 2
Fore
SplineSet
298 544 m 1,0,-1
 427 828 l 1,1,-1
 517 828 l 1,2,-1
 349 544 l 1,3,-1
 298 544 l 1,0,-1
106 544 m 1,4,-1
 234 828 l 1,5,-1
 325 828 l 1,6,-1
 156 544 l 1,7,-1
 106 544 l 1,4,-1
EndSplineSet
EndChar

StartChar: numbersign
Encoding: 35 35 6
Width: 682
GlyphClass: 2
Flags: W
LayerCount: 2
Fore
SplineSet
31 207 m 1,0,-1
 39 255 l 1,1,-1
 167 255 l 1,2,-1
 229 460 l 1,3,-1
 105 460 l 1,4,-1
 113 507 l 1,5,-1
 243 507 l 1,6,-1
 303 710 l 1,7,-1
 358 710 l 1,8,-1
 297 507 l 1,9,-1
 501 507 l 1,10,-1
 561 710 l 1,11,-1
 616 710 l 1,12,-1
 555 507 l 1,13,-1
 676 507 l 1,14,-1
 669 460 l 1,15,-1
 541 460 l 1,16,-1
 481 255 l 1,17,-1
 603 255 l 1,18,-1
 595 207 l 1,19,-1
 466 207 l 1,20,-1
 406 3 l 1,21,-1
 349 3 l 1,22,-1
 410 207 l 1,23,-1
 208 207 l 1,24,-1
 148 3 l 1,25,-1
 91 3 l 1,26,-1
 152 207 l 1,27,-1
 31 207 l 1,0,-1
223 255 m 1,28,-1
 425 255 l 1,29,-1
 486 460 l 1,30,-1
 284 460 l 1,31,-1
 223 255 l 1,28,-1
EndSplineSet
EndChar

StartChar: dollar
Encoding: 36 36 7
Width: 568
GlyphClass: 2
Flags: W
LayerCount: 2
Fore
SplineSet
37 128 m 1,0,-1
 88 153 l 1,1,2
 109 108 109 108 154.5 80.5 c 128,-1,3
 200 53 200 53 248 53 c 0,4,5
 316 53 316 53 364.5 85 c 128,-1,6
 413 117 413 117 425 185 c 0,7,8
 431 220 431 220 421.5 247 c 128,-1,9
 412 274 412 274 387.5 293.5 c 128,-1,10
 363 313 363 313 335.5 327 c 128,-1,11
 308 341 308 341 268 359 c 0,12,13
 252 366 252 366 244 369 c 0,14,15
 176 400 176 400 144.5 442.5 c 128,-1,16
 113 485 113 485 124 556 c 0,17,18
 135 623 135 623 192 674.5 c 128,-1,19
 249 726 249 726 331 732 c 1,20,-1
 345 815 l 1,21,-1
 403 815 l 1,22,-1
 389 731 l 1,23,24
 441 729 441 729 482.5 696 c 128,-1,25
 524 663 524 663 536 623 c 1,26,-1
 486 600 l 1,27,28
 443 682 443 682 351 682 c 0,29,30
 284 682 284 682 239.5 646 c 128,-1,31
 195 610 195 610 186 555 c 0,32,33
 181 523 181 523 188.5 498.5 c 128,-1,34
 196 474 196 474 219.5 455 c 128,-1,35
 243 436 243 436 265.5 424 c 128,-1,36
 288 412 288 412 329 394 c 0,37,38
 361 380 361 380 381 370 c 128,-1,39
 401 360 401 360 426.5 341.5 c 128,-1,40
 452 323 452 323 465.5 303.5 c 128,-1,41
 479 284 479 284 486.5 255 c 128,-1,42
 494 226 494 226 488 191 c 0,43,44
 474 104 474 104 412 56 c 128,-1,45
 350 8 350 8 268 1 c 1,46,-1
 255 -77 l 1,47,-1
 197 -77 l 1,48,-1
 210 2 l 1,49,50
 158 5 158 5 108 38.5 c 128,-1,51
 58 72 58 72 37 128 c 1,0,-1
EndSplineSet
EndChar

StartChar: percent
Encoding: 37 37 8
Width: 944
GlyphClass: 2
Flags: W
LayerCount: 2
Fore
SplineSet
496 158 m 0,0,1
 509 235 509 235 568 283.5 c 128,-1,2
 627 332 627 332 704 332 c 256,3,4
 781 332 781 332 825 283.5 c 128,-1,5
 869 235 869 235 856 158 c 0,6,7
 843 80 843 80 783 31 c 128,-1,8
 723 -18 723 -18 646 -18 c 256,9,10
 570 -18 570 -18 526.5 30.5 c 128,-1,11
 483 79 483 79 496 158 c 0,0,1
554 158 m 0,12,13
 545 101 545 101 575 66.5 c 128,-1,14
 605 32 605 32 655 32 c 256,15,16
 705 32 705 32 747 67 c 128,-1,17
 789 102 789 102 798 158 c 256,18,19
 807 214 807 214 777.5 248 c 128,-1,20
 748 282 748 282 696 282 c 0,21,22
 646 282 646 282 604.5 248 c 128,-1,23
 563 214 563 214 554 158 c 0,12,13
117 578 m 0,24,25
 130 655 130 655 189.5 704 c 128,-1,26
 249 753 249 753 326 753 c 256,27,28
 403 753 403 753 446.5 704.5 c 128,-1,29
 490 656 490 656 477 578 c 256,30,31
 464 500 464 500 404.5 452 c 128,-1,32
 345 404 345 404 268 404 c 256,33,34
 192 404 192 404 148 452 c 128,-1,35
 104 500 104 500 117 578 c 0,24,25
175 578 m 256,36,37
 166 522 166 522 196.5 487.5 c 128,-1,38
 227 453 227 453 277 453 c 256,39,40
 327 453 327 453 368.5 487.5 c 128,-1,41
 410 522 410 522 419 578 c 256,42,43
 428 634 428 634 398.5 669 c 128,-1,44
 369 704 369 704 318 704 c 0,45,46
 268 704 268 704 226 669 c 128,-1,47
 184 634 184 634 175 578 c 256,36,37
133 -2 m 1,48,-1
 775 737 l 1,49,-1
 839 737 l 1,50,-1
 196 -2 l 1,51,-1
 133 -2 l 1,48,-1
EndSplineSet
EndChar

StartChar: ampersand
Encoding: 38 38 9
Width: 625
GlyphClass: 2
Flags: W
LayerCount: 2
Fore
SplineSet
106 184 m 0,0,1
 95 117 95 117 132.5 75.5 c 128,-1,2
 170 34 170 34 238 34 c 0,3,4
 337 34 337 34 428 133 c 1,5,-1
 281 390 l 1,6,7
 213 350 213 350 165 301.5 c 128,-1,8
 117 253 117 253 106 184 c 0,0,1
44 183 m 0,9,10
 68 330 68 330 257 436 c 1,11,12
 255 440 255 440 247.5 453.5 c 128,-1,13
 240 467 240 467 238 471 c 128,-1,14
 236 475 236 475 230 486.5 c 128,-1,15
 224 498 224 498 222.5 503 c 128,-1,16
 221 508 221 508 216.5 518 c 128,-1,17
 212 528 212 528 211 533.5 c 128,-1,18
 210 539 210 539 208 548 c 128,-1,19
 206 557 206 557 206 564 c 128,-1,20
 206 571 206 571 206 579.5 c 128,-1,21
 206 588 206 588 208 597 c 0,22,23
 218 658 218 658 271 701.5 c 128,-1,24
 324 745 324 745 405 745 c 0,25,26
 530 745 530 745 568 625 c 1,27,-1
 517 603 l 1,28,29
 505 638 505 638 473.5 665.5 c 128,-1,30
 442 693 442 693 400 693 c 0,31,32
 348 693 348 693 312.5 664.5 c 128,-1,33
 277 636 277 636 270 596 c 256,34,35
 263 556 263 556 305.5 472 c 128,-1,36
 348 388 348 388 444 224 c 0,37,38
 460 198 460 198 468 184 c 1,39,40
 514 252 514 252 540 338 c 1,41,-1
 595 328 l 1,42,43
 563 221 563 221 500 134 c 1,44,-1
 578 0 l 1,45,-1
 506 0 l 1,46,-1
 455 85 l 1,47,48
 356 -18 356 -18 227 -18 c 0,49,50
 126 -18 126 -18 78 39.5 c 128,-1,51
 30 97 30 97 44 183 c 0,9,10
EndSplineSet
EndChar

StartChar: quotesingle
Encoding: 39 39 10
Width: 275
GlyphClass: 2
Flags: W
LayerCount: 2
Fore
SplineSet
111 544 m 1,0,-1
 240 828 l 1,1,-1
 331 828 l 1,2,-1
 161 544 l 1,3,-1
 111 544 l 1,0,-1
EndSplineSet
EndChar

StartChar: parenleft
Encoding: 40 40 11
Width: 428
GlyphClass: 2
Flags: W
LayerCount: 2
Fore
SplineSet
158 351 m 0,0,1
 206 639 206 639 410 855 c 1,2,-1
 449 830 l 1,3,4
 406 778 406 778 382.5 745.5 c 128,-1,5
 359 713 359 713 321 650.5 c 128,-1,6
 283 588 283 588 258 514 c 128,-1,7
 233 440 233 440 218 351 c 0,8,9
 203 261 203 261 204 185.5 c 128,-1,10
 205 110 205 110 222.5 47.5 c 128,-1,11
 240 -15 240 -15 252.5 -45.5 c 128,-1,12
 265 -76 265 -76 290 -127 c 1,13,-1
 243 -152 l 1,14,15
 111 68 111 68 158 351 c 0,0,1
EndSplineSet
Substitution2: "'sups' Superscript lookup 5 subtable" uni207D
Substitution2: "'aalt' Access All Alternates lookup 0 subtable" uni207D
EndChar

StartChar: parenright
Encoding: 41 41 12
Width: 428
GlyphClass: 2
Flags: W
LayerCount: 2
Fore
SplineSet
2 -127 m 1,0,1
 44 -77 44 -77 73 -36 c 128,-1,2
 102 5 102 5 136 64.5 c 128,-1,3
 170 124 170 124 194 196 c 128,-1,4
 218 268 218 268 232 351 c 0,5,6
 246 438 246 438 246 511 c 128,-1,7
 246 584 246 584 230.5 644.5 c 128,-1,8
 215 705 215 705 200 742 c 128,-1,9
 185 779 185 779 160 830 c 1,10,-1
 208 855 l 1,11,12
 341 641 341 641 293 351 c 0,13,14
 246 69 246 69 41 -152 c 1,15,-1
 2 -127 l 1,0,1
EndSplineSet
Substitution2: "'sups' Superscript lookup 5 subtable" uni207E
Substitution2: "'aalt' Access All Alternates lookup 0 subtable" uni207E
EndChar

StartChar: asterisk
Encoding: 42 42 13
Width: 544
GlyphClass: 2
Flags: W
LayerCount: 2
Fore
SplineSet
50 422 m 1,0,-1
 80 475 l 1,1,-1
 268 397 l 1,2,-1
 294 598 l 1,3,-1
 355 598 l 1,4,-1
 315 397 l 1,5,-1
 527 475 l 1,6,-1
 540 422 l 1,7,-1
 322 348 l 1,8,-1
 447 173 l 1,9,-1
 395 137 l 1,10,-1
 278 321 l 1,11,-1
 101 138 l 1,12,-1
 61 173 l 1,13,-1
 244 348 l 1,14,-1
 50 422 l 1,0,-1
EndSplineSet
EndChar

StartChar: plus
Encoding: 43 43 14
Width: 544
GlyphClass: 2
Flags: W
LayerCount: 2
Fore
SplineSet
37 336 m 1,0,-1
 46 390 l 1,1,-1
 260 390 l 1,2,-1
 296 604 l 1,3,-1
 355 604 l 1,4,-1
 319 390 l 1,5,-1
 533 390 l 1,6,-1
 524 336 l 1,7,-1
 310 336 l 1,8,-1
 274 114 l 1,9,-1
 215 114 l 1,10,-1
 251 336 l 1,11,-1
 37 336 l 1,0,-1
EndSplineSet
Substitution2: "'sups' Superscript lookup 5 subtable" uni207A
Substitution2: "'aalt' Access All Alternates lookup 0 subtable" uni207A
EndChar

StartChar: comma
Encoding: 44 44 15
Width: 275
GlyphClass: 2
Flags: W
LayerCount: 2
Fore
SplineSet
-51 -177 m 1,0,-1
 78 106 l 1,1,-1
 168 106 l 1,2,-1
 -1 -177 l 1,3,-1
 -51 -177 l 1,0,-1
EndSplineSet
EndChar

StartChar: hyphen
Encoding: 45 45 16
Width: 379
GlyphClass: 2
Flags: W
LayerCount: 2
Fore
SplineSet
41 336 m 1,0,-1
 50 390 l 1,1,-1
 364 390 l 1,2,-1
 355 336 l 1,3,-1
 41 336 l 1,0,-1
EndSplineSet
EndChar

StartChar: period
Encoding: 46 46 17
Width: 275
GlyphClass: 2
Flags: W
LayerCount: 2
Fore
SplineSet
35 0 m 1,0,-1
 52 106 l 1,1,-1
 162 106 l 1,2,-1
 144 0 l 1,3,-1
 35 0 l 1,0,-1
EndSplineSet
EndChar

StartChar: slash
Encoding: 47 47 18
Width: 324
GlyphClass: 2
Flags: W
LayerCount: 2
Fore
SplineSet
-67 -60 m 1,0,-1
 354 786 l 1,1,-1
 418 786 l 1,2,-1
 -3 -60 l 1,3,-1
 -67 -60 l 1,0,-1
EndSplineSet
EndChar

StartChar: zero
Encoding: 48 48 19
Width: 550
GlyphClass: 2
Flags: W
LayerCount: 2
Fore
SplineSet
131 367 m 0,0,1
 106 213 106 213 130.5 123.5 c 128,-1,2
 155 34 155 34 236 34 c 0,3,4
 279 34 279 34 314.5 61 c 128,-1,5
 350 88 350 88 375 135.5 c 128,-1,6
 400 183 400 183 417.5 240.5 c 128,-1,7
 435 298 435 298 447 367 c 0,8,9
 473 522 473 522 448.5 611.5 c 128,-1,10
 424 701 424 701 344 701 c 0,11,12
 267 701 267 701 212 613 c 128,-1,13
 157 525 157 525 131 367 c 0,0,1
67 367 m 0,14,15
 100 565 100 565 178 659 c 128,-1,16
 256 753 256 753 353 753 c 0,17,18
 457 753 457 753 499.5 654.5 c 128,-1,19
 542 556 542 556 510 367 c 0,20,21
 496 285 496 285 472.5 217 c 128,-1,22
 449 149 449 149 414.5 95.5 c 128,-1,23
 380 42 380 42 332 12 c 128,-1,24
 284 -18 284 -18 227 -18 c 0,25,26
 128 -18 128 -18 82 79.5 c 128,-1,27
 36 177 36 177 67 367 c 0,14,15
EndSplineSet
EndChar

StartChar: one
Encoding: 49 49 20
Width: 550
GlyphClass: 2
Flags: W
LayerCount: 2
Fore
SplineSet
152 578 m 1,0,-1
 160 627 l 1,1,-1
 192 627 l 2,2,3
 271 627 271 627 302.5 649.5 c 128,-1,4
 334 672 334 672 342 719 c 2,5,-1
 347 745 l 1,6,-1
 399 745 l 1,7,-1
 274 -11 l 1,8,-1
 211 -11 l 1,9,-1
 308 578 l 1,10,-1
 152 578 l 1,0,-1
EndSplineSet
Substitution2: "'subs' Subscript lookup 6 subtable" uni2081
Substitution2: "'sups' Superscript lookup 5 subtable" onesuperior
Substitution2: "'sinf' Scientific Inferiors lookup 4 subtable" uni2081
AlternateSubs2: "'aalt' Access All Alternates lookup 1 subtable" uni2081 onesuperior
EndChar

StartChar: two
Encoding: 50 50 21
Width: 550
GlyphClass: 2
Flags: W
LayerCount: 2
Fore
SplineSet
103 575 m 1,0,1
 180 753 180 753 351 753 c 0,2,3
 441 753 441 753 490.5 700 c 128,-1,4
 540 647 540 647 524 552 c 0,5,6
 506 442 506 442 375 334 c 0,7,8
 237 220 237 220 179 164 c 128,-1,9
 121 108 121 108 94 52 c 1,10,-1
 441 52 l 1,11,-1
 433 0 l 1,12,-1
 10 0 l 1,13,14
 15 29 15 29 27.5 57.5 c 128,-1,15
 40 86 40 86 68.5 120 c 128,-1,16
 97 154 97 154 116 176 c 128,-1,17
 135 198 135 198 182.5 239.5 c 128,-1,18
 230 281 230 281 250 297.5 c 128,-1,19
 270 314 270 314 329 363 c 0,20,21
 445 460 445 460 461 553 c 0,22,23
 473 624 473 624 440 662.5 c 128,-1,24
 407 701 407 701 340 701 c 0,25,26
 276 701 276 701 229.5 663 c 128,-1,27
 183 625 183 625 155 560 c 1,28,-1
 103 575 l 1,0,1
EndSplineSet
Substitution2: "'subs' Subscript lookup 6 subtable" uni2082
Substitution2: "'sups' Superscript lookup 5 subtable" twosuperior
Substitution2: "'sinf' Scientific Inferiors lookup 4 subtable" uni2082
AlternateSubs2: "'aalt' Access All Alternates lookup 1 subtable" uni2082 twosuperior
EndChar

StartChar: three
Encoding: 51 51 22
Width: 550
GlyphClass: 2
Flags: W
LayerCount: 2
Fore
SplineSet
14 119 m 1,0,-1
 70 141 l 1,1,2
 109 34 109 34 221 34 c 0,3,4
 294 34 294 34 350 77 c 128,-1,5
 406 120 406 120 419 202 c 0,6,7
 432 279 432 279 386 321 c 128,-1,8
 340 363 340 363 265 363 c 0,9,10
 232 363 232 363 209 361 c 1,11,-1
 218 414 l 1,12,13
 237 412 237 412 269 412 c 0,14,15
 338 412 338 412 388.5 452 c 128,-1,16
 439 492 439 492 450 561 c 0,17,18
 460 622 460 622 426.5 661.5 c 128,-1,19
 393 701 393 701 329 701 c 0,20,21
 232 701 232 701 165 588 c 1,22,-1
 115 606 l 1,23,24
 149 670 149 670 205.5 711.5 c 128,-1,25
 262 753 262 753 341 753 c 0,26,27
 435 753 435 753 481 699.5 c 128,-1,28
 527 646 527 646 514 566 c 0,29,30
 503 500 503 500 460 455 c 128,-1,31
 417 410 417 410 364 392 c 1,32,33
 421 377 421 377 458.5 329 c 128,-1,34
 496 281 496 281 483 202 c 0,35,36
 465 96 465 96 391.5 39 c 128,-1,37
 318 -18 318 -18 213 -18 c 0,38,39
 133 -18 133 -18 83 21 c 128,-1,40
 33 60 33 60 14 119 c 1,0,-1
EndSplineSet
Substitution2: "'subs' Subscript lookup 6 subtable" uni2083
Substitution2: "'sups' Superscript lookup 5 subtable" threesuperior
Substitution2: "'sinf' Scientific Inferiors lookup 4 subtable" uni2083
AlternateSubs2: "'aalt' Access All Alternates lookup 1 subtable" uni2083 threesuperior
EndChar

StartChar: four
Encoding: 52 52 23
Width: 550
GlyphClass: 2
Flags: W
LayerCount: 2
Fore
SplineSet
18 223 m 1,0,-1
 441 746 l 1,1,-1
 499 746 l 1,2,-1
 412 225 l 1,3,-1
 522 225 l 1,4,-1
 513 172 l 1,5,-1
 404 172 l 1,6,-1
 373 -11 l 1,7,-1
 312 -11 l 1,8,-1
 342 172 l 1,9,-1
 10 172 l 1,10,-1
 18 223 l 1,0,-1
79 225 m 1,11,-1
 351 225 l 1,12,-1
 402 535 l 2,13,14
 412 594 412 594 425 654 c 1,15,-1
 422 654 l 1,16,-1
 341 550 l 1,17,-1
 79 225 l 1,11,-1
EndSplineSet
Substitution2: "'subs' Subscript lookup 6 subtable" uni2084
Substitution2: "'sups' Superscript lookup 5 subtable" uni2074
Substitution2: "'sinf' Scientific Inferiors lookup 4 subtable" uni2084
AlternateSubs2: "'aalt' Access All Alternates lookup 1 subtable" uni2084 uni2074
EndChar

StartChar: five
Encoding: 53 53 24
Width: 550
GlyphClass: 2
Flags: W
LayerCount: 2
Fore
SplineSet
22 112 m 1,0,-1
 77 133 l 1,1,2
 93 88 93 88 129 61 c 128,-1,3
 165 34 165 34 214 34 c 0,4,5
 291 34 291 34 343.5 85.5 c 128,-1,6
 396 137 396 137 409 217 c 0,7,8
 423 299 423 299 385.5 350 c 128,-1,9
 348 401 348 401 273 401 c 0,10,11
 236 401 236 401 193.5 383.5 c 128,-1,12
 151 366 151 366 117 336 c 1,13,-1
 83 351 l 1,14,-1
 183 735 l 1,15,-1
 516 735 l 1,16,-1
 507 683 l 1,17,-1
 232 683 l 1,18,-1
 157 410 l 1,19,20
 225 453 225 453 303 453 c 0,21,22
 395 453 395 453 443 389 c 128,-1,23
 491 325 491 325 473 218 c 0,24,25
 457 119 457 119 386.5 50.5 c 128,-1,26
 316 -18 316 -18 206 -18 c 0,27,28
 65 -18 65 -18 22 112 c 1,0,-1
EndSplineSet
EndChar

StartChar: six
Encoding: 54 54 25
Width: 550
GlyphClass: 2
Flags: W
LayerCount: 2
Fore
SplineSet
114 227 m 0,0,1
 100 144 100 144 135 89 c 128,-1,2
 170 34 170 34 241 34 c 0,3,4
 311 34 311 34 364.5 88.5 c 128,-1,5
 418 143 418 143 432 227 c 0,6,7
 446 313 446 313 410 367 c 128,-1,8
 374 421 374 421 304 421 c 0,9,10
 236 421 236 421 182 365 c 128,-1,11
 128 309 128 309 114 227 c 0,0,1
61 326 m 0,12,13
 74 406 74 406 99.5 478 c 128,-1,14
 125 550 125 550 163.5 613.5 c 128,-1,15
 202 677 202 677 259.5 715 c 128,-1,16
 317 753 317 753 386 753 c 0,17,18
 508 753 508 753 551 628 c 1,19,-1
 497 609 l 1,20,21
 460 701 460 701 377 701 c 0,22,23
 331 701 331 701 292 676 c 128,-1,24
 253 651 253 651 226 608.5 c 128,-1,25
 199 566 199 566 181.5 524.5 c 128,-1,26
 164 483 164 483 150 436 c 0,27,28
 136 388 136 388 126 345 c 1,29,30
 154 403 154 403 206 438.5 c 128,-1,31
 258 474 258 474 322 474 c 0,32,33
 416 474 416 474 463.5 403.5 c 128,-1,34
 511 333 511 333 494 228 c 0,35,36
 477 124 477 124 407 53 c 128,-1,37
 337 -18 337 -18 237 -18 c 0,38,39
 136 -18 136 -18 87 52 c 0,40,41
 29 132 29 132 61 326 c 0,12,13
EndSplineSet
EndChar

StartChar: seven
Encoding: 55 55 26
Width: 550
GlyphClass: 2
Flags: W
LayerCount: 2
Fore
SplineSet
107 681 m 1,0,-1
 116 735 l 1,1,-1
 557 735 l 1,2,-1
 550 691 l 1,3,4
 416 514 416 514 323.5 348.5 c 128,-1,5
 231 183 231 183 157 -11 c 1,6,-1
 93 -11 l 1,7,8
 170 193 170 193 261 351 c 128,-1,9
 352 509 352 509 477 681 c 1,10,-1
 107 681 l 1,0,-1
EndSplineSet
EndChar

StartChar: eight
Encoding: 56 56 27
Width: 550
GlyphClass: 2
Flags: W
LayerCount: 2
Fore
SplineSet
178 560 m 0,0,1
 168 497 168 497 203.5 458 c 128,-1,2
 239 419 239 419 298 419 c 0,3,4
 358 419 358 419 406 459 c 128,-1,5
 454 499 454 499 464 560 c 0,6,7
 474 622 474 622 440 661.5 c 128,-1,8
 406 701 406 701 345 701 c 0,9,10
 281 701 281 701 234.5 660 c 128,-1,11
 188 619 188 619 178 560 c 0,0,1
31 194 m 0,12,13
 44 274 44 274 94 324 c 128,-1,14
 144 374 144 374 209 394 c 1,15,16
 95 441 95 441 115 563 c 0,17,18
 128 642 128 642 195.5 697.5 c 128,-1,19
 263 753 263 753 353 753 c 0,20,21
 441 753 441 753 491 698.5 c 128,-1,22
 541 644 541 644 528 563 c 0,23,24
 517 497 517 497 474.5 454 c 128,-1,25
 432 411 432 411 379 394 c 1,26,27
 439 375 439 375 472 324 c 128,-1,28
 505 273 505 273 492 193 c 0,29,30
 477 101 477 101 402 41.5 c 128,-1,31
 327 -18 327 -18 226 -18 c 0,32,33
 128 -18 128 -18 71.5 40 c 128,-1,34
 15 98 15 98 31 194 c 0,12,13
95 198 m 0,35,36
 83 127 83 127 123.5 80.5 c 128,-1,37
 164 34 164 34 234 34 c 0,38,39
 306 34 306 34 362 81 c 128,-1,40
 418 128 418 128 430 198 c 0,41,42
 442 270 442 270 401 318.5 c 128,-1,43
 360 367 360 367 289 367 c 0,44,45
 220 367 220 367 163.5 319 c 128,-1,46
 107 271 107 271 95 198 c 0,35,36
EndSplineSet
EndChar

StartChar: nine
Encoding: 57 57 28
Width: 550
GlyphClass: 2
Flags: W
LayerCount: 2
Fore
SplineSet
144 509 m 0,0,1
 130 423 130 423 168.5 370 c 128,-1,2
 207 317 207 317 271 317 c 0,3,4
 337 317 337 317 392 371.5 c 128,-1,5
 447 426 447 426 461 508 c 0,6,7
 474 589 474 589 439 645 c 128,-1,8
 404 701 404 701 335 701 c 0,9,10
 267 701 267 701 212.5 647 c 128,-1,11
 158 593 158 593 144 509 c 0,0,1
25 111 m 1,12,-1
 80 131 l 1,13,14
 93 88 93 88 126 61 c 128,-1,15
 159 34 159 34 206 34 c 0,16,17
 256 34 256 34 297 61.5 c 128,-1,18
 338 89 338 89 366 139 c 128,-1,19
 394 189 394 189 412.5 248 c 128,-1,20
 431 307 431 307 445 380 c 1,21,22
 419 334 419 334 368.5 299.5 c 128,-1,23
 318 265 318 265 255 265 c 0,24,25
 168 265 168 265 115.5 331 c 128,-1,26
 63 397 63 397 82 508 c 0,27,28
 100 615 100 615 174.5 684 c 128,-1,29
 249 753 249 753 344 753 c 0,30,31
 426 753 426 753 472 700.5 c 128,-1,32
 518 648 518 648 523 566 c 0,33,34
 526 508 526 508 509 405 c 0,35,36
 439 -18 439 -18 195 -18 c 0,37,38
 126 -18 126 -18 83 20 c 128,-1,39
 40 58 40 58 25 111 c 1,12,-1
EndSplineSet
EndChar

StartChar: colon
Encoding: 58 58 29
Width: 275
GlyphClass: 2
Flags: W
LayerCount: 2
Fore
SplineSet
35 0 m 1,0,-1
 52 107 l 1,1,-1
 162 107 l 1,2,-1
 144 0 l 1,3,-1
 35 0 l 1,0,-1
99 388 m 1,4,-1
 117 495 l 1,5,-1
 226 495 l 1,6,-1
 209 388 l 1,7,-1
 99 388 l 1,4,-1
EndSplineSet
EndChar

StartChar: semicolon
Encoding: 59 59 30
Width: 275
GlyphClass: 2
Flags: W
LayerCount: 2
Fore
SplineSet
-52 -183 m 1,0,-1
 77 101 l 1,1,-1
 167 101 l 1,2,-1
 -2 -183 l 1,3,-1
 -52 -183 l 1,0,-1
101 382 m 1,4,-1
 119 489 l 1,5,-1
 228 489 l 1,6,-1
 210 382 l 1,7,-1
 101 382 l 1,4,-1
EndSplineSet
EndChar

StartChar: less
Encoding: 60 60 31
Width: 540
GlyphClass: 2
Flags: W
LayerCount: 2
Fore
SplineSet
63 327 m 1,0,-1
 72 383 l 1,1,-1
 528 696 l 1,2,-1
 553 650 l 1,3,-1
 126 355 l 1,4,-1
 456 60 l 1,5,-1
 416 14 l 1,6,-1
 63 327 l 1,0,-1
EndSplineSet
EndChar

StartChar: equal
Encoding: 61 61 32
Width: 541
GlyphClass: 2
Flags: W
LayerCount: 2
Fore
SplineSet
39 241 m 1,0,-1
 48 295 l 1,1,-1
 497 295 l 1,2,-1
 488 241 l 1,3,-1
 39 241 l 1,0,-1
71 432 m 1,4,-1
 80 486 l 1,5,-1
 529 486 l 1,6,-1
 520 432 l 1,7,-1
 71 432 l 1,4,-1
EndSplineSet
Substitution2: "'sups' Superscript lookup 5 subtable" uni207C
Substitution2: "'aalt' Access All Alternates lookup 0 subtable" uni207C
EndChar

StartChar: greater
Encoding: 62 62 33
Width: 540
GlyphClass: 2
Flags: W
LayerCount: 2
Fore
SplineSet
36 14 m 1,0,-1
 12 60 l 1,1,-1
 437 355 l 1,2,-1
 110 650 l 1,3,-1
 149 696 l 1,4,-1
 503 383 l 1,5,-1
 493 327 l 1,6,-1
 36 14 l 1,0,-1
EndSplineSet
EndChar

StartChar: question
Encoding: 63 63 34
Width: 529
GlyphClass: 2
Flags: W
LayerCount: 2
Fore
SplineSet
112 600 m 1,0,1
 150 671 150 671 211.5 712 c 128,-1,2
 273 753 273 753 343 753 c 0,3,4
 433 753 433 753 476.5 700 c 128,-1,5
 520 647 520 647 505 558 c 0,6,7
 498 513 498 513 473.5 476 c 128,-1,8
 449 439 449 439 419 413.5 c 128,-1,9
 389 388 389 388 359 363 c 128,-1,10
 329 338 329 338 305 302 c 128,-1,11
 281 266 281 266 273 222 c 2,12,-1
 269 198 l 1,13,-1
 208 198 l 1,14,-1
 212 225 l 2,15,16
 220 274 220 274 244.5 313.5 c 128,-1,17
 269 353 269 353 299 379 c 128,-1,18
 329 405 329 405 358.5 430 c 128,-1,19
 388 455 388 455 411.5 487.5 c 128,-1,20
 435 520 435 520 442 559 c 0,21,22
 453 623 453 623 424.5 661.5 c 128,-1,23
 396 700 396 700 334 700 c 0,24,25
 234 700 234 700 164 580 c 1,26,-1
 112 600 l 1,0,1
149 -9 m 1,27,-1
 166 94 l 1,28,-1
 276 94 l 1,29,-1
 259 -9 l 1,30,-1
 149 -9 l 1,27,-1
EndSplineSet
EndChar

StartChar: at
Encoding: 64 64 35
Width: 925
GlyphClass: 2
Flags: W
LayerCount: 2
Fore
SplineSet
67 345 m 256,0,1
 97 528 97 528 235 644 c 128,-1,2
 373 760 373 760 563 760 c 0,3,4
 735 760 735 760 825 659 c 128,-1,5
 915 558 915 558 889 397 c 0,6,7
 866 257 866 257 801 188 c 128,-1,8
 736 119 736 119 663 119 c 0,9,10
 619 119 619 119 592 151.5 c 128,-1,11
 565 184 565 184 571 234 c 1,12,-1
 570 234 l 1,13,14
 547 191 547 191 499.5 155.5 c 128,-1,15
 452 120 452 120 395 120 c 0,16,17
 326 120 326 120 289.5 172.5 c 128,-1,18
 253 225 253 225 268 312 c 0,19,20
 287 428 287 428 358.5 495 c 128,-1,21
 430 562 430 562 512 562 c 0,22,23
 560 562 560 562 585.5 540 c 128,-1,24
 611 518 611 518 618 493 c 1,25,-1
 632 553 l 1,26,-1
 680 553 l 1,27,-1
 622 277 l 2,28,29
 621 272 621 272 620 268 c 0,30,31
 612 222 612 222 627 195 c 128,-1,32
 642 168 642 168 675 168 c 0,33,34
 729 168 729 168 772.5 227 c 128,-1,35
 816 286 816 286 834 392 c 0,36,37
 858 534 858 534 783.5 623.5 c 128,-1,38
 709 713 709 713 555 713 c 0,39,40
 393 713 393 713 271 611 c 128,-1,41
 149 509 149 509 121 345 c 0,42,43
 93 176 93 176 177 77 c 128,-1,44
 261 -22 261 -22 420 -22 c 0,45,46
 537 -22 537 -22 642 9 c 1,47,-1
 646 -35 l 1,48,49
 539 -68 539 -68 413 -68 c 0,50,51
 225 -68 225 -68 131 47 c 128,-1,52
 37 162 37 162 67 345 c 256,0,1
325 312 m 0,53,54
 315 249 315 249 338.5 210 c 128,-1,55
 362 171 362 171 409 171 c 0,56,57
 432 171 432 171 456.5 181.5 c 128,-1,58
 481 192 481 192 509 215 c 128,-1,59
 537 238 537 238 559.5 285.5 c 128,-1,60
 582 333 582 333 593 397 c 0,61,62
 601 444 601 444 580.5 479 c 128,-1,63
 560 514 560 514 505 514 c 0,64,65
 449 514 449 514 395 460 c 128,-1,66
 341 406 341 406 325 312 c 0,53,54
EndSplineSet
EndChar

StartChar: A
Encoding: 65 65 36
Width: 619
GlyphClass: 2
Flags: W
LayerCount: 2
Fore
SplineSet
163 273 m 1,0,-1
 453 273 l 1,1,-1
 401 547 l 2,2,3
 398 568 398 568 389.5 613.5 c 128,-1,4
 381 659 381 659 378 677 c 1,5,-1
 373 677 l 1,6,7
 366 664 366 664 342 616.5 c 128,-1,8
 318 569 318 569 307 547 c 2,9,-1
 163 273 l 1,0,-1
-49 0 m 1,10,-1
 346 735 l 1,11,-1
 424 735 l 1,12,-1
 574 0 l 1,13,-1
 506 0 l 1,14,-1
 464 222 l 1,15,-1
 136 222 l 1,16,-1
 20 0 l 1,17,-1
 -49 0 l 1,10,-1
EndSplineSet
Substitution2: "Single Substitution lookup 12 subtable" ordfeminine
EndChar

StartChar: B
Encoding: 66 66 37
Width: 647
GlyphClass: 2
Flags: W
LayerCount: 2
Fore
SplineSet
53 0 m 1,0,-1
 175 735 l 1,1,-1
 436 735 l 2,2,3
 538 735 538 735 583.5 684.5 c 128,-1,4
 629 634 629 634 615 549 c 0,5,6
 605 487 605 487 566.5 445 c 128,-1,7
 528 403 528 403 477 385 c 1,8,9
 533 369 533 369 565.5 320 c 128,-1,10
 598 271 598 271 587 203 c 0,11,12
 573 117 573 117 507.5 58.5 c 128,-1,13
 442 0 442 0 347 0 c 2,14,-1
 53 0 l 1,0,-1
124 54 m 1,15,-1
 341 54 l 2,16,17
 410 54 410 54 461 94.5 c 128,-1,18
 512 135 512 135 522 201 c 0,19,20
 533 265 533 265 495 308.5 c 128,-1,21
 457 352 457 352 386 352 c 2,22,-1
 173 352 l 1,23,-1
 124 54 l 1,15,-1
182 405 m 1,24,-1
 369 405 l 2,25,26
 438 405 438 405 489 440 c 128,-1,27
 540 475 540 475 552 544 c 0,28,29
 562 604 562 604 530.5 642.5 c 128,-1,30
 499 681 499 681 420 681 c 2,31,-1
 228 681 l 1,32,-1
 182 405 l 1,24,-1
EndSplineSet
EndChar

StartChar: C
Encoding: 67 67 38
Width: 625
GlyphClass: 2
Flags: W
LayerCount: 2
Fore
SplineSet
64 367 m 256,0,1
 94 547 94 547 195 650 c 128,-1,2
 296 753 296 753 431 753 c 0,3,4
 514 753 514 753 563.5 706.5 c 128,-1,5
 613 660 613 660 630 598 c 1,6,-1
 574 578 l 1,7,8
 531 699 531 699 421 699 c 0,9,10
 312 699 312 699 232 608 c 128,-1,11
 152 517 152 517 128 367 c 0,12,13
 103 214 103 214 153.5 125.5 c 128,-1,14
 204 37 204 37 311 37 c 0,15,16
 379 37 379 37 433 74 c 128,-1,17
 487 111 487 111 522 167 c 1,18,-1
 574 148 l 1,19,20
 530 77 530 77 462 29.5 c 128,-1,21
 394 -18 394 -18 303 -18 c 0,22,23
 169 -18 169 -18 101.5 84.5 c 128,-1,24
 34 187 34 187 64 367 c 256,0,1
EndSplineSet
EndChar

StartChar: D
Encoding: 68 68 39
Width: 663
GlyphClass: 2
Flags: W
LayerCount: 2
Fore
SplineSet
53 0 m 1,0,-1
 175 735 l 1,1,-1
 364 735 l 2,2,3
 518 735 518 735 591 642 c 128,-1,4
 664 549 664 549 634 367 c 0,5,6
 605 192 605 192 502.5 96 c 128,-1,7
 400 0 400 0 241 0 c 2,8,-1
 53 0 l 1,0,-1
124 54 m 1,9,-1
 237 54 l 2,10,11
 367 54 367 54 455.5 129 c 128,-1,12
 544 204 544 204 571 367 c 0,13,14
 598 532 598 532 536 606.5 c 128,-1,15
 474 681 474 681 343 681 c 2,16,-1
 228 681 l 1,17,-1
 124 54 l 1,9,-1
EndSplineSet
EndChar

StartChar: E
Encoding: 69 69 40
Width: 589
GlyphClass: 2
Flags: W
LayerCount: 2
Fore
SplineSet
53 0 m 1,0,-1
 175 735 l 1,1,-1
 618 735 l 1,2,-1
 609 681 l 1,3,-1
 228 681 l 1,4,-1
 182 407 l 1,5,-1
 527 407 l 1,6,-1
 518 354 l 1,7,-1
 173 354 l 1,8,-1
 124 54 l 1,9,-1
 515 54 l 1,10,-1
 506 0 l 1,11,-1
 53 0 l 1,0,-1
EndSplineSet
EndChar

StartChar: F
Encoding: 70 70 41
Width: 550
GlyphClass: 2
Flags: W
LayerCount: 2
Fore
SplineSet
53 0 m 1,0,-1
 175 735 l 1,1,-1
 603 735 l 1,2,-1
 594 681 l 1,3,-1
 228 681 l 1,4,-1
 181 397 l 1,5,-1
 511 397 l 1,6,-1
 502 344 l 1,7,-1
 172 344 l 1,8,-1
 115 0 l 1,9,-1
 53 0 l 1,0,-1
EndSplineSet
EndChar

StartChar: G
Encoding: 71 71 42
Width: 690
GlyphClass: 2
Flags: W
LayerCount: 2
Fore
SplineSet
64 367 m 0,0,1
 92 539 92 539 192 646 c 128,-1,2
 292 753 292 753 437 753 c 0,3,4
 526 753 526 753 576.5 707.5 c 128,-1,5
 627 662 627 662 646 603 c 1,6,-1
 590 584 l 1,7,8
 541 699 541 699 428 699 c 0,9,10
 311 699 311 699 231.5 607.5 c 128,-1,11
 152 516 152 516 128 367 c 0,12,13
 103 213 103 213 154 125 c 128,-1,14
 205 37 205 37 316 37 c 0,15,16
 416 37 416 37 479.5 105 c 128,-1,17
 543 173 543 173 559 266 c 2,18,-1
 570 337 l 1,19,-1
 357 337 l 1,20,-1
 366 391 l 1,21,-1
 640 391 l 1,22,-1
 575 0 l 1,23,-1
 529 0 l 1,24,-1
 545 122 l 1,25,26
 466 -18 466 -18 305 -18 c 0,27,28
 167 -18 167 -18 101 85.5 c 128,-1,29
 35 189 35 189 64 367 c 0,0,1
EndSplineSet
EndChar

StartChar: H
Encoding: 72 72 43
Width: 701
GlyphClass: 2
Flags: W
LayerCount: 2
Fore
SplineSet
53 0 m 1,0,-1
 175 735 l 1,1,-1
 237 735 l 1,2,-1
 182 405 l 1,3,-1
 560 405 l 1,4,-1
 615 735 l 1,5,-1
 677 735 l 1,6,-1
 555 0 l 1,7,-1
 493 0 l 1,8,-1
 551 352 l 1,9,-1
 173 352 l 1,10,-1
 115 0 l 1,11,-1
 53 0 l 1,0,-1
EndSplineSet
EndChar

StartChar: I
Encoding: 73 73 44
Width: 261
GlyphClass: 2
Flags: W
LayerCount: 2
Fore
SplineSet
53 0 m 1,0,-1
 175 735 l 1,1,-1
 237 735 l 1,2,-1
 115 0 l 1,3,-1
 53 0 l 1,0,-1
EndSplineSet
EndChar

StartChar: J
Encoding: 74 74 45
Width: 475
GlyphClass: 2
Flags: W
LayerCount: 2
Fore
SplineSet
-14 110 m 1,0,-1
 45 132 l 1,1,2
 53 87 53 87 80.5 62 c 128,-1,3
 108 37 108 37 147 37 c 0,4,5
 148 37 148 37 150 37 c 0,6,7
 273 39 273 39 302 212 c 2,8,-1
 388 735 l 1,9,-1
 450 735 l 1,10,-1
 361 200 l 2,11,12
 343 92 343 92 287.5 37 c 128,-1,13
 232 -18 232 -18 143 -18 c 0,14,15
 11 -18 11 -18 -14 110 c 1,0,-1
EndSplineSet
EndChar

StartChar: K
Encoding: 75 75 46
Width: 614
GlyphClass: 2
Flags: W
LayerCount: 2
Fore
SplineSet
53 0 m 1,0,-1
 175 735 l 1,1,-1
 237 735 l 1,2,-1
 169 325 l 1,3,-1
 171 325 l 1,4,-1
 585 735 l 1,5,-1
 669 735 l 1,6,-1
 344 418 l 1,7,-1
 565 0 l 1,8,-1
 486 0 l 1,9,-1
 295 372 l 1,10,-1
 154 234 l 1,11,-1
 115 0 l 1,12,-1
 53 0 l 1,0,-1
EndSplineSet
EndChar

StartChar: L
Encoding: 76 76 47
Width: 518
GlyphClass: 2
Flags: W
LayerCount: 2
Fore
SplineSet
53 0 m 1,0,-1
 175 735 l 1,1,-1
 237 735 l 1,2,-1
 124 54 l 1,3,-1
 473 54 l 1,4,-1
 464 0 l 1,5,-1
 53 0 l 1,0,-1
EndSplineSet
EndChar

StartChar: M
Encoding: 77 77 48
Width: 850
GlyphClass: 2
Flags: W
LayerCount: 2
Fore
SplineSet
53 0 m 1,0,-1
 175 735 l 1,1,-1
 256 735 l 1,2,-1
 360 315 l 2,3,4
 369 279 369 279 382 219 c 128,-1,5
 395 159 395 159 399 138 c 1,6,-1
 403 138 l 1,7,8
 454 232 454 232 501 315 c 2,9,-1
 744 735 l 1,10,-1
 826 735 l 1,11,-1
 705 0 l 1,12,-1
 643 0 l 1,13,-1
 717 446 l 2,14,15
 729 520 729 520 759 656 c 1,16,-1
 757 656 l 1,17,-1
 417 59 l 1,18,-1
 361 59 l 1,19,-1
 241 557 l 1,20,-1
 219 656 l 1,21,-1
 215 656 l 1,22,23
 201 519 201 519 189 446 c 2,24,-1
 115 0 l 1,25,-1
 53 0 l 1,0,-1
EndSplineSet
EndChar

StartChar: N
Encoding: 78 78 49
Width: 706
GlyphClass: 2
Flags: W
LayerCount: 2
Fore
SplineSet
53 0 m 1,0,-1
 175 735 l 1,1,-1
 247 735 l 1,2,-1
 456 238 l 1,3,-1
 518 89 l 1,4,-1
 523 89 l 1,5,6
 527 172 527 172 545 286 c 2,7,-1
 620 735 l 1,8,-1
 682 735 l 1,9,-1
 561 0 l 1,10,-1
 488 0 l 1,11,-1
 218 645 l 1,12,-1
 215 645 l 1,13,14
 208 560 208 560 188 442 c 2,15,-1
 115 0 l 1,16,-1
 53 0 l 1,0,-1
EndSplineSet
EndChar

StartChar: O
Encoding: 79 79 50
Width: 687
GlyphClass: 2
Flags: W
LayerCount: 2
Fore
SplineSet
64 367 m 0,0,1
 93 541 93 541 190 647 c 128,-1,2
 287 753 287 753 422 753 c 0,3,4
 557 753 557 753 618 646.5 c 128,-1,5
 679 540 679 540 651 366 c 0,6,7
 622 191 622 191 525 86.5 c 128,-1,8
 428 -18 428 -18 294 -18 c 0,9,10
 159 -18 159 -18 97 87 c 128,-1,11
 35 192 35 192 64 367 c 0,0,1
128 367 m 0,12,13
 103 217 103 217 149.5 127 c 128,-1,14
 196 37 196 37 303 37 c 0,15,16
 408 37 408 37 485 125.5 c 128,-1,17
 562 214 562 214 587 366 c 256,18,19
 612 518 612 518 566.5 608.5 c 128,-1,20
 521 699 521 699 413 699 c 0,21,22
 307 699 307 699 230 609 c 128,-1,23
 153 519 153 519 128 367 c 0,12,13
EndSplineSet
Substitution2: "Single Substitution lookup 12 subtable" ordmasculine
EndChar

StartChar: P
Encoding: 80 80 51
Width: 631
GlyphClass: 2
Flags: W
LayerCount: 2
Fore
SplineSet
53 0 m 1,0,-1
 175 735 l 1,1,-1
 444 735 l 2,2,3
 546 735 546 735 597 677 c 128,-1,4
 648 619 648 619 632 523 c 0,5,6
 616 424 616 424 544.5 367.5 c 128,-1,7
 473 311 473 311 374 311 c 2,8,-1
 166 311 l 1,9,-1
 115 0 l 1,10,-1
 53 0 l 1,0,-1
175 364 m 1,11,-1
 371 364 l 2,12,13
 450 364 450 364 502.5 404 c 128,-1,14
 555 444 555 444 568 523 c 0,15,16
 581 599 581 599 542.5 640 c 128,-1,17
 504 681 504 681 422 681 c 2,18,-1
 228 681 l 1,19,-1
 175 364 l 1,11,-1
EndSplineSet
EndChar

StartChar: Q
Encoding: 81 81 52
Width: 686
GlyphClass: 2
Flags: W
LayerCount: 2
Fore
SplineSet
64 366 m 0,0,1
 93 542 93 542 190.5 647.5 c 128,-1,2
 288 753 288 753 422 753 c 0,3,4
 556 753 556 753 617.5 646.5 c 128,-1,5
 679 540 679 540 651 366 c 0,6,7
 622 193 622 193 526 88 c 0,8,9
 520 82 520 82 516 77 c 1,10,-1
 587 -14 l 1,11,-1
 539 -51 l 1,12,-1
 470 38 l 1,13,14
 392 -18 392 -18 294 -18 c 0,15,16
 159 -18 159 -18 97 87.5 c 128,-1,17
 35 193 35 193 64 366 c 0,0,1
324 223 m 1,18,-1
 372 261 l 1,19,-1
 481 121 l 1,20,21
 483 124 483 124 485 126 c 0,22,23
 561 215 561 215 587 366 c 0,24,25
 613 522 613 522 565 610.5 c 128,-1,26
 517 699 517 699 413 699 c 0,27,28
 308 699 308 699 230.5 609.5 c 128,-1,29
 153 520 153 520 127 366 c 0,30,31
 102 215 102 215 149.5 126 c 128,-1,32
 197 37 197 37 303 37 c 0,33,34
 377 37 377 37 436 81 c 1,35,-1
 324 223 l 1,18,-1
EndSplineSet
EndChar

StartChar: R
Encoding: 82 82 53
Width: 642
GlyphClass: 2
Flags: W
LayerCount: 2
Fore
SplineSet
178 379 m 1,0,-1
 386 379 l 2,1,2
 462 379 462 379 511 420.5 c 128,-1,3
 560 462 560 462 571 531 c 0,4,5
 582 597 582 597 545.5 639 c 128,-1,6
 509 681 509 681 427 681 c 2,7,-1
 228 681 l 1,8,-1
 178 379 l 1,0,-1
53 0 m 1,9,-1
 175 735 l 1,10,-1
 452 735 l 2,11,12
 556 735 556 735 603 677.5 c 128,-1,13
 650 620 650 620 636 535 c 0,14,15
 623 454 623 454 574 406.5 c 128,-1,16
 525 359 525 359 474 348 c 1,17,18
 512 328 512 328 527 294 c 128,-1,19
 542 260 542 260 545 203 c 0,20,21
 545 197 545 197 547 173 c 128,-1,22
 549 149 549 149 549 144 c 128,-1,23
 549 139 549 139 551 120 c 128,-1,24
 553 101 553 101 554.5 95 c 128,-1,25
 556 89 556 89 558.5 73.5 c 128,-1,26
 561 58 561 58 563.5 49 c 128,-1,27
 566 40 566 40 570.5 26.5 c 128,-1,28
 575 13 575 13 580 0 c 1,29,-1
 511 0 l 1,30,31
 500 30 500 30 493.5 64.5 c 128,-1,32
 487 99 487 99 485 122 c 128,-1,33
 483 145 483 145 480 199 c 0,34,35
 477 256 477 256 454 290.5 c 128,-1,36
 431 325 431 325 371 325 c 2,37,-1
 169 325 l 1,38,-1
 115 0 l 1,39,-1
 53 0 l 1,9,-1
EndSplineSet
EndChar

StartChar: S
Encoding: 83 83 54
Width: 592
GlyphClass: 2
Flags: W
LayerCount: 2
Fore
SplineSet
16 130 m 1,0,-1
 78 152 l 1,1,2
 100 99 100 99 147.5 68 c 128,-1,3
 195 37 195 37 265 37 c 0,4,5
 345 37 345 37 402 77 c 128,-1,6
 459 117 459 117 471 187 c 0,7,8
 476 215 476 215 468.5 238.5 c 128,-1,9
 461 262 461 262 448 277.5 c 128,-1,10
 435 293 435 293 409.5 308 c 128,-1,11
 384 323 384 323 363.5 331.5 c 128,-1,12
 343 340 343 340 310 352 c 0,13,14
 279 363 279 363 263.5 368.5 c 128,-1,15
 248 374 248 374 220.5 386.5 c 128,-1,16
 193 399 193 399 178.5 409 c 128,-1,17
 164 419 164 419 146 435.5 c 128,-1,18
 128 452 128 452 120.5 469.5 c 128,-1,19
 113 487 113 487 109 511.5 c 128,-1,20
 105 536 105 536 110 564 c 0,21,22
 124 650 124 650 196.5 701.5 c 128,-1,23
 269 753 269 753 378 753 c 0,24,25
 458 753 458 753 513.5 715.5 c 128,-1,26
 569 678 569 678 586 622 c 1,27,-1
 530 603 l 1,28,29
 486 699 486 699 367 699 c 0,30,31
 287 699 287 699 235.5 662 c 128,-1,32
 184 625 184 625 173 564 c 0,33,34
 166 519 166 519 193.5 486 c 128,-1,35
 221 453 221 453 249 439.5 c 128,-1,36
 277 426 277 426 343 403 c 0,37,38
 349 400 349 400 353 399 c 0,39,40
 389 386 389 386 413.5 375.5 c 128,-1,41
 438 365 438 365 466.5 347 c 128,-1,42
 495 329 495 329 510.5 308.5 c 128,-1,43
 526 288 526 288 533.5 257.5 c 128,-1,44
 541 227 541 227 535 190 c 0,45,46
 519 92 519 92 443 37 c 128,-1,47
 367 -18 367 -18 254 -18 c 0,48,49
 161 -18 161 -18 101 22 c 128,-1,50
 41 62 41 62 16 130 c 1,0,-1
EndSplineSet
EndChar

StartChar: T
Encoding: 84 84 55
Width: 534
GlyphClass: 2
Flags: W
LayerCount: 2
Fore
SplineSet
79 681 m 1,0,-1
 88 735 l 1,1,-1
 597 735 l 1,2,-1
 588 681 l 1,3,-1
 365 681 l 1,4,-1
 252 0 l 1,5,-1
 190 0 l 1,6,-1
 303 681 l 1,7,-1
 79 681 l 1,0,-1
EndSplineSet
EndChar

StartChar: U
Encoding: 85 85 56
Width: 700
GlyphClass: 2
Flags: W
LayerCount: 2
Fore
SplineSet
95 261 m 2,0,-1
 174 735 l 1,1,-1
 236 735 l 1,2,-1
 158 264 l 2,3,4
 139 151 139 151 181.5 94 c 128,-1,5
 224 37 224 37 309 37 c 0,6,7
 396 37 396 37 457.5 95 c 128,-1,8
 519 153 519 153 537 264 c 2,9,-1
 615 735 l 1,10,-1
 677 735 l 1,11,-1
 598 261 l 2,12,13
 576 129 576 129 499.5 55.5 c 128,-1,14
 423 -18 423 -18 300 -18 c 0,15,16
 180 -18 180 -18 126.5 54.5 c 128,-1,17
 73 127 73 127 95 261 c 2,0,-1
EndSplineSet
EndChar

StartChar: V
Encoding: 86 86 57
Width: 565
GlyphClass: 2
Flags: W
LayerCount: 2
Fore
SplineSet
73 735 m 1,0,-1
 141 735 l 1,1,-1
 222 215 l 2,2,3
 224 198 224 198 232 146 c 128,-1,4
 240 94 240 94 244 64 c 1,5,-1
 247 64 l 1,6,7
 261 96 261 96 287 149 c 128,-1,8
 313 202 313 202 319 215 c 2,9,-1
 575 735 l 1,10,-1
 644 735 l 1,11,-1
 274 0 l 1,12,-1
 198 0 l 1,13,-1
 73 735 l 1,0,-1
EndSplineSet
EndChar

StartChar: W
Encoding: 87 87 58
Width: 828
GlyphClass: 2
Flags: W
LayerCount: 2
Fore
SplineSet
85 735 m 1,0,-1
 153 735 l 1,1,-1
 180 220 l 2,2,3
 182 116 182 116 183 71 c 1,4,-1
 187 71 l 1,5,6
 234 195 234 195 244 220 c 2,7,-1
 454 735 l 1,8,-1
 524 735 l 1,9,-1
 564 220 l 2,10,11
 567 182 567 182 573 71 c 1,12,-1
 576 71 l 1,13,14
 580 81 580 81 629 220 c 2,15,-1
 826 735 l 1,16,-1
 894 735 l 1,17,-1
 600 0 l 1,18,-1
 527 0 l 1,19,-1
 486 508 l 2,20,21
 479 604 479 604 478 656 c 1,22,-1
 475 656 l 1,23,24
 466 629 466 629 445 577 c 128,-1,25
 424 525 424 525 418 508 c 2,26,-1
 210 0 l 1,27,-1
 136 0 l 1,28,-1
 85 735 l 1,0,-1
EndSplineSet
EndChar

StartChar: X
Encoding: 88 88 59
Width: 548
GlyphClass: 2
Flags: W
LayerCount: 2
Fore
SplineSet
-50 0 m 1,0,-1
 250 378 l 1,1,-1
 84 735 l 1,2,-1
 161 735 l 1,3,-1
 247 540 l 1,4,-1
 296 426 l 1,5,-1
 299 426 l 1,6,7
 315 448 315 448 345.5 487 c 128,-1,8
 376 526 376 526 388 540 c 2,9,-1
 537 735 l 1,10,-1
 615 735 l 1,11,-1
 329 378 l 1,12,-1
 506 0 l 1,13,-1
 429 0 l 1,14,-1
 336 205 l 2,15,16
 326 227 326 227 307 271.5 c 128,-1,17
 288 316 288 316 283 328 c 1,18,-1
 280 328 l 1,19,20
 192 212 192 212 187 205 c 2,21,-1
 27 0 l 1,22,-1
 -50 0 l 1,0,-1
EndSplineSet
EndChar

StartChar: Y
Encoding: 89 89 60
Width: 568
GlyphClass: 2
Flags: W
LayerCount: 2
Fore
SplineSet
72 735 m 1,0,-1
 146 735 l 1,1,-1
 246 487 l 2,2,3
 256 463 256 463 275.5 413.5 c 128,-1,4
 295 364 295 364 296 360 c 1,5,-1
 298 360 l 1,6,7
 312 378 312 378 328 400 c 128,-1,8
 344 422 344 422 362.5 448 c 128,-1,9
 381 474 381 474 391 487 c 2,10,-1
 572 735 l 1,11,-1
 646 735 l 1,12,-1
 320 303 l 1,13,-1
 270 0 l 1,14,-1
 207 0 l 1,15,-1
 257 303 l 1,16,-1
 72 735 l 1,0,-1
EndSplineSet
EndChar

StartChar: Z
Encoding: 90 90 61
Width: 594
GlyphClass: 2
Flags: W
LayerCount: 2
Fore
SplineSet
8 48 m 1,0,-1
 530 681 l 1,1,-1
 144 681 l 1,2,-1
 153 735 l 1,3,-1
 614 735 l 1,4,-1
 606 687 l 1,5,-1
 83 54 l 1,6,-1
 512 54 l 1,7,-1
 503 0 l 1,8,-1
 0 0 l 1,9,-1
 8 48 l 1,0,-1
EndSplineSet
EndChar

StartChar: bracketleft
Encoding: 91 91 62
Width: 426
GlyphClass: 2
Flags: W
LayerCount: 2
Fore
SplineSet
78 -131 m 1,0,-1
 238 834 l 1,1,-1
 428 834 l 1,2,-1
 419 783 l 1,3,-1
 289 783 l 1,4,-1
 146 -81 l 1,5,-1
 276 -81 l 1,6,-1
 268 -131 l 1,7,-1
 78 -131 l 1,0,-1
EndSplineSet
EndChar

StartChar: backslash
Encoding: 92 92 63
Width: 307
GlyphClass: 2
Flags: W
LayerCount: 2
Fore
SplineSet
73 786 m 1,0,-1
 135 786 l 1,1,-1
 262 -60 l 1,2,-1
 201 -60 l 1,3,-1
 73 786 l 1,0,-1
EndSplineSet
EndChar

StartChar: bracketright
Encoding: 93 93 64
Width: 426
GlyphClass: 2
Flags: W
LayerCount: 2
Fore
SplineSet
31 -81 m 1,0,-1
 160 -81 l 1,1,-1
 303 783 l 1,2,-1
 174 783 l 1,3,-1
 182 834 l 1,4,-1
 372 834 l 1,5,-1
 212 -131 l 1,6,-1
 22 -131 l 1,7,-1
 31 -81 l 1,0,-1
EndSplineSet
EndChar

StartChar: asciicircum
Encoding: 94 94 65
Width: 481
GlyphClass: 2
Flags: W
LayerCount: 2
Fore
SplineSet
53 486 m 1,0,-1
 299 812 l 1,1,-1
 358 812 l 1,2,-1
 495 486 l 1,3,-1
 431 486 l 1,4,-1
 320 761 l 1,5,-1
 275 701 l 1,6,-1
 118 486 l 1,7,-1
 53 486 l 1,0,-1
EndSplineSet
EndChar

StartChar: underscore
Encoding: 95 95 66
Width: 430
GlyphClass: 2
Flags: W
LayerCount: 2
Fore
SplineSet
-45 -28 m 1,0,-1
 375 -28 l 1,1,-1
 367 -79 l 1,2,-1
 -54 -79 l 1,3,-1
 -45 -28 l 1,0,-1
EndSplineSet
EndChar

StartChar: grave
Encoding: 96 96 67
Width: 273
GlyphClass: 2
Flags: W
LayerCount: 2
Fore
SplineSet
199 544 m 1,0,-1
 125 828 l 1,1,-1
 216 828 l 1,2,-1
 249 544 l 1,3,-1
 199 544 l 1,0,-1
EndSplineSet
EndChar

StartChar: a
Encoding: 97 97 68
Width: 522
GlyphClass: 2
Flags: W
LayerCount: 2
Fore
SplineSet
74 130 m 0,0,1
 67 90 67 90 94.5 61.5 c 128,-1,2
 122 33 122 33 179 33 c 0,3,4
 250 33 250 33 309 81.5 c 128,-1,5
 368 130 368 130 381 205 c 2,6,-1
 394 288 l 1,7,8
 349 274 349 274 247 258 c 0,9,10
 165 244 165 244 124 213 c 128,-1,11
 83 182 83 182 74 130 c 0,0,1
15 126 m 0,12,13
 27 198 27 198 85 242.5 c 128,-1,14
 143 287 143 287 256 305 c 0,15,16
 369 324 369 324 403 337 c 1,17,-1
 407 367 l 2,18,19
 416 422 416 422 385.5 457.5 c 128,-1,20
 355 493 355 493 289 493 c 0,21,22
 243 493 243 493 197 470.5 c 128,-1,23
 151 448 151 448 116 410 c 1,24,-1
 84 442 l 1,25,26
 126 487 126 487 181.5 515 c 128,-1,27
 237 543 237 543 296 543 c 0,28,29
 399 543 399 543 437 489 c 128,-1,30
 475 435 475 435 460 344 c 2,31,-1
 403 0 l 1,32,-1
 348 0 l 1,33,-1
 363 95 l 1,34,35
 339 50 339 50 284 16 c 128,-1,36
 229 -18 229 -18 164 -18 c 0,37,38
 83 -18 83 -18 44 22.5 c 128,-1,39
 5 63 5 63 15 126 c 0,12,13
EndSplineSet
Substitution2: "Single Substitution lookup 12 subtable" ordfeminine
EndChar

StartChar: b
Encoding: 98 98 69
Width: 549
GlyphClass: 2
Flags: W
LayerCount: 2
Fore
SplineSet
36 0 m 1,0,-1
 162 764 l 1,1,-1
 219 764 l 1,2,-1
 161 418 l 1,3,4
 181 464 181 464 231.5 503.5 c 128,-1,5
 282 543 282 543 341 543 c 0,6,7
 434 543 434 543 479 468.5 c 128,-1,8
 524 394 524 394 503 264 c 0,9,10
 480 124 480 124 406 53 c 128,-1,11
 332 -18 332 -18 249 -18 c 0,12,13
 193 -18 193 -18 156 17.5 c 128,-1,14
 119 53 119 53 109 104 c 1,15,-1
 92 0 l 1,16,-1
 36 0 l 1,0,-1
134 264 m 0,17,18
 116 158 116 158 150.5 95.5 c 128,-1,19
 185 33 185 33 250 33 c 0,20,21
 319 33 319 33 373.5 95 c 128,-1,22
 428 157 428 157 446 264 c 0,23,24
 463 368 463 368 429.5 430 c 128,-1,25
 396 492 396 492 327 492 c 0,26,27
 263 492 263 492 207 430.5 c 128,-1,28
 151 369 151 369 134 264 c 0,17,18
EndSplineSet
EndChar

StartChar: c
Encoding: 99 99 70
Width: 474
GlyphClass: 2
Flags: W
LayerCount: 2
Fore
SplineSet
40 263 m 0,0,1
 61 387 61 387 132.5 465 c 128,-1,2
 204 543 204 543 305 543 c 0,3,4
 370 543 370 543 410.5 505 c 128,-1,5
 451 467 451 467 459 413 c 1,6,-1
 406 398 l 1,7,8
 397 438 397 438 368.5 465 c 128,-1,9
 340 492 340 492 297 492 c 0,10,11
 224 492 224 492 169.5 427 c 128,-1,12
 115 362 115 362 98 263 c 0,13,14
 81 158 81 158 116 95.5 c 128,-1,15
 151 33 151 33 221 33 c 0,16,17
 267 33 267 33 310 63 c 128,-1,18
 353 93 353 93 376 134 c 1,19,-1
 423 117 l 1,20,21
 393 61 393 61 336 21.5 c 128,-1,22
 279 -18 279 -18 213 -18 c 0,23,24
 115 -18 115 -18 67 58.5 c 128,-1,25
 19 135 19 135 40 263 c 0,0,1
EndSplineSet
EndChar

StartChar: d
Encoding: 100 100 71
Width: 549
GlyphClass: 2
Flags: W
LayerCount: 2
Fore
SplineSet
40 264 m 0,0,1
 62 394 62 394 132.5 468.5 c 128,-1,2
 203 543 203 543 294 543 c 0,3,4
 352 543 352 543 388 506 c 128,-1,5
 424 469 424 469 433 419 c 1,6,-1
 490 764 l 1,7,-1
 547 764 l 1,8,-1
 420 0 l 1,9,-1
 366 0 l 1,10,-1
 383 105 l 1,11,12
 355 52 355 52 307 17 c 128,-1,13
 259 -18 259 -18 201 -18 c 0,14,15
 118 -18 118 -18 67.5 53 c 128,-1,16
 17 124 17 124 40 264 c 0,0,1
99 264 m 0,17,18
 82 159 82 159 114.5 96 c 128,-1,19
 147 33 147 33 217 33 c 0,20,21
 282 33 282 33 337 95 c 128,-1,22
 392 157 392 157 409 264 c 0,23,24
 426 369 426 369 391 430.5 c 128,-1,25
 356 492 356 492 292 492 c 0,26,27
 223 492 223 492 169.5 430 c 128,-1,28
 116 368 116 368 99 264 c 0,17,18
EndSplineSet
EndChar

StartChar: e
Encoding: 101 101 72
Width: 523
GlyphClass: 2
Flags: W
LayerCount: 2
Fore
SplineSet
41 266 m 0,0,1
 61 389 61 389 135.5 466 c 128,-1,2
 210 543 210 543 309 543 c 0,3,4
 409 543 409 543 454.5 467.5 c 128,-1,5
 500 392 500 392 481 279 c 0,6,7
 479 267 479 267 474 243 c 1,8,-1
 95 243 l 1,9,10
 81 157 81 157 115 95 c 128,-1,11
 149 33 149 33 228 33 c 0,12,13
 278 33 278 33 322.5 59 c 128,-1,14
 367 85 367 85 395 127 c 1,15,-1
 441 110 l 1,16,17
 407 54 407 54 350 18 c 128,-1,18
 293 -18 293 -18 219 -18 c 0,19,20
 117 -18 117 -18 68.5 60.5 c 128,-1,21
 20 139 20 139 41 266 c 0,0,1
104 290 m 1,22,-1
 425 290 l 1,23,24
 439 374 439 374 406 433 c 128,-1,25
 373 492 373 492 301 492 c 0,26,27
 227 492 227 492 173 431.5 c 128,-1,28
 119 371 119 371 104 290 c 1,22,-1
EndSplineSet
EndChar

StartChar: f
Encoding: 102 102 73
Width: 313
GlyphClass: 2
Flags: W
LayerCount: 2
Fore
SplineSet
54 474 m 1,0,-1
 63 525 l 1,1,-1
 152 525 l 1,2,-1
 167 615 l 2,3,4
 180 691 180 691 222 727.5 c 128,-1,5
 264 764 264 764 327 764 c 2,6,-1
 385 764 l 1,7,-1
 376 713 l 1,8,-1
 326 713 l 2,9,10
 241 713 241 713 224 607 c 2,11,-1
 210 525 l 1,12,-1
 332 525 l 1,13,-1
 323 474 l 1,14,-1
 202 474 l 1,15,-1
 123 0 l 1,16,-1
 65 0 l 1,17,-1
 144 474 l 1,18,-1
 54 474 l 1,0,-1
EndSplineSet
EndChar

StartChar: g
Encoding: 103 103 74
Width: 538
GlyphClass: 2
Flags: W
LayerCount: 2
Fore
SplineSet
100 272 m 0,0,1
 84 174 84 174 115.5 113.5 c 128,-1,2
 147 53 147 53 215 53 c 0,3,4
 284 53 284 53 333.5 111.5 c 128,-1,5
 383 170 383 170 401 274 c 0,6,7
 418 374 418 374 386.5 433 c 128,-1,8
 355 492 355 492 289 492 c 0,9,10
 219 492 219 492 167.5 430 c 128,-1,11
 116 368 116 368 100 272 c 0,0,1
42 272 m 0,12,13
 62 394 62 394 130 468.5 c 128,-1,14
 198 543 198 543 290 543 c 0,15,16
 351 543 351 543 383.5 508 c 128,-1,17
 416 473 416 473 426 427 c 1,18,-1
 442 525 l 1,19,-1
 498 525 l 1,20,-1
 420 54 l 2,21,22
 395 -94 395 -94 334.5 -166.5 c 128,-1,23
 274 -239 274 -239 166 -239 c 0,24,25
 49 -239 49 -239 1 -147 c 1,26,-1
 48 -118 l 1,27,28
 96 -189 96 -189 176 -189 c 0,29,30
 250 -189 250 -189 296.5 -131 c 128,-1,31
 343 -73 343 -73 360 29 c 2,32,-1
 374 114 l 1,33,34
 347 65 347 65 303.5 33 c 128,-1,35
 260 1 260 1 203 1 c 0,36,37
 109 1 109 1 65.5 77 c 128,-1,38
 22 153 22 153 42 272 c 0,12,13
EndSplineSet
EndChar

StartChar: h
Encoding: 104 104 75
Width: 536
GlyphClass: 2
Flags: W
LayerCount: 2
Fore
SplineSet
36 0 m 1,0,-1
 162 764 l 1,1,-1
 219 764 l 1,2,-1
 164 432 l 1,3,-1
 166 432 l 1,4,5
 190 476 190 476 240 509.5 c 128,-1,6
 290 543 290 543 347 543 c 0,7,8
 506 543 506 543 473 340 c 2,9,-1
 417 0 l 1,10,-1
 360 0 l 1,11,-1
 415 329 l 2,12,13
 442 492 442 492 328 492 c 0,14,15
 267 492 267 492 211.5 439 c 128,-1,16
 156 386 156 386 144 315 c 2,17,-1
 92 0 l 1,18,-1
 36 0 l 1,0,-1
EndSplineSet
Substitution2: "'sups' Superscript lookup 5 subtable" uni02B0
Substitution2: "'aalt' Access All Alternates lookup 0 subtable" uni02B0
EndChar

StartChar: i
Encoding: 105 105 76
Width: 251
GlyphClass: 2
Flags: W
LayerCount: 2
Fore
SplineSet
146 654 m 1,0,-1
 161 746 l 1,1,-1
 243 746 l 1,2,-1
 228 654 l 1,3,-1
 146 654 l 1,0,-1
51 0 m 1,4,-1
 138 525 l 1,5,-1
 195 525 l 1,6,-1
 108 0 l 1,7,-1
 51 0 l 1,4,-1
EndSplineSet
EndChar

StartChar: j
Encoding: 106 106 77
Width: 259
GlyphClass: 2
Flags: W
LayerCount: 2
Fore
SplineSet
153 654 m 1,0,-1
 168 746 l 1,1,-1
 252 746 l 1,2,-1
 236 654 l 1,3,-1
 153 654 l 1,0,-1
-84 -177 m 1,4,-1
 -60 -177 l 2,5,6
 29 -177 29 -177 51 -49 c 2,7,-1
 146 525 l 1,8,-1
 202 525 l 1,9,-1
 106 -53 l 2,10,11
 92 -138 92 -138 49 -183 c 128,-1,12
 6 -228 6 -228 -59 -228 c 2,13,-1
 -92 -228 l 1,14,-1
 -84 -177 l 1,4,-1
EndSplineSet
Substitution2: "'sups' Superscript lookup 5 subtable" uni02B2
Substitution2: "'aalt' Access All Alternates lookup 0 subtable" uni02B2
EndChar

StartChar: k
Encoding: 107 107 78
Width: 473
GlyphClass: 2
Flags: W
LayerCount: 2
Fore
SplineSet
37 0 m 1,0,-1
 163 764 l 1,1,-1
 221 764 l 1,2,-1
 135 243 l 1,3,-1
 418 525 l 1,4,-1
 494 525 l 1,5,-1
 283 317 l 1,6,-1
 430 0 l 1,7,-1
 359 0 l 1,8,-1
 237 273 l 1,9,-1
 121 160 l 1,10,-1
 95 0 l 1,11,-1
 37 0 l 1,0,-1
EndSplineSet
EndChar

StartChar: l
Encoding: 108 108 79
Width: 231
GlyphClass: 2
Flags: W
LayerCount: 2
Fore
SplineSet
40 0 m 1,0,-1
 167 764 l 1,1,-1
 223 764 l 1,2,-1
 97 0 l 1,3,-1
 40 0 l 1,0,-1
EndSplineSet
Substitution2: "'sups' Superscript lookup 5 subtable" uni02E1
Substitution2: "'aalt' Access All Alternates lookup 0 subtable" uni02E1
EndChar

StartChar: m
Encoding: 109 109 80
Width: 791
GlyphClass: 2
Flags: W
LayerCount: 2
Fore
SplineSet
30 0 m 1,0,-1
 117 525 l 1,1,-1
 174 525 l 1,2,-1
 159 439 l 1,3,-1
 160 439 l 1,4,5
 180 478 180 478 223.5 510.5 c 128,-1,6
 267 543 267 543 325 543 c 0,7,8
 425 543 425 543 435 418 c 1,9,10
 441 431 441 431 454 449 c 128,-1,11
 467 467 467 467 489.5 489.5 c 128,-1,12
 512 512 512 512 547 527.5 c 128,-1,13
 582 543 582 543 621 543 c 0,14,15
 696 543 696 543 720.5 491 c 128,-1,16
 745 439 745 439 729 340 c 2,17,-1
 673 0 l 1,18,-1
 615 0 l 1,19,-1
 671 334 l 2,20,21
 684 412 684 412 670 452 c 128,-1,22
 656 492 656 492 599 492 c 256,23,24
 542 492 542 492 494 442 c 128,-1,25
 446 392 446 392 433 314 c 2,26,-1
 381 0 l 1,27,-1
 323 0 l 1,28,-1
 379 334 l 2,29,30
 405 492 405 492 305 492 c 0,31,32
 244 492 244 492 199 443.5 c 128,-1,33
 154 395 154 395 141 319 c 2,34,-1
 89 0 l 1,35,-1
 30 0 l 1,0,-1
EndSplineSet
EndChar

StartChar: n
Encoding: 110 110 81
Width: 531
GlyphClass: 2
Flags: W
LayerCount: 2
Fore
SplineSet
30 0 m 1,0,-1
 117 525 l 1,1,-1
 174 525 l 1,2,-1
 157 426 l 1,3,-1
 158 426 l 1,4,5
 175 466 175 466 227.5 504.5 c 128,-1,6
 280 543 280 543 344 543 c 0,7,8
 411 543 411 543 449.5 497.5 c 128,-1,9
 488 452 488 452 469 340 c 2,10,-1
 413 0 l 1,11,-1
 355 0 l 1,12,-1
 409 329 l 2,13,14
 436 492 436 492 323 492 c 0,15,16
 262 492 262 492 207.5 440 c 128,-1,17
 153 388 153 388 141 317 c 2,18,-1
 89 0 l 1,19,-1
 30 0 l 1,0,-1
EndSplineSet
Substitution2: "'sups' Superscript lookup 5 subtable" uni207F
Substitution2: "'aalt' Access All Alternates lookup 0 subtable" uni207F
EndChar

StartChar: o
Encoding: 111 111 82
Width: 528
GlyphClass: 2
Flags: W
LayerCount: 2
Fore
SplineSet
98 263 m 0,0,1
 81 159 81 159 116.5 96 c 128,-1,2
 152 33 152 33 223 33 c 0,3,4
 293 33 293 33 350 96.5 c 128,-1,5
 407 160 407 160 424 263 c 0,6,7
 441 368 441 368 404.5 430 c 128,-1,8
 368 492 368 492 299 492 c 256,9,10
 230 492 230 492 172.5 430 c 128,-1,11
 115 368 115 368 98 263 c 0,0,1
40 263 m 0,12,13
 60 384 60 384 131.5 463.5 c 128,-1,14
 203 543 203 543 307 543 c 0,15,16
 410 543 410 543 456.5 463.5 c 128,-1,17
 503 384 503 384 483 263 c 0,18,19
 471 191 471 191 438.5 129.5 c 128,-1,20
 406 68 406 68 347 25 c 128,-1,21
 288 -18 288 -18 214 -18 c 256,22,23
 140 -18 140 -18 96 25 c 128,-1,24
 52 68 52 68 40 129.5 c 128,-1,25
 28 191 28 191 40 263 c 0,12,13
EndSplineSet
Substitution2: "Single Substitution lookup 12 subtable" ordmasculine
EndChar

StartChar: p
Encoding: 112 112 83
Width: 549
GlyphClass: 2
Flags: W
LayerCount: 2
Fore
SplineSet
136 264 m 0,0,1
 119 160 119 160 149.5 96.5 c 128,-1,2
 180 33 180 33 251 33 c 0,3,4
 318 33 318 33 373 95 c 128,-1,5
 428 157 428 157 446 264 c 0,6,7
 463 364 463 364 431.5 428 c 128,-1,8
 400 492 400 492 327 492 c 0,9,10
 261 492 261 492 206.5 427.5 c 128,-1,11
 152 363 152 363 136 264 c 0,0,1
-3 -235 m 1,12,-1
 123 525 l 1,13,-1
 178 525 l 1,14,-1
 160 418 l 1,15,16
 190 475 190 475 238.5 509 c 128,-1,17
 287 543 287 543 342 543 c 0,18,19
 434 543 434 543 479 467 c 128,-1,20
 524 391 524 391 503 264 c 0,21,22
 481 129 481 129 408 55.5 c 128,-1,23
 335 -18 335 -18 249 -18 c 0,24,25
 191 -18 191 -18 155.5 16 c 128,-1,26
 120 50 120 50 109 103 c 1,27,-1
 53 -235 l 1,28,-1
 -3 -235 l 1,12,-1
EndSplineSet
EndChar

StartChar: q
Encoding: 113 113 84
Width: 548
GlyphClass: 2
Flags: W
LayerCount: 2
Fore
SplineSet
99 264 m 0,0,1
 81 158 81 158 115 95.5 c 128,-1,2
 149 33 149 33 216 33 c 0,3,4
 285 33 285 33 337.5 97 c 128,-1,5
 390 161 390 161 407 264 c 0,6,7
 424 365 424 365 391.5 428.5 c 128,-1,8
 359 492 359 492 292 492 c 0,9,10
 218 492 218 492 167 428 c 128,-1,11
 116 364 116 364 99 264 c 0,0,1
40 264 m 0,12,13
 61 391 61 391 131.5 467 c 128,-1,14
 202 543 202 543 294 543 c 0,15,16
 347 543 347 543 385 510 c 128,-1,17
 423 477 423 477 435 419 c 1,18,-1
 453 525 l 1,19,-1
 507 525 l 1,20,-1
 381 -235 l 1,21,-1
 325 -235 l 1,22,-1
 381 104 l 1,23,24
 352 51 352 51 305 16.5 c 128,-1,25
 258 -18 258 -18 201 -18 c 0,26,27
 115 -18 115 -18 66 55 c 128,-1,28
 17 128 17 128 40 264 c 0,12,13
EndSplineSet
EndChar

StartChar: r
Encoding: 114 114 85
Width: 346
GlyphClass: 2
Flags: W
LayerCount: 2
Fore
SplineSet
30 0 m 1,0,-1
 117 525 l 1,1,-1
 173 525 l 1,2,-1
 159 442 l 1,3,4
 180 480 180 480 221 511.5 c 128,-1,5
 262 543 262 543 319 543 c 0,6,7
 363 543 363 543 389 529 c 1,8,-1
 380 473 l 1,9,10
 345 488 345 488 310 488 c 0,11,12
 244 488 244 488 198 436 c 128,-1,13
 152 384 152 384 138 301 c 2,14,-1
 89 0 l 1,15,-1
 30 0 l 1,0,-1
EndSplineSet
Substitution2: "'sups' Superscript lookup 5 subtable" uni02B3
Substitution2: "'aalt' Access All Alternates lookup 0 subtable" uni02B3
EndChar

StartChar: s
Encoding: 115 115 86
Width: 461
GlyphClass: 2
Flags: W
LayerCount: 2
Fore
SplineSet
6 98 m 1,0,-1
 54 125 l 1,1,2
 95 33 95 33 192 33 c 0,3,4
 252 33 252 33 293 58 c 128,-1,5
 334 83 334 83 341 127 c 0,6,7
 344 147 344 147 338 162.5 c 128,-1,8
 332 178 332 178 323 188.5 c 128,-1,9
 314 199 314 199 290 210.5 c 128,-1,10
 266 222 266 222 251.5 227.5 c 128,-1,11
 237 233 237 233 201 245 c 0,12,13
 170 256 170 256 148 266.5 c 128,-1,14
 126 277 126 277 104 295 c 128,-1,15
 82 313 82 313 73 339 c 128,-1,16
 64 365 64 365 70 399 c 0,17,18
 81 464 81 464 137 503.5 c 128,-1,19
 193 543 193 543 276 543 c 0,20,21
 336 543 336 543 380 510.5 c 128,-1,22
 424 478 424 478 438 433 c 1,23,-1
 394 406 l 1,24,25
 380 442 380 442 346.5 467 c 128,-1,26
 313 492 313 492 268 492 c 0,27,28
 208 492 208 492 171 466.5 c 128,-1,29
 134 441 134 441 127 398 c 0,30,31
 122 366 122 366 140.5 342 c 128,-1,32
 159 318 159 318 183 306.5 c 128,-1,33
 207 295 207 295 247 282 c 0,34,35
 282 271 282 271 306 260.5 c 128,-1,36
 330 250 330 250 356.5 231.5 c 128,-1,37
 383 213 383 213 394 186.5 c 128,-1,38
 405 160 405 160 400 127 c 0,39,40
 390 65 390 65 332 23.5 c 128,-1,41
 274 -18 274 -18 183 -18 c 0,42,43
 119 -18 119 -18 73 12.5 c 128,-1,44
 27 43 27 43 6 98 c 1,0,-1
EndSplineSet
Substitution2: "'hist' Historical Forms lookup 11 subtable" longs
Substitution2: "'sups' Superscript lookup 5 subtable" uni02E2
AlternateSubs2: "'aalt' Access All Alternates lookup 1 subtable" uni02E2 longs
EndChar

StartChar: t
Encoding: 116 116 87
Width: 336
GlyphClass: 2
Flags: W
LayerCount: 2
Fore
SplineSet
52 474 m 1,0,-1
 61 525 l 1,1,-1
 152 525 l 1,2,-1
 181 698 l 1,3,-1
 239 698 l 1,4,-1
 210 525 l 1,5,-1
 343 525 l 1,6,-1
 335 474 l 1,7,-1
 202 474 l 1,8,-1
 148 149 l 2,9,10
 139 97 139 97 154 74.5 c 128,-1,11
 169 52 169 52 209 52 c 0,12,13
 211 52 211 52 213 52 c 2,14,-1
 265 53 l 1,15,-1
 256 0 l 1,16,-1
 197 0 l 2,17,18
 195 0 195 0 193 0 c 0,19,20
 132 0 132 0 104.5 34.5 c 128,-1,21
 77 69 77 69 89 143 c 2,22,-1
 144 474 l 1,23,-1
 52 474 l 1,0,-1
EndSplineSet
EndChar

StartChar: u
Encoding: 117 117 88
Width: 528
GlyphClass: 2
Flags: W
LayerCount: 2
Fore
SplineSet
56 183 m 2,0,-1
 113 525 l 1,1,-1
 170 525 l 1,2,-1
 116 198 l 2,3,4
 89 33 89 33 206 33 c 0,5,6
 277 33 277 33 325 90 c 128,-1,7
 373 147 373 147 385 225 c 2,8,-1
 435 525 l 1,9,-1
 492 525 l 1,10,-1
 405 0 l 1,11,-1
 349 0 l 1,12,-1
 365 94 l 1,13,14
 360 79 360 79 346.5 61.5 c 128,-1,15
 333 44 333 44 311 25 c 128,-1,16
 289 6 289 6 256 -6 c 128,-1,17
 223 -18 223 -18 184 -18 c 0,18,19
 110 -18 110 -18 75 34.5 c 128,-1,20
 40 87 40 87 56 183 c 2,0,-1
EndSplineSet
EndChar

StartChar: v
Encoding: 118 118 89
Width: 464
GlyphClass: 2
Flags: W
LayerCount: 2
Fore
SplineSet
50 525 m 1,0,-1
 115 525 l 1,1,-1
 175 179 l 1,2,-1
 194 53 l 1,3,-1
 196 53 l 1,4,5
 206 76 206 76 227.5 118.5 c 128,-1,6
 249 161 249 161 258 179 c 2,7,-1
 430 525 l 1,8,-1
 495 525 l 1,9,-1
 221 0 l 1,10,-1
 150 0 l 1,11,-1
 50 525 l 1,0,-1
EndSplineSet
EndChar

StartChar: w
Encoding: 119 119 90
Width: 671
GlyphClass: 2
Flags: W
LayerCount: 2
Fore
SplineSet
49 525 m 1,0,-1
 114 525 l 1,1,-1
 140 178 l 2,2,3
 144 112 144 112 146 56 c 1,4,-1
 150 56 l 1,5,6
 162 87 162 87 198 178 c 2,7,-1
 342 525 l 1,8,-1
 412 525 l 1,9,-1
 440 175 l 2,10,11
 441 167 441 167 444.5 124.5 c 128,-1,12
 448 82 448 82 448 56 c 1,13,-1
 451 56 l 1,14,15
 458 75 458 75 474 115 c 128,-1,16
 490 155 490 155 499 178 c 2,17,-1
 639 525 l 1,18,-1
 704 525 l 1,19,-1
 477 0 l 1,20,-1
 404 0 l 1,21,-1
 374 337 l 2,22,23
 369 399 369 399 367 460 c 1,24,-1
 364 460 l 1,25,26
 340 395 340 395 316 337 c 2,27,-1
 176 0 l 1,28,-1
 102 0 l 1,29,-1
 49 525 l 1,0,-1
EndSplineSet
Substitution2: "'sups' Superscript lookup 5 subtable" uni02B7
Substitution2: "'aalt' Access All Alternates lookup 0 subtable" uni02B7
EndChar

StartChar: x
Encoding: 120 120 91
Width: 440
GlyphClass: 2
Flags: W
LayerCount: 2
Fore
SplineSet
-42 0 m 1,0,-1
 182 273 l 1,1,-1
 54 525 l 1,2,-1
 123 525 l 1,3,-1
 194 382 l 2,4,5
 198 374 198 374 224 318 c 1,6,-1
 227 318 l 1,7,8
 235 329 235 329 253 352 c 128,-1,9
 271 375 271 375 277 382 c 2,10,-1
 394 525 l 1,11,-1
 463 525 l 1,12,-1
 253 273 l 1,13,-1
 388 0 l 1,14,-1
 319 0 l 1,15,-1
 241 165 l 2,16,17
 214 223 214 223 212 227 c 1,18,-1
 209 227 l 1,19,20
 200 215 200 215 182.5 194 c 128,-1,21
 165 173 165 173 159 165 c 2,22,-1
 27 0 l 1,23,-1
 -42 0 l 1,0,-1
EndSplineSet
Substitution2: "'sups' Superscript lookup 5 subtable" uni02E3
Substitution2: "'aalt' Access All Alternates lookup 0 subtable" uni02E3
EndChar

StartChar: y
Encoding: 121 121 92
Width: 459
GlyphClass: 2
Flags: W
LayerCount: 2
Fore
SplineSet
49 525 m 1,0,-1
 116 525 l 1,1,-1
 174 194 l 2,2,3
 185 129 185 129 195 62 c 1,4,-1
 198 62 l 1,5,6
 210 87 210 87 232 132 c 128,-1,7
 254 177 254 177 262 195 c 2,8,-1
 424 525 l 1,9,-1
 491 525 l 1,10,-1
 172 -95 l 2,11,12
 133 -172 133 -172 92 -203.5 c 128,-1,13
 51 -235 51 -235 3 -235 c 2,14,-1
 -24 -235 l 1,15,-1
 -15 -184 l 1,16,-1
 2 -184 l 2,17,18
 36 -184 36 -184 65.5 -160.5 c 128,-1,19
 95 -137 95 -137 124 -78 c 2,20,-1
 155 -14 l 1,21,-1
 49 525 l 1,0,-1
EndSplineSet
Substitution2: "'sups' Superscript lookup 5 subtable" uni02B8
Substitution2: "'aalt' Access All Alternates lookup 0 subtable" uni02B8
EndChar

StartChar: z
Encoding: 122 122 93
Width: 449
GlyphClass: 2
Flags: W
LayerCount: 2
Fore
SplineSet
-14 0 m 1,0,-1
 -7 42 l 1,1,-1
 365 474 l 1,2,-1
 90 474 l 1,3,-1
 98 525 l 1,4,-1
 449 525 l 1,5,-1
 442 485 l 1,6,-1
 68 52 l 1,7,-1
 379 52 l 1,8,-1
 371 0 l 1,9,-1
 -14 0 l 1,0,-1
EndSplineSet
EndChar

StartChar: braceleft
Encoding: 123 123 94
Width: 433
GlyphClass: 2
Flags: W
LayerCount: 2
Fore
SplineSet
74 323 m 1,0,-1
 82 371 l 1,1,-1
 107 371 l 2,2,3
 185 371 185 371 209 515 c 2,4,-1
 242 710 l 2,5,6
 252 769 252 769 288.5 801.5 c 128,-1,7
 325 834 325 834 371 834 c 2,8,-1
 445 834 l 1,9,-1
 436 783 l 1,10,-1
 373 783 l 2,11,12
 348 783 348 783 327.5 762 c 128,-1,13
 307 741 307 741 300 701 c 2,14,-1
 267 504 l 2,15,16
 256 440 256 440 232 404.5 c 128,-1,17
 208 369 208 369 169 347 c 1,18,19
 236 313 236 313 217 201 c 2,20,-1
 186 10 l 2,21,22
 179 -35 179 -35 191.5 -57.5 c 128,-1,23
 204 -80 204 -80 232 -80 c 2,24,-1
 293 -80 l 1,25,-1
 285 -130 l 1,26,-1
 211 -130 l 2,27,28
 166 -130 166 -130 139.5 -99.5 c 128,-1,29
 113 -69 113 -69 123 -8 c 2,30,-1
 155 188 l 2,31,32
 166 253 166 253 150.5 288 c 128,-1,33
 135 323 135 323 99 323 c 2,34,-1
 74 323 l 1,0,-1
EndSplineSet
EndChar

StartChar: bar
Encoding: 124 124 95
Width: 238
GlyphClass: 2
Flags: W
LayerCount: 2
Fore
SplineSet
15 -167 m 1,0,-1
 186 867 l 1,1,-1
 246 867 l 1,2,-1
 75 -167 l 1,3,-1
 15 -167 l 1,0,-1
EndSplineSet
EndChar

StartChar: braceright
Encoding: 125 125 96
Width: 433
GlyphClass: 2
Flags: W
LayerCount: 2
Fore
SplineSet
20 -80 m 1,0,-1
 82 -80 l 2,1,2
 143 -80 143 -80 157 10 c 2,3,-1
 189 203 l 2,4,5
 198 260 198 260 225.5 296.5 c 128,-1,6
 253 333 253 333 286 347 c 1,7,8
 255 368 255 368 241.5 403 c 128,-1,9
 228 438 228 438 239 503 c 2,10,-1
 272 701 l 2,11,12
 279 741 279 741 265.5 762 c 128,-1,13
 252 783 252 783 226 783 c 2,14,-1
 163 783 l 1,15,-1
 171 834 l 1,16,-1
 246 834 l 2,17,18
 292 834 292 834 317.5 801.5 c 128,-1,19
 343 769 343 769 333 710 c 2,20,-1
 301 515 l 2,21,22
 289 442 289 442 304 406.5 c 128,-1,23
 319 371 319 371 355 371 c 2,24,-1
 381 371 l 1,25,-1
 373 323 l 1,26,-1
 347 323 l 2,27,28
 311 323 311 323 284 287 c 128,-1,29
 257 251 257 251 247 190 c 2,30,-1
 214 -8 l 2,31,32
 204 -69 204 -69 167 -99.5 c 128,-1,33
 130 -130 130 -130 85 -130 c 2,34,-1
 12 -130 l 1,35,-1
 20 -80 l 1,0,-1
EndSplineSet
EndChar

StartChar: asciitilde
Encoding: 126 126 97
Width: 725
GlyphClass: 2
Flags: W
LayerCount: 2
Fore
SplineSet
71 311 m 1,0,1
 156 444 156 444 271 444 c 0,2,3
 303 444 303 444 329 430.5 c 128,-1,4
 355 417 355 417 372.5 397.5 c 128,-1,5
 390 378 390 378 406.5 359 c 128,-1,6
 423 340 423 340 443.5 326.5 c 128,-1,7
 464 313 464 313 489 313 c 0,8,9
 504 313 504 313 517 316.5 c 128,-1,10
 530 320 530 320 540.5 324.5 c 128,-1,11
 551 329 551 329 562.5 338 c 128,-1,12
 574 347 574 347 580.5 353 c 128,-1,13
 587 359 587 359 597 371.5 c 128,-1,14
 607 384 607 384 611 389 c 128,-1,15
 615 394 615 394 624 407.5 c 128,-1,16
 633 421 633 421 634 423 c 1,17,-1
 680 397 l 1,18,19
 588 262 588 262 481 262 c 0,20,21
 441 262 441 262 409 282.5 c 128,-1,22
 377 303 377 303 360 327.5 c 128,-1,23
 343 352 343 352 317 372.5 c 128,-1,24
 291 393 291 393 262 393 c 0,25,26
 188 393 188 393 116 285 c 1,27,-1
 71 311 l 1,0,1
EndSplineSet
EndChar

StartChar: exclamdown
Encoding: 161 161 99
Width: 291
GlyphClass: 2
Flags: W
LayerCount: 2
Fore
SplineSet
28 -214 m 1,0,-1
 124 314 l 1,1,-1
 179 314 l 1,2,-1
 100 -214 l 1,3,-1
 28 -214 l 1,0,-1
115 426 m 1,4,-1
 132 529 l 1,5,-1
 241 529 l 1,6,-1
 224 426 l 1,7,-1
 115 426 l 1,4,-1
EndSplineSet
EndChar

StartChar: cent
Encoding: 162 162 100
Width: 486
GlyphClass: 2
Flags: W
LayerCount: 2
Fore
SplineSet
40 263 m 0,0,1
 59 376 59 376 125 455 c 128,-1,2
 191 534 191 534 287 541 c 1,3,-1
 300 620 l 1,4,-1
 357 620 l 1,5,-1
 344 541 l 1,6,7
 399 532 399 532 431 496 c 128,-1,8
 463 460 463 460 471 414 c 1,9,-1
 418 398 l 1,10,11
 408 438 408 438 379 465 c 128,-1,12
 350 492 350 492 306 492 c 0,13,14
 229 492 229 492 173.5 427.5 c 128,-1,15
 118 363 118 363 101 263 c 0,16,17
 84 160 84 160 120 96.5 c 128,-1,18
 156 33 156 33 230 33 c 0,19,20
 275 33 275 33 318.5 63 c 128,-1,21
 362 93 362 93 387 134 c 1,22,-1
 435 117 l 1,23,24
 406 69 406 69 359.5 32.5 c 128,-1,25
 313 -4 313 -4 252 -15 c 1,26,-1
 238 -97 l 1,27,-1
 182 -97 l 1,28,-1
 195 -16 l 1,29,30
 107 -9 107 -9 63.5 66.5 c 128,-1,31
 20 142 20 142 40 263 c 0,0,1
EndSplineSet
EndChar

StartChar: sterling
Encoding: 163 163 101
Width: 559
GlyphClass: 2
Flags: W
LayerCount: 2
Fore
SplineSet
44 338 m 1,0,-1
 52 392 l 1,1,-1
 162 392 l 1,2,-1
 192 569 l 2,3,4
 207 658 207 658 267 706 c 128,-1,5
 327 754 327 754 414 754 c 0,6,7
 475 754 475 754 515 723 c 128,-1,8
 555 692 555 692 569 650 c 1,9,-1
 522 624 l 1,10,11
 508 656 508 656 478 677.5 c 128,-1,12
 448 699 448 699 407 699 c 0,13,14
 346 699 346 699 304.5 665 c 128,-1,15
 263 631 263 631 251 564 c 2,16,-1
 223 392 l 1,17,-1
 450 392 l 1,18,-1
 441 338 l 1,19,-1
 214 338 l 1,20,-1
 192 207 l 2,21,22
 174 99 174 99 111 54 c 1,23,24
 175 67 175 67 212 67 c 0,25,26
 242 67 242 67 288 51.5 c 128,-1,27
 334 36 334 36 365 36 c 0,28,29
 437 36 437 36 496 67 c 1,30,-1
 506 16 l 1,31,32
 436 -18 436 -18 354 -18 c 0,33,34
 324 -18 324 -18 270.5 -2 c 128,-1,35
 217 14 217 14 186 14 c 0,36,37
 154 14 154 14 108.5 7 c 128,-1,38
 63 0 63 0 35 -6 c 2,39,-1
 6 -13 l 1,40,-1
 -4 34 l 1,41,42
 53 50 53 50 87 97 c 128,-1,43
 121 144 121 144 131 205 c 2,44,-1
 153 338 l 1,45,-1
 44 338 l 1,0,-1
EndSplineSet
EndChar

StartChar: currency
Encoding: 164 164 102
Width: 613
GlyphClass: 2
Flags: W
LayerCount: 2
Fore
SplineSet
5 141 m 1,0,-1
 129 243 l 1,1,2
 94 294 94 294 107 368 c 0,3,4
 119 441 119 441 170 493 c 1,5,-1
 80 594 l 1,6,-1
 127 634 l 1,7,-1
 215 533 l 1,8,9
 282 579 282 579 356 579 c 0,10,11
 432 579 432 579 483 533 c 1,12,-1
 602 633 l 1,13,-1
 637 593 l 1,14,-1
 515 493 l 1,15,16
 550 441 550 441 537 368 c 0,17,18
 525 297 525 297 473 243 c 1,19,-1
 562 141 l 1,20,-1
 515 101 l 1,21,-1
 427 202 l 1,22,23
 364 156 364 156 286 156 c 0,24,25
 212 156 212 156 161 202 c 1,26,-1
 39 102 l 1,27,-1
 5 141 l 1,0,-1
163 368 m 0,28,29
 152 303 152 303 189.5 256.5 c 128,-1,30
 227 210 227 210 295 210 c 256,31,32
 364 210 364 210 417 256.5 c 128,-1,33
 470 303 470 303 481 368 c 0,34,35
 492 434 492 434 453.5 480 c 128,-1,36
 415 526 415 526 348 526 c 0,37,38
 279 526 279 526 226.5 480 c 128,-1,39
 174 434 174 434 163 368 c 0,28,29
EndSplineSet
EndChar

StartChar: yen
Encoding: 165 165 103
Width: 567
GlyphClass: 2
Flags: W
LayerCount: 2
Fore
SplineSet
72 735 m 1,0,-1
 146 735 l 1,1,-1
 248 520 l 2,2,3
 287 432 287 432 302 396 c 1,4,-1
 304 396 l 1,5,6
 355 462 355 462 399 519 c 2,7,-1
 572 735 l 1,8,-1
 646 735 l 1,9,-1
 365 388 l 1,10,-1
 525 388 l 1,11,-1
 517 341 l 1,12,-1
 325 341 l 1,13,-1
 307 229 l 1,14,-1
 499 229 l 1,15,-1
 491 182 l 1,16,-1
 299 182 l 1,17,-1
 269 0 l 1,18,-1
 207 0 l 1,19,-1
 237 182 l 1,20,-1
 42 182 l 1,21,-1
 50 229 l 1,22,-1
 245 229 l 1,23,-1
 263 341 l 1,24,-1
 68 341 l 1,25,-1
 76 388 l 1,26,-1
 239 388 l 1,27,-1
 72 735 l 1,0,-1
EndSplineSet
EndChar

StartChar: brokenbar
Encoding: 166 166 104
Width: 238
GlyphClass: 2
Flags: W
LayerCount: 2
Fore
SplineSet
119 465 m 1,0,-1
 186 867 l 1,1,-1
 246 867 l 1,2,-1
 180 465 l 1,3,-1
 119 465 l 1,0,-1
15 -166 m 1,4,-1
 81 233 l 1,5,-1
 142 233 l 1,6,-1
 75 -166 l 1,7,-1
 15 -166 l 1,4,-1
EndSplineSet
EndChar

StartChar: section
Encoding: 167 167 105
Width: 544
GlyphClass: 2
Flags: W
LayerCount: 2
Fore
SplineSet
20 42 m 1,0,-1
 67 73 l 1,1,2
 83 39 83 39 120 18 c 128,-1,3
 157 -3 157 -3 205 -3 c 0,4,5
 267 -3 267 -3 303 19 c 128,-1,6
 339 41 339 41 346 79 c 0,7,8
 351 110 351 110 335.5 128.5 c 128,-1,9
 320 147 320 147 278 167 c 2,10,-1
 180 215 l 2,11,12
 124 242 124 242 100 275 c 128,-1,13
 76 308 76 308 84 355 c 0,14,15
 90 390 90 390 113 421.5 c 128,-1,16
 136 453 136 453 156 468.5 c 128,-1,17
 176 484 176 484 209 505 c 1,18,19
 147 558 147 558 157 616 c 0,20,21
 167 679 167 679 221.5 716 c 128,-1,22
 276 753 276 753 369 753 c 0,23,24
 431 753 431 753 477 725.5 c 128,-1,25
 523 698 523 698 544 653 c 1,26,-1
 498 624 l 1,27,28
 451 700 451 700 358 700 c 0,29,30
 293 700 293 700 259 676.5 c 128,-1,31
 225 653 225 653 219 617 c 0,32,33
 217 606 217 606 218 596 c 128,-1,34
 219 586 219 586 224.5 577 c 128,-1,35
 230 568 230 568 234.5 560.5 c 128,-1,36
 239 553 239 553 250.5 544.5 c 128,-1,37
 262 536 262 536 269 531 c 128,-1,38
 276 526 276 526 290.5 517.5 c 128,-1,39
 305 509 305 509 312.5 505 c 128,-1,40
 320 501 320 501 338 492 c 128,-1,41
 356 483 356 483 363 479 c 0,42,43
 436 440 436 440 466 407 c 128,-1,44
 496 374 496 374 487 320 c 0,45,46
 474 241 474 241 379 171 c 1,47,48
 416 135 416 135 407 79 c 0,49,50
 397 19 397 19 344.5 -19 c 128,-1,51
 292 -57 292 -57 197 -57 c 0,52,53
 131 -57 131 -57 85.5 -28.5 c 128,-1,54
 40 0 40 0 20 42 c 1,0,-1
147 359 m 0,55,56
 141 320 141 320 158 301 c 128,-1,57
 175 282 175 282 229 255 c 2,58,-1
 336 201 l 1,59,60
 415 258 415 258 426 320 c 0,61,62
 431 353 431 353 410 374.5 c 128,-1,63
 389 396 389 396 333 428 c 2,64,-1
 251 476 l 1,65,66
 220 456 220 456 202.5 443 c 128,-1,67
 185 430 185 430 168 407 c 128,-1,68
 151 384 151 384 147 359 c 0,55,56
EndSplineSet
EndChar

StartChar: dieresis
Encoding: 168 168 106
Width: 442
GlyphClass: 2
Flags: W
LayerCount: 2
Fore
SplineSet
153 645 m 1,0,-1
 167 735 l 1,1,-1
 256 735 l 1,2,-1
 241 645 l 1,3,-1
 153 645 l 1,0,-1
323 645 m 1,4,-1
 338 735 l 1,5,-1
 425 735 l 1,6,-1
 410 645 l 1,7,-1
 323 645 l 1,4,-1
EndSplineSet
EndChar

StartChar: copyright
Encoding: 169 169 107
Width: 860
GlyphClass: 2
Flags: W
LayerCount: 2
Fore
SplineSet
267 372 m 0,0,1
 285 478 285 478 347 544 c 128,-1,2
 409 610 409 610 498 610 c 0,3,4
 601 610 601 610 633 501 c 1,5,-1
 582 484 l 1,6,7
 555 560 555 560 490 560 c 0,8,9
 427 560 427 560 381 508 c 128,-1,10
 335 456 335 456 322 372 c 0,11,12
 308 286 308 286 337 235 c 128,-1,13
 366 184 366 184 428 184 c 0,14,15
 467 184 467 184 501 207.5 c 128,-1,16
 535 231 535 231 556 266 c 1,17,-1
 602 249 l 1,18,19
 575 202 575 202 526.5 168 c 128,-1,20
 478 134 478 134 419 134 c 0,21,22
 334 134 334 134 291.5 198.5 c 128,-1,23
 249 263 249 263 267 372 c 0,0,1
63 374 m 256,24,25
 91 545 91 545 218 655 c 128,-1,26
 345 765 345 765 510 765 c 0,27,28
 677 765 677 765 767.5 655 c 128,-1,29
 858 545 858 545 830 374 c 0,30,31
 802 207 802 207 674.5 95 c 128,-1,32
 547 -17 547 -17 381 -17 c 0,33,34
 216 -17 216 -17 125.5 93 c 128,-1,35
 35 203 35 203 63 374 c 256,24,25
109 374 m 0,36,37
 84 226 84 226 161 126 c 128,-1,38
 238 26 238 26 388 26 c 0,39,40
 536 26 536 26 647.5 125 c 128,-1,41
 759 224 759 224 783 374 c 0,42,43
 808 523 808 523 729.5 622.5 c 128,-1,44
 651 722 651 722 503 722 c 0,45,46
 357 722 357 722 245.5 623.5 c 128,-1,47
 134 525 134 525 109 374 c 0,36,37
EndSplineSet
EndChar

StartChar: ordfeminine
Encoding: 170 170 108
Width: 375
GlyphClass: 2
Flags: W
LayerCount: 2
Fore
SplineSet
45 336 m 1,0,-1
 52 380 l 1,1,-1
 356 380 l 1,2,-1
 348 336 l 1,3,-1
 45 336 l 1,0,-1
122 548 m 0,4,5
 118 523 118 523 136 504 c 128,-1,6
 154 485 154 485 193 485 c 0,7,8
 241 485 241 485 281 516.5 c 128,-1,9
 321 548 321 548 329 598 c 2,10,-1
 338 650 l 1,11,12
 320 645 320 645 287.5 639.5 c 128,-1,13
 255 634 255 634 231 629.5 c 128,-1,14
 207 625 207 625 182 616.5 c 128,-1,15
 157 608 157 608 141.5 591 c 128,-1,16
 126 574 126 574 122 548 c 0,4,5
73 545 m 0,17,18
 79 582 79 582 100.5 607.5 c 128,-1,19
 122 633 122 633 154.5 646 c 128,-1,20
 187 659 187 659 217.5 665.5 c 128,-1,21
 248 672 248 672 286.5 679 c 128,-1,22
 325 686 325 686 345 692 c 1,23,-1
 347 709 l 2,24,25
 353 745 353 745 333 768 c 128,-1,26
 313 791 313 791 268 791 c 0,27,28
 230 791 230 791 195.5 771 c 128,-1,29
 161 751 161 751 147 733 c 1,30,-1
 119 759 l 1,31,32
 140 785 140 785 183.5 808.5 c 128,-1,33
 227 832 227 832 274 832 c 0,34,35
 348 832 348 832 375.5 794.5 c 128,-1,36
 403 757 403 757 393 693 c 2,37,-1
 353 455 l 1,38,-1
 307 455 l 1,39,-1
 316 508 l 1,40,41
 295 480 295 480 259.5 461.5 c 128,-1,42
 224 443 224 443 182 443 c 0,43,44
 123 443 123 443 94.5 471.5 c 128,-1,45
 66 500 66 500 73 545 c 0,17,18
EndSplineSet
EndChar

StartChar: guillemotleft
Encoding: 171 171 109
Width: 431
GlyphClass: 2
Flags: W
LayerCount: 2
Fore
SplineSet
28 250 m 1,0,-1
 221 473 l 1,1,-1
 260 443 l 1,2,-1
 95 250 l 1,3,-1
 195 57 l 1,4,-1
 146 26 l 1,5,-1
 28 250 l 1,0,-1
195 250 m 1,6,-1
 387 468 l 1,7,-1
 424 436 l 1,8,-1
 261 250 l 1,9,-1
 362 63 l 1,10,-1
 313 31 l 1,11,-1
 195 250 l 1,6,-1
EndSplineSet
EndChar

StartChar: logicalnot
Encoding: 172 172 110
Width: 526
GlyphClass: 2
Flags: W
LayerCount: 2
Fore
SplineSet
52 323 m 1,0,-1
 61 377 l 1,1,-1
 498 377 l 1,2,-1
 456 126 l 1,3,-1
 399 126 l 1,4,-1
 431 323 l 1,5,-1
 52 323 l 1,0,-1
EndSplineSet
EndChar

StartChar: uni00AD
Encoding: 173 173 111
Width: 540
GlyphClass: 2
Flags: W
LayerCount: 2
Fore
SplineSet
64 336 m 1,0,-1
 73 390 l 1,1,-1
 502 390 l 1,2,-1
 493 336 l 1,3,-1
 64 336 l 1,0,-1
EndSplineSet
EndChar

StartChar: registered
Encoding: 174 174 112
Width: 860
GlyphClass: 2
Flags: W
LayerCount: 2
Fore
SplineSet
277 147 m 1,0,-1
 352 596 l 1,1,-1
 516 596 l 2,2,3
 578 596 578 596 607 560 c 128,-1,4
 636 524 636 524 627 471 c 0,5,6
 614 390 614 390 538 360 c 1,7,8
 568 337 568 337 571 276 c 0,9,10
 576 198 576 198 595 147 c 1,11,-1
 534 147 l 1,12,13
 522 180 522 180 516 268 c 0,14,15
 515 302 515 302 504.5 321 c 128,-1,16
 494 340 494 340 464 340 c 2,17,-1
 363 340 l 1,18,-1
 331 147 l 1,19,-1
 277 147 l 1,0,-1
371 387 m 1,20,-1
 474 387 l 2,21,22
 513 387 513 387 539 408.5 c 128,-1,23
 565 430 565 430 571 467 c 0,24,25
 577 501 577 501 559.5 523.5 c 128,-1,26
 542 546 542 546 500 546 c 2,27,-1
 397 546 l 1,28,-1
 371 387 l 1,20,-1
63 374 m 256,29,30
 91 545 91 545 218 655 c 128,-1,31
 345 765 345 765 510 765 c 0,32,33
 677 765 677 765 767.5 655 c 128,-1,34
 858 545 858 545 830 374 c 0,35,36
 802 206 802 206 675 94.5 c 128,-1,37
 548 -17 548 -17 381 -17 c 0,38,39
 216 -17 216 -17 125.5 93 c 128,-1,40
 35 203 35 203 63 374 c 256,29,30
109 374 m 0,41,42
 84 226 84 226 161 126 c 128,-1,43
 238 26 238 26 388 26 c 0,44,45
 537 26 537 26 648 126 c 128,-1,46
 759 226 759 226 783 374 c 0,47,48
 808 524 808 524 729.5 623 c 128,-1,49
 651 722 651 722 503 722 c 0,50,51
 357 722 357 722 245.5 623.5 c 128,-1,52
 134 525 134 525 109 374 c 0,41,42
EndSplineSet
EndChar

StartChar: macron
Encoding: 175 175 113
Width: 501
GlyphClass: 2
Flags: W
LayerCount: 2
Fore
SplineSet
79 760 m 1,0,-1
 88 813 l 1,1,-1
 590 813 l 1,2,-1
 582 760 l 1,3,-1
 79 760 l 1,0,-1
EndSplineSet
EndChar

StartChar: degree
Encoding: 176 176 114
Width: 396
GlyphClass: 2
Flags: W
LayerCount: 2
Fore
SplineSet
135 624 m 0,0,1
 143 672 143 672 182.5 707.5 c 128,-1,2
 222 743 222 743 275 743 c 0,3,4
 325 743 325 743 354 709 c 128,-1,5
 383 675 383 675 375 624 c 256,6,7
 367 573 367 573 326 539.5 c 128,-1,8
 285 506 285 506 236 506 c 0,9,10
 186 506 186 506 156.5 540 c 128,-1,11
 127 574 127 574 135 624 c 0,0,1
177 624 m 0,12,13
 171 589 171 589 190 567 c 128,-1,14
 209 545 209 545 242 545 c 0,15,16
 274 545 274 545 300.5 567.5 c 128,-1,17
 327 590 327 590 333 624 c 0,18,19
 338 657 338 657 320 680 c 128,-1,20
 302 703 302 703 268 703 c 0,21,22
 233 703 233 703 207.5 679.5 c 128,-1,23
 182 656 182 656 177 624 c 0,12,13
EndSplineSet
EndChar

StartChar: plusminus
Encoding: 177 177 115
Width: 542
GlyphClass: 2
Flags: W
LayerCount: 2
Fore
SplineSet
62 406 m 1,0,-1
 71 460 l 1,1,-1
 271 460 l 1,2,-1
 302 646 l 1,3,-1
 361 646 l 1,4,-1
 330 460 l 1,5,-1
 531 460 l 1,6,-1
 522 406 l 1,7,-1
 321 406 l 1,8,-1
 290 222 l 1,9,-1
 232 222 l 1,10,-1
 262 406 l 1,11,-1
 62 406 l 1,0,-1
11 93 m 1,12,-1
 20 147 l 1,13,-1
 478 147 l 1,14,-1
 469 93 l 1,15,-1
 11 93 l 1,12,-1
EndSplineSet
EndChar

StartChar: twosuperior
Encoding: 178 178 116
Width: 307
GlyphClass: 2
Flags: W
LayerCount: 2
Fore
SplineSet
100 722 m 1,0,1
 144 830 144 830 245 830 c 0,2,3
 297 830 297 830 325.5 799 c 128,-1,4
 354 768 354 768 345 714 c 0,5,6
 335 652 335 652 254 583 c 0,7,8
 245 575 245 575 224 557.5 c 128,-1,9
 203 540 203 540 194.5 532.5 c 128,-1,10
 186 525 186 525 170.5 511 c 128,-1,11
 155 497 155 497 146.5 488 c 128,-1,12
 138 479 138 479 128.5 467.5 c 128,-1,13
 119 456 119 456 113 445 c 1,14,-1
 301 445 l 1,15,-1
 294 404 l 1,16,-1
 50 404 l 1,17,18
 50 405 50 405 51 407 c 0,19,20
 58 451 58 451 95 491.5 c 128,-1,21
 132 532 132 532 230 615 c 0,22,23
 290 665 290 665 298 714 c 0,24,25
 304 750 304 750 288 769.5 c 128,-1,26
 272 789 272 789 237 789 c 0,27,28
 172 789 172 789 139 711 c 1,29,-1
 100 722 l 1,0,1
EndSplineSet
EndChar

StartChar: threesuperior
Encoding: 179 179 117
Width: 309
GlyphClass: 2
Flags: W
LayerCount: 2
Fore
SplineSet
53 480 m 1,0,-1
 94 497 l 1,1,2
 117 436 117 436 174 436 c 0,3,4
 212 436 212 436 241 458 c 128,-1,5
 270 480 270 480 277 523 c 0,6,7
 283 560 283 560 260.5 582.5 c 128,-1,8
 238 605 238 605 193 605 c 0,9,10
 182 605 182 605 160 603 c 1,11,-1
 167 646 l 1,12,13
 192 644 192 644 198 644 c 0,14,15
 238 644 238 644 262.5 665 c 128,-1,16
 287 686 287 686 293 720 c 0,17,18
 298 752 298 752 282 771.5 c 128,-1,19
 266 791 266 791 232 791 c 0,20,21
 181 791 181 791 144 727 c 1,22,-1
 107 741 l 1,23,24
 154 831 154 831 240 831 c 0,25,26
 294 831 294 831 321 800 c 128,-1,27
 348 769 348 769 341 723 c 0,28,29
 330 658 330 658 269 628 c 1,30,31
 336 600 336 600 323 523 c 0,32,33
 313 462 313 462 270.5 428.5 c 128,-1,34
 228 395 228 395 168 395 c 0,35,36
 76 395 76 395 53 480 c 1,0,-1
EndSplineSet
EndChar

StartChar: acute
Encoding: 180 180 118
Width: 314
GlyphClass: 2
Flags: W
LayerCount: 2
Fore
SplineSet
132 655 m 1,0,-1
 271 828 l 1,1,-1
 354 828 l 1,2,-1
 186 655 l 1,3,-1
 132 655 l 1,0,-1
EndSplineSet
EndChar

StartChar: uni00B5
Encoding: 181 181 119
Width: 541
GlyphClass: 2
Flags: W
LayerCount: 2
Fore
SplineSet
-3 -235 m 1,0,-1
 123 525 l 1,1,-1
 180 525 l 1,2,-1
 126 196 l 2,3,4
 114 123 114 123 134 78 c 128,-1,5
 154 33 154 33 215 33 c 0,6,7
 287 33 287 33 335.5 90 c 128,-1,8
 384 147 384 147 397 225 c 2,9,-1
 447 525 l 1,10,-1
 504 525 l 1,11,-1
 417 0 l 1,12,-1
 362 0 l 1,13,-1
 378 94 l 1,14,-1
 377 94 l 1,15,16
 356 48 356 48 308.5 15 c 128,-1,17
 261 -18 261 -18 198 -18 c 0,18,19
 124 -18 124 -18 101 46 c 1,20,-1
 54 -235 l 1,21,-1
 -3 -235 l 1,0,-1
EndSplineSet
EndChar

StartChar: paragraph
Encoding: 182 182 120
Width: 610
GlyphClass: 2
Flags: W
LayerCount: 2
Fore
SplineSet
101 547 m 0,0,1
 118 648 118 648 179 709 c 128,-1,2
 240 770 240 770 335 770 c 2,3,-1
 606 770 l 1,4,-1
 467 -71 l 1,5,-1
 416 -71 l 1,6,-1
 546 713 l 1,7,-1
 434 713 l 1,8,-1
 304 -71 l 1,9,-1
 253 -71 l 1,10,-1
 320 331 l 1,11,12
 284 320 284 320 248 320 c 0,13,14
 170 320 170 320 126.5 379.5 c 128,-1,15
 83 439 83 439 101 547 c 0,0,1
EndSplineSet
EndChar

StartChar: periodcentered
Encoding: 183 183 121
Width: 316
GlyphClass: 2
Flags: W
LayerCount: 2
Fore
SplineSet
106 299 m 1,0,-1
 124 405 l 1,1,-1
 234 405 l 1,2,-1
 216 299 l 1,3,-1
 106 299 l 1,0,-1
EndSplineSet
EndChar

StartChar: cedilla
Encoding: 184 184 122
Width: 281
GlyphClass: 2
Flags: W
LayerCount: 2
Fore
SplineSet
-34 -176 m 1,0,1
 11 -186 11 -186 27 -186 c 0,2,3
 100 -186 100 -186 107 -139 c 0,4,5
 114 -94 114 -94 20 -83 c 1,6,-1
 77 5 l 1,7,-1
 132 5 l 1,8,-1
 95 -53 l 1,9,10
 174 -72 174 -72 163 -140 c 0,11,12
 156 -182 156 -182 121.5 -207 c 128,-1,13
 87 -232 87 -232 24 -232 c 0,14,15
 -16 -232 -16 -232 -42 -222 c 1,16,-1
 -34 -176 l 1,0,1
EndSplineSet
EndChar

StartChar: onesuperior
Encoding: 185 185 123
Width: 299
GlyphClass: 2
Flags: W
LayerCount: 2
Fore
SplineSet
126 726 m 1,0,-1
 132 764 l 1,1,-1
 156 764 l 2,2,3
 196 764 196 764 212 774.5 c 128,-1,4
 228 785 228 785 232 808 c 2,5,-1
 235 829 l 1,6,-1
 276 829 l 1,7,-1
 206 402 l 1,8,-1
 159 402 l 1,9,-1
 212 726 l 1,10,-1
 126 726 l 1,0,-1
EndSplineSet
EndChar

StartChar: ordmasculine
Encoding: 186 186 124
Width: 375
GlyphClass: 2
Flags: W
LayerCount: 2
Fore
SplineSet
136 638 m 0,0,1
 125 569 125 569 149 527 c 128,-1,2
 173 485 173 485 221 485 c 0,3,4
 268 485 268 485 307 527.5 c 128,-1,5
 346 570 346 570 357 638 c 0,6,7
 369 708 369 708 344 749 c 128,-1,8
 319 790 319 790 272 790 c 256,9,10
 225 790 225 790 186.5 749 c 128,-1,11
 148 708 148 708 136 638 c 0,0,1
88 638 m 0,12,13
 102 721 102 721 153 776.5 c 128,-1,14
 204 832 204 832 279 832 c 0,15,16
 353 832 353 832 386 777 c 128,-1,17
 419 722 419 722 405 638 c 0,18,19
 392 559 392 559 342.5 501 c 128,-1,20
 293 443 293 443 214 443 c 256,21,22
 136 443 136 443 105.5 501 c 128,-1,23
 75 559 75 559 88 638 c 0,12,13
45 336 m 1,24,-1
 52 380 l 1,25,-1
 356 380 l 1,26,-1
 348 336 l 1,27,-1
 45 336 l 1,24,-1
EndSplineSet
EndChar

StartChar: guillemotright
Encoding: 187 187 125
Width: 431
GlyphClass: 2
Flags: W
LayerCount: 2
Fore
SplineSet
58 436 m 1,0,-1
 107 468 l 1,1,-1
 226 250 l 1,2,-1
 35 31 l 1,3,-1
 -2 63 l 1,4,-1
 160 250 l 1,5,-1
 58 436 l 1,0,-1
162 58 m 1,6,-1
 326 250 l 1,7,-1
 225 443 l 1,8,-1
 275 473 l 1,9,-1
 393 250 l 1,10,-1
 201 26 l 1,11,-1
 162 58 l 1,6,-1
EndSplineSet
EndChar

StartChar: onequarter
Encoding: 188 188 126
Width: 933
GlyphClass: 3
Flags: W
LayerCount: 2
Fore
SplineSet
559 123 m 1,0,-1
 708 123 l 1,1,-1
 739 308 l 2,2,3
 740 317 740 317 743.5 334.5 c 128,-1,4
 747 352 747 352 748 359 c 1,5,-1
 713 313 l 1,6,-1
 559 123 l 1,0,-1
144 675 m 1,7,-1
 152 722 l 1,8,-1
 180 722 l 2,9,10
 226 722 226 722 243.5 733 c 128,-1,11
 261 744 261 744 265 770 c 2,12,-1
 270 797 l 1,13,-1
 319 797 l 1,14,-1
 237 302 l 1,15,-1
 180 302 l 1,16,-1
 242 675 l 1,17,-1
 144 675 l 1,7,-1
94 -51 m 1,18,-1
 705 783 l 1,19,-1
 764 783 l 1,20,-1
 155 -51 l 1,21,-1
 94 -51 l 1,18,-1
497 116 m 1,22,-1
 769 453 l 1,23,-1
 818 453 l 1,24,-1
 763 123 l 1,25,-1
 833 123 l 1,26,-1
 825 74 l 1,27,-1
 755 74 l 1,28,-1
 736 -42 l 1,29,-1
 681 -42 l 1,30,-1
 700 74 l 1,31,-1
 490 74 l 1,32,-1
 497 116 l 1,22,-1
EndSplineSet
Ligature2: "'frac' Diagonal Fractions lookup 7 subtable" one fraction four
Ligature2: "'frac' Diagonal Fractions lookup 7 subtable" one slash four
EndChar

StartChar: onehalf
Encoding: 189 189 127
Width: 932
GlyphClass: 3
Flags: W
LayerCount: 2
Fore
SplineSet
558 325 m 1,0,1
 566 341 566 341 571 352 c 128,-1,2
 576 363 576 363 592 384 c 128,-1,3
 608 405 608 405 624.5 418 c 128,-1,4
 641 431 641 431 668.5 441.5 c 128,-1,5
 696 452 696 452 727 452 c 0,6,7
 788 452 788 452 821 416 c 128,-1,8
 854 380 854 380 843 317 c 0,9,10
 831 242 831 242 746 172 c 0,11,12
 661 101 661 101 626.5 69.5 c 128,-1,13
 592 38 592 38 575 8 c 1,14,-1
 792 8 l 1,15,-1
 784 -41 l 1,16,-1
 501 -41 l 1,17,18
 510 11 510 11 550.5 59 c 128,-1,19
 591 107 591 107 708 203 c 0,20,21
 778 261 778 261 787 317 c 0,22,23
 794 358 794 358 775 380.5 c 128,-1,24
 756 403 756 403 717 403 c 0,25,26
 644 403 644 403 606 311 c 1,27,-1
 558 325 l 1,0,1
144 675 m 1,28,-1
 152 722 l 1,29,-1
 180 722 l 2,30,31
 226 722 226 722 243.5 733 c 128,-1,32
 261 744 261 744 265 770 c 2,33,-1
 270 797 l 1,34,-1
 319 797 l 1,35,-1
 237 302 l 1,36,-1
 180 302 l 1,37,-1
 242 675 l 1,38,-1
 144 675 l 1,28,-1
84 -51 m 1,39,-1
 701 783 l 1,40,-1
 761 783 l 1,41,-1
 146 -51 l 1,42,-1
 84 -51 l 1,39,-1
EndSplineSet
Ligature2: "'frac' Diagonal Fractions lookup 7 subtable" one fraction two
Ligature2: "'frac' Diagonal Fractions lookup 7 subtable" one slash two
EndChar

StartChar: threequarters
Encoding: 190 190 128
Width: 936
GlyphClass: 3
Flags: W
LayerCount: 2
Fore
SplineSet
79 403 m 1,0,-1
 129 423 l 1,1,2
 157 353 157 353 221 353 c 0,3,4
 263 353 263 353 296 377.5 c 128,-1,5
 329 402 329 402 337 451 c 0,6,7
 344 496 344 496 317 520 c 128,-1,8
 290 544 290 544 245 544 c 0,9,10
 213 544 213 544 202 543 c 1,11,-1
 210 594 l 1,12,13
 226 592 226 592 250 592 c 0,14,15
 289 592 289 592 319 615 c 128,-1,16
 349 638 349 638 356 678 c 0,17,18
 362 713 362 713 342.5 736 c 128,-1,19
 323 759 323 759 287 759 c 0,20,21
 229 759 229 759 185 685 c 1,22,-1
 141 702 l 1,23,24
 196 808 196 808 297 808 c 0,25,26
 360 808 360 808 390.5 771.5 c 128,-1,27
 421 735 421 735 412 681 c 0,28,29
 400 608 400 608 331 572 c 1,30,31
 363 558 363 558 381.5 527.5 c 128,-1,32
 400 497 400 497 393 451 c 0,33,34
 381 381 381 381 331.5 342.5 c 128,-1,35
 282 304 282 304 212 304 c 0,36,37
 165 304 165 304 129 328 c 128,-1,38
 93 352 93 352 79 403 c 1,0,-1
509 116 m 1,39,-1
 780 453 l 1,40,-1
 829 453 l 1,41,-1
 774 123 l 1,42,-1
 844 123 l 1,43,-1
 836 74 l 1,44,-1
 766 74 l 1,45,-1
 747 -42 l 1,46,-1
 692 -42 l 1,47,-1
 711 74 l 1,48,-1
 502 74 l 1,49,-1
 509 116 l 1,39,-1
571 123 m 1,50,-1
 719 123 l 1,51,-1
 750 309 l 2,52,53
 751 318 751 318 754.5 334.5 c 128,-1,54
 758 351 758 351 759 358 c 1,55,-1
 726 314 l 1,56,-1
 571 123 l 1,50,-1
163 -51 m 1,57,-1
 780 783 l 1,58,-1
 840 783 l 1,59,-1
 225 -51 l 1,60,-1
 163 -51 l 1,57,-1
EndSplineSet
Ligature2: "'frac' Diagonal Fractions lookup 7 subtable" three fraction four
Ligature2: "'frac' Diagonal Fractions lookup 7 subtable" three slash four
EndChar

StartChar: questiondown
Encoding: 191 191 129
Width: 527
GlyphClass: 2
Flags: W
LayerCount: 2
Fore
SplineSet
15 -35 m 0,0,1
 23 11 23 11 47 47.5 c 128,-1,2
 71 84 71 84 101.5 109 c 128,-1,3
 132 134 132 134 162 159.5 c 128,-1,4
 192 185 192 185 216 221 c 128,-1,5
 240 257 240 257 248 302 c 2,6,-1
 251 322 l 1,7,-1
 313 322 l 1,8,-1
 309 298 l 2,9,10
 301 248 301 248 276 208.5 c 128,-1,11
 251 169 251 169 221 143 c 128,-1,12
 191 117 191 117 161 92.5 c 128,-1,13
 131 68 131 68 108 36 c 128,-1,14
 85 4 85 4 78 -36 c 0,15,16
 67 -101 67 -101 95.5 -139 c 128,-1,17
 124 -177 124 -177 186 -177 c 0,18,19
 286 -177 286 -177 357 -58 c 1,20,-1
 407 -78 l 1,21,22
 369 -149 369 -149 308.5 -190 c 128,-1,23
 248 -231 248 -231 178 -231 c 0,24,25
 89 -231 89 -231 44.5 -177.5 c 128,-1,26
 0 -124 0 -124 15 -35 c 0,0,1
244 427 m 1,27,-1
 261 529 l 1,28,-1
 370 529 l 1,29,-1
 354 427 l 1,30,-1
 244 427 l 1,27,-1
EndSplineSet
EndChar

StartChar: AE
Encoding: 198 198 136
Width: 907
GlyphClass: 2
Flags: W
LayerCount: 2
Fore
SplineSet
224 273 m 1,0,-1
 469 273 l 1,1,-1
 535 676 l 1,2,-1
 527 676 l 1,3,-1
 224 273 l 1,0,-1
-49 0 m 1,4,-1
 505 735 l 1,5,-1
 939 735 l 1,6,-1
 930 681 l 1,7,-1
 598 681 l 1,8,-1
 553 408 l 1,9,-1
 850 408 l 1,10,-1
 841 354 l 1,11,-1
 541 354 l 1,12,-1
 491 54 l 1,13,-1
 833 54 l 1,14,-1
 824 0 l 1,15,-1
 424 0 l 1,16,-1
 460 222 l 1,17,-1
 186 222 l 1,18,-1
 21 0 l 1,19,-1
 -49 0 l 1,4,-1
EndSplineSet
EndChar

StartChar: multiply
Encoding: 215 215 153
Width: 542
GlyphClass: 2
Flags: W
LayerCount: 2
Fore
SplineSet
26 181 m 1,0,-1
 248 362 l 1,1,-1
 88 545 l 1,2,-1
 131 583 l 1,3,-1
 290 398 l 1,4,-1
 511 583 l 1,5,-1
 542 545 l 1,6,-1
 321 362 l 1,7,-1
 483 180 l 1,8,-1
 439 143 l 1,9,-1
 278 327 l 1,10,-1
 58 143 l 1,11,-1
 26 181 l 1,0,-1
EndSplineSet
EndChar

StartChar: Oslash
Encoding: 216 216 154
Width: 687
GlyphClass: 2
Flags: W
LayerCount: 2
Fore
SplineSet
64 367 m 0,0,1
 93 541 93 541 190.5 647.5 c 128,-1,2
 288 754 288 754 422 754 c 0,3,4
 505 754 505 754 564 710 c 1,5,-1
 621 795 l 1,6,-1
 680 795 l 1,7,-1
 599 675 l 1,8,9
 685 570 685 570 651 367 c 0,10,11
 622 192 622 192 525 87 c 128,-1,12
 428 -18 428 -18 294 -18 c 0,13,14
 221 -18 221 -18 168 15 c 1,15,-1
 111 -73 l 1,16,-1
 52 -73 l 1,17,-1
 131 45 l 1,18,19
 28 148 28 148 64 367 c 0,0,1
561 617 m 1,20,-1
 203 66 l 1,21,22
 243 37 243 37 303 37 c 0,23,24
 409 37 409 37 486 126.5 c 128,-1,25
 563 216 563 216 588 367 c 0,26,27
 615 529 615 529 561 617 c 1,20,-1
529 658 m 1,28,29
 484 699 484 699 413 699 c 0,30,31
 307 699 307 699 230 609 c 128,-1,32
 153 519 153 519 128 367 c 0,33,34
 99 190 99 190 168 101 c 1,35,-1
 529 658 l 1,28,29
EndSplineSet
EndChar

StartChar: Thorn
Encoding: 222 222 160
Width: 585
GlyphClass: 2
Flags: W
LayerCount: 2
Fore
SplineSet
53 0 m 1,0,-1
 175 735 l 1,1,-1
 237 735 l 1,2,-1
 215 608 l 1,3,-1
 349 608 l 2,4,5
 475 608 475 608 526.5 546.5 c 128,-1,6
 578 485 578 485 561 380 c 0,7,8
 542 263 542 263 461 206.5 c 128,-1,9
 380 150 380 150 260 150 c 2,10,-1
 140 150 l 1,11,-1
 115 0 l 1,12,-1
 53 0 l 1,0,-1
149 204 m 1,13,-1
 263 204 l 2,14,15
 468 204 468 204 497 380 c 0,16,17
 526 554 526 554 333 554 c 2,18,-1
 207 554 l 1,19,-1
 149 204 l 1,13,-1
EndSplineSet
EndChar

StartChar: germandbls
Encoding: 223 223 161
Width: 618
GlyphClass: 2
Flags: W
LayerCount: 2
Fore
SplineSet
53 0 m 1,0,-1
 146 559 l 2,1,2
 161 652 161 652 227.5 703 c 128,-1,3
 294 754 294 754 383 754 c 0,4,5
 474 754 474 754 522.5 700 c 128,-1,6
 571 646 571 646 556 557 c 0,7,8
 536 437 536 437 444 388 c 1,9,-1
 444 386 l 1,10,11
 499 371 499 371 533.5 321 c 128,-1,12
 568 271 568 271 554 185 c 0,13,14
 539 96 539 96 475.5 39 c 128,-1,15
 412 -18 412 -18 321 -18 c 0,16,17
 249 -18 249 -18 186 4 c 1,18,-1
 201 60 l 1,19,20
 256 37 256 37 327 37 c 0,21,22
 387 37 387 37 434.5 78 c 128,-1,23
 482 119 482 119 493 185 c 0,24,25
 507 267 507 267 466.5 309.5 c 128,-1,26
 426 352 426 352 357 352 c 2,27,-1
 298 352 l 1,28,-1
 307 406 l 1,29,-1
 359 406 l 2,30,31
 409 406 409 406 446.5 447.5 c 128,-1,32
 484 489 484 489 495 553 c 0,33,34
 505 616 505 616 473.5 657.5 c 128,-1,35
 442 699 442 699 375 699 c 0,36,37
 308 699 308 699 261.5 660.5 c 128,-1,38
 215 622 215 622 204 554 c 2,39,-1
 112 0 l 1,40,-1
 53 0 l 1,0,-1
EndSplineSet
EndChar

StartChar: ae
Encoding: 230 230 168
Width: 865
GlyphClass: 2
Flags: W
LayerCount: 2
Fore
SplineSet
15 127 m 0,0,1
 27 198 27 198 84 242.5 c 128,-1,2
 141 287 141 287 255 305 c 0,3,4
 367 323 367 323 402 337 c 1,5,-1
 407 367 l 2,6,7
 416 420 416 420 386.5 456.5 c 128,-1,8
 357 493 357 493 293 493 c 0,9,10
 195 493 195 493 116 409 c 1,11,-1
 83 442 l 1,12,13
 125 487 125 487 182 515 c 128,-1,14
 239 543 239 543 301 543 c 0,15,16
 375 543 375 543 412 508.5 c 128,-1,17
 449 474 449 474 455 419 c 1,18,19
 488 476 488 476 541 509.5 c 128,-1,20
 594 543 594 543 655 543 c 0,21,22
 751 543 751 543 796.5 466.5 c 128,-1,23
 842 390 842 390 824 278 c 2,24,-1
 818 243 l 1,25,-1
 444 243 l 1,26,-1
 441 221 l 1,27,28
 435 144 435 144 468 88.5 c 128,-1,29
 501 33 501 33 572 33 c 0,30,31
 623 33 623 33 666.5 60.5 c 128,-1,32
 710 88 710 88 737 127 c 1,33,-1
 784 109 l 1,34,35
 703 -18 703 -18 563 -18 c 0,36,37
 495 -18 495 -18 452 21.5 c 128,-1,38
 409 61 409 61 394 128 c 1,39,40
 360 67 360 67 301 24.5 c 128,-1,41
 242 -18 242 -18 163 -18 c 0,42,43
 83 -18 83 -18 43.5 22 c 128,-1,44
 4 62 4 62 15 127 c 0,0,1
74 130 m 0,45,46
 67 90 67 90 94 61.5 c 128,-1,47
 121 33 121 33 177 33 c 0,48,49
 248 33 248 33 307.5 81 c 128,-1,50
 367 129 367 129 380 205 c 2,51,-1
 393 288 l 1,52,53
 356 276 356 276 250 259 c 0,54,55
 91 234 91 234 74 130 c 0,45,46
452 290 m 1,56,-1
 768 290 l 1,57,58
 782 374 782 374 748.5 433 c 128,-1,59
 715 492 715 492 647 492 c 0,60,61
 580 492 580 492 529 438.5 c 128,-1,62
 478 385 478 385 457 309 c 2,63,-1
 452 290 l 1,56,-1
EndSplineSet
EndChar

StartChar: eth
Encoding: 240 240 178
Width: 528
GlyphClass: 2
Flags: W
LayerCount: 2
Fore
SplineSet
36 239 m 0,0,1
 56 358 56 358 127.5 427 c 128,-1,2
 199 496 199 496 298 496 c 0,3,4
 356 496 356 496 391 467.5 c 128,-1,5
 426 439 426 439 437 399 c 1,6,7
 437 542 437 542 383 620 c 0,8,9
 376 628 376 628 368 637 c 1,10,-1
 227 541 l 1,11,-1
 200 580 l 1,12,-1
 333 670 l 1,13,14
 285 704 285 704 218 715 c 1,15,-1
 245 764 l 1,16,17
 330 750 330 750 386 706 c 1,18,-1
 496 780 l 1,19,-1
 522 740 l 1,20,-1
 421 672 l 1,21,22
 529 546 529 546 481 259 c 0,23,24
 461 138 461 138 390.5 60 c 128,-1,25
 320 -18 320 -18 213 -18 c 0,26,27
 110 -18 110 -18 64 56 c 128,-1,28
 18 130 18 130 36 239 c 0,0,1
95 241 m 0,29,30
 80 149 80 149 114.5 91 c 128,-1,31
 149 33 149 33 224 33 c 0,32,33
 296 33 296 33 347.5 90 c 128,-1,34
 399 147 399 147 415 243 c 0,35,36
 430 334 430 334 396 389 c 128,-1,37
 362 444 362 444 292 444 c 0,38,39
 221 444 221 444 166 391 c 128,-1,40
 111 338 111 338 95 241 c 0,29,30
EndSplineSet
EndChar

StartChar: divide
Encoding: 247 247 185
Width: 544
GlyphClass: 2
Flags: W
LayerCount: 2
Fore
SplineSet
259 499 m 1,0,-1
 275 595 l 1,1,-1
 373 595 l 1,2,-1
 357 499 l 1,3,-1
 259 499 l 1,0,-1
36 336 m 1,4,-1
 45 390 l 1,5,-1
 535 390 l 1,6,-1
 526 336 l 1,7,-1
 36 336 l 1,4,-1
198 132 m 1,8,-1
 214 228 l 1,9,-1
 312 228 l 1,10,-1
 296 132 l 1,11,-1
 198 132 l 1,8,-1
EndSplineSet
EndChar

StartChar: oslash
Encoding: 248 248 186
Width: 528
GlyphClass: 2
Flags: W
LayerCount: 2
Fore
SplineSet
40 262 m 0,0,1
 60 383 60 383 132 463 c 128,-1,2
 204 543 204 543 308 543 c 0,3,4
 370 543 370 543 409 515 c 1,5,-1
 455 586 l 1,6,-1
 505 586 l 1,7,-1
 440 486 l 1,8,9
 505 409 505 409 482 262 c 0,10,11
 463 149 463 149 393 65.5 c 128,-1,12
 323 -18 323 -18 215 -18 c 0,13,14
 160 -18 160 -18 122 5 c 1,15,-1
 78 -62 l 1,16,-1
 29 -62 l 1,17,-1
 89 31 l 1,18,19
 53 69 53 69 40.5 130.5 c 128,-1,20
 28 192 28 192 40 262 c 0,0,1
404 430 m 1,21,-1
 154 54 l 1,22,23
 186 33 186 33 224 33 c 0,24,25
 294 33 294 33 350.5 96 c 128,-1,26
 407 159 407 159 424 262 c 0,27,28
 442 366 442 366 404 430 c 1,21,-1
376 464 m 1,29,30
 342 492 342 492 300 492 c 0,31,32
 231 492 231 492 173.5 429.5 c 128,-1,33
 116 367 116 367 98 262 c 0,34,35
 79 150 79 150 125 85 c 1,36,-1
 376 464 l 1,29,30
EndSplineSet
EndChar

StartChar: thorn
Encoding: 254 254 192
Width: 551
GlyphClass: 2
Flags: W
LayerCount: 2
Fore
SplineSet
137 264 m 0,0,1
 120 160 120 160 153.5 96.5 c 128,-1,2
 187 33 187 33 251 33 c 0,3,4
 323 33 323 33 376.5 94.5 c 128,-1,5
 430 156 430 156 447 263 c 0,6,7
 464 367 464 367 432 429.5 c 128,-1,8
 400 492 400 492 327 492 c 0,9,10
 265 492 265 492 209.5 429 c 128,-1,11
 154 366 154 366 137 264 c 0,0,1
-1 -235 m 1,12,-1
 164 764 l 1,13,-1
 221 764 l 1,14,-1
 164 417 l 1,15,16
 189 473 189 473 241 508 c 128,-1,17
 293 543 293 543 341 543 c 0,18,19
 438 543 438 543 482 468 c 128,-1,20
 526 393 526 393 505 263 c 0,21,22
 482 125 482 125 409 53.5 c 128,-1,23
 336 -18 336 -18 248 -18 c 0,24,25
 192 -18 192 -18 156.5 18.5 c 128,-1,26
 121 55 121 55 112 105 c 1,27,-1
 56 -235 l 1,28,-1
 -1 -235 l 1,12,-1
EndSplineSet
EndChar

StartChar: dcroat
Encoding: 273 273 211
Width: 551
GlyphClass: 2
Flags: W
LayerCount: 2
Fore
SplineSet
40 263 m 0,0,1
 62 394 62 394 132.5 468.5 c 128,-1,2
 203 543 203 543 294 543 c 0,3,4
 352 543 352 543 387.5 506 c 128,-1,5
 423 469 423 469 432 419 c 1,6,-1
 467 629 l 1,7,-1
 257 629 l 1,8,-1
 265 675 l 1,9,-1
 475 675 l 1,10,-1
 489 764 l 1,11,-1
 547 764 l 1,12,-1
 532 675 l 1,13,-1
 602 675 l 1,14,-1
 595 629 l 1,15,-1
 524 629 l 1,16,-1
 420 0 l 1,17,-1
 365 0 l 1,18,-1
 382 105 l 1,19,20
 352 50 352 50 305 16 c 128,-1,21
 258 -18 258 -18 200 -18 c 0,22,23
 117 -18 117 -18 67 53 c 128,-1,24
 17 124 17 124 40 263 c 0,0,1
98 263 m 256,25,26
 81 159 81 159 114 96 c 128,-1,27
 147 33 147 33 217 33 c 0,28,29
 282 33 282 33 336.5 95.5 c 128,-1,30
 391 158 391 158 408 263 c 0,31,32
 425 365 425 365 391 428.5 c 128,-1,33
 357 492 357 492 292 492 c 0,34,35
 223 492 223 492 169 429.5 c 128,-1,36
 115 367 115 367 98 263 c 256,25,26
EndSplineSet
EndChar

StartChar: uni0123
Encoding: 291 291 229
Width: 538
GlyphClass: 2
Flags: W
LayerCount: 2
Fore
SplineSet
273 631 m 1,0,-1
 379 806 l 1,1,-1
 422 806 l 1,2,-1
 345 631 l 1,3,-1
 273 631 l 1,0,-1
100 272 m 0,4,5
 83 172 83 172 115.5 112 c 128,-1,6
 148 52 148 52 213 52 c 0,7,8
 283 52 283 52 333 111 c 128,-1,9
 383 170 383 170 401 274 c 0,10,11
 418 375 418 375 386.5 433.5 c 128,-1,12
 355 492 355 492 287 492 c 0,13,14
 219 492 219 492 167.5 430.5 c 128,-1,15
 116 369 116 369 100 272 c 0,4,5
42 272 m 256,16,17
 62 392 62 392 130.5 467.5 c 128,-1,18
 199 543 199 543 290 543 c 0,19,20
 353 543 353 543 385 508.5 c 128,-1,21
 417 474 417 474 426 427 c 1,22,-1
 442 525 l 1,23,-1
 498 525 l 1,24,-1
 420 54 l 2,25,26
 395 -95 395 -95 334.5 -167 c 128,-1,27
 274 -239 274 -239 164 -239 c 0,28,29
 111 -239 111 -239 67 -215.5 c 128,-1,30
 23 -192 23 -192 1 -147 c 1,31,-1
 47 -118 l 1,32,33
 92 -189 92 -189 175 -189 c 0,34,35
 320 -189 320 -189 359 27 c 0,36,37
 366 62 366 62 374 114 c 1,38,39
 346 64 346 64 302.5 32.5 c 128,-1,40
 259 1 259 1 201 1 c 0,41,42
 110 1 110 1 66 76.5 c 128,-1,43
 22 152 22 152 42 272 c 256,16,17
EndSplineSet
EndChar

StartChar: Hbar
Encoding: 294 294 232
Width: 714
GlyphClass: 2
Flags: W
LayerCount: 2
Fore
SplineSet
67 572 m 1,0,-1
 75 622 l 1,1,-1
 162 622 l 1,2,-1
 181 735 l 1,3,-1
 243 735 l 1,4,-1
 224 622 l 1,5,-1
 602 622 l 1,6,-1
 621 735 l 1,7,-1
 683 735 l 1,8,-1
 664 622 l 1,9,-1
 751 622 l 1,10,-1
 743 572 l 1,11,-1
 656 572 l 1,12,-1
 561 0 l 1,13,-1
 499 0 l 1,14,-1
 558 352 l 1,15,-1
 179 352 l 1,16,-1
 121 0 l 1,17,-1
 59 0 l 1,18,-1
 154 572 l 1,19,-1
 67 572 l 1,0,-1
594 572 m 1,20,-1
 216 572 l 1,21,-1
 188 406 l 1,22,-1
 567 406 l 1,23,-1
 594 572 l 1,20,-1
EndSplineSet
EndChar

StartChar: hbar
Encoding: 295 295 233
Width: 539
GlyphClass: 2
Flags: W
LayerCount: 2
Fore
SplineSet
72 634 m 1,0,-1
 79 681 l 1,1,-1
 151 681 l 1,2,-1
 164 764 l 1,3,-1
 222 764 l 1,4,-1
 208 681 l 1,5,-1
 410 681 l 1,6,-1
 403 634 l 1,7,-1
 200 634 l 1,8,-1
 165 423 l 1,9,-1
 166 423 l 1,10,11
 190 465 190 465 240 499 c 128,-1,12
 290 533 290 533 347 533 c 0,13,14
 375 533 375 533 398.5 525 c 128,-1,15
 422 517 422 517 444.5 496.5 c 128,-1,16
 467 476 467 476 475.5 433.5 c 128,-1,17
 484 391 484 391 474 330 c 2,18,-1
 420 0 l 1,19,-1
 363 0 l 1,20,-1
 416 320 l 2,21,22
 443 482 443 482 328 482 c 0,23,24
 267 482 267 482 212 428 c 128,-1,25
 157 374 157 374 146 305 c 2,26,-1
 95 0 l 1,27,-1
 38 0 l 1,28,-1
 143 634 l 1,29,-1
 72 634 l 1,0,-1
EndSplineSet
EndChar

StartChar: dotlessi
Encoding: 305 305 243
Width: 222
GlyphClass: 2
Flags: W
LayerCount: 2
Fore
SplineSet
36 0 m 1,0,-1
 123 525 l 1,1,-1
 181 525 l 1,2,-1
 94 0 l 1,3,-1
 36 0 l 1,0,-1
EndSplineSet
EndChar

StartChar: kgreenlandic
Encoding: 312 312 250
Width: 473
GlyphClass: 2
Flags: W
LayerCount: 2
Fore
SplineSet
35 0 m 1,0,-1
 122 525 l 1,1,-1
 179 525 l 1,2,-1
 139 281 l 1,3,-1
 141 281 l 1,4,-1
 432 525 l 1,5,-1
 507 525 l 1,6,-1
 209 273 l 1,7,-1
 430 0 l 1,8,-1
 358 0 l 1,9,-1
 164 230 l 1,10,-1
 125 197 l 1,11,-1
 92 0 l 1,12,-1
 35 0 l 1,0,-1
EndSplineSet
EndChar

StartChar: Lslash
Encoding: 321 321 259
Width: 528
GlyphClass: 2
Flags: W
LayerCount: 2
Fore
SplineSet
182 350 m 1,0,-1
 133 54 l 1,1,-1
 482 54 l 1,2,-1
 473 0 l 1,3,-1
 63 0 l 1,4,-1
 114 310 l 1,5,-1
 -4 236 l 1,6,-1
 -26 281 l 1,7,-1
 125 375 l 1,8,-1
 184 735 l 1,9,-1
 246 735 l 1,10,-1
 193 414 l 1,11,-1
 307 485 l 1,12,-1
 328 440 l 1,13,-1
 182 350 l 1,0,-1
EndSplineSet
EndChar

StartChar: lslash
Encoding: 322 322 260
Width: 241
GlyphClass: 2
Flags: W
LayerCount: 2
Fore
SplineSet
164 367 m 1,0,-1
 103 0 l 1,1,-1
 46 0 l 1,2,-1
 100 327 l 1,3,-1
 -8 259 l 1,4,-1
 -29 305 l 1,5,-1
 111 392 l 1,6,-1
 172 764 l 1,7,-1
 229 764 l 1,8,-1
 174 432 l 1,9,-1
 281 498 l 1,10,-1
 301 453 l 1,11,-1
 164 367 l 1,0,-1
EndSplineSet
EndChar

StartChar: Eng
Encoding: 330 330 268
Width: 707
GlyphClass: 2
Flags: W
LayerCount: 2
Fore
SplineSet
53 0 m 1,0,-1
 175 735 l 1,1,-1
 247 735 l 1,2,-1
 517 92 l 1,3,-1
 523 92 l 1,4,5
 530 186 530 186 546 282 c 2,6,-1
 621 735 l 1,7,-1
 683 735 l 1,8,-1
 562 4 l 2,9,10
 522 -239 522 -239 338 -239 c 0,11,12
 292 -239 292 -239 240 -232 c 1,13,-1
 249 -179 l 1,14,15
 289 -185 289 -185 336 -185 c 0,16,17
 405 -185 405 -185 439 -142 c 128,-1,18
 473 -99 473 -99 490 0 c 1,19,-1
 261 542 l 1,20,-1
 219 646 l 1,21,-1
 215 646 l 1,22,23
 208 562 208 562 192 464 c 2,24,-1
 115 0 l 1,25,-1
 53 0 l 1,0,-1
EndSplineSet
EndChar

StartChar: eng
Encoding: 331 331 269
Width: 530
GlyphClass: 2
Flags: W
LayerCount: 2
Fore
SplineSet
30 0 m 1,0,-1
 117 525 l 1,1,-1
 174 525 l 1,2,-1
 157 426 l 1,3,-1
 158 426 l 1,4,5
 175 466 175 466 227 504.5 c 128,-1,6
 279 543 279 543 344 543 c 0,7,8
 411 543 411 543 449.5 497.5 c 128,-1,9
 488 452 488 452 469 340 c 2,10,-1
 414 4 l 2,11,12
 374 -239 374 -239 208 -239 c 0,13,14
 186 -239 186 -239 123 -230 c 1,15,-1
 131 -178 l 1,16,17
 183 -186 183 -186 210 -186 c 0,18,19
 271 -186 271 -186 305 -141 c 128,-1,20
 339 -96 339 -96 354 -2 c 2,21,-1
 409 329 l 2,22,23
 436 492 436 492 323 492 c 0,24,25
 262 492 262 492 207 440 c 128,-1,26
 152 388 152 388 140 317 c 2,27,-1
 88 0 l 1,28,-1
 30 0 l 1,0,-1
EndSplineSet
EndChar

StartChar: OE
Encoding: 338 338 276
Width: 916
GlyphClass: 2
Flags: W
LayerCount: 2
Fore
SplineSet
64 368 m 0,0,1
 93 545 93 545 196.5 649.5 c 128,-1,2
 300 754 300 754 436 754 c 0,3,4
 491 754 491 754 534 735 c 1,5,-1
 948 735 l 1,6,-1
 939 681 l 1,7,-1
 584 681 l 1,8,-1
 539 408 l 1,9,-1
 858 408 l 1,10,-1
 849 354 l 1,11,-1
 530 354 l 1,12,-1
 480 54 l 1,13,-1
 842 54 l 1,14,-1
 833 0 l 1,15,-1
 415 0 l 1,16,17
 366 -18 366 -18 308 -18 c 0,18,19
 171 -18 171 -18 103 86 c 128,-1,20
 35 190 35 190 64 368 c 0,0,1
128 368 m 0,21,22
 103 216 103 216 156.5 126 c 128,-1,23
 210 36 210 36 317 36 c 0,24,25
 373 36 373 36 420 61 c 1,26,-1
 521 672 l 1,27,28
 486 699 486 699 426 699 c 0,29,30
 315 699 315 699 234 608.5 c 128,-1,31
 153 518 153 518 128 368 c 0,21,22
EndSplineSet
EndChar

StartChar: uni0163
Encoding: 355 355 293
Width: 332
GlyphClass: 2
Flags: W
LayerCount: 2
Fore
SplineSet
52 474 m 1,0,-1
 61 525 l 1,1,-1
 152 525 l 1,2,-1
 181 698 l 1,3,-1
 238 698 l 1,4,-1
 209 525 l 1,5,-1
 338 525 l 1,6,-1
 330 474 l 1,7,-1
 201 474 l 1,8,-1
 147 149 l 2,9,10
 138 97 138 97 154 74.5 c 128,-1,11
 170 52 170 52 213 52 c 2,12,-1
 261 52 l 1,13,-1
 252 0 l 1,14,-1
 196 0 l 2,15,16
 192 0 192 0 189 0 c 2,17,-1
 171 -45 l 1,18,19
 213 -51 213 -51 233 -73.5 c 128,-1,20
 253 -96 253 -96 248 -131 c 0,21,22
 242 -169 242 -169 209 -194.5 c 128,-1,23
 176 -220 176 -220 118 -220 c 0,24,25
 78 -220 78 -220 41 -209 c 1,26,-1
 48 -168 l 1,27,28
 88 -179 88 -179 125 -179 c 0,29,30
 154 -179 154 -179 174.5 -165.5 c 128,-1,31
 195 -152 195 -152 199 -128 c 0,32,33
 207 -77 207 -77 107 -71 c 1,34,-1
 139 9 l 1,35,36
 71 37 71 37 89 143 c 2,37,-1
 144 474 l 1,38,-1
 52 474 l 1,0,-1
EndSplineSet
Substitution2: "'locl' Localized Forms in Latin lookup 3 subtable" uni021B
Substitution2: "'locl' Localized Forms in Latin lookup 2 subtable" uni021B
Substitution2: "'aalt' Access All Alternates lookup 0 subtable" uni021B
EndChar

StartChar: tbar
Encoding: 359 359 297
Width: 336
GlyphClass: 2
Flags: W
LayerCount: 2
Fore
SplineSet
53 474 m 1,0,-1
 61 525 l 1,1,-1
 152 525 l 1,2,-1
 181 698 l 1,3,-1
 238 698 l 1,4,-1
 210 525 l 1,5,-1
 343 525 l 1,6,-1
 334 474 l 1,7,-1
 201 474 l 1,8,-1
 181 349 l 1,9,-1
 319 349 l 1,10,-1
 311 298 l 1,11,-1
 172 298 l 1,12,-1
 147 149 l 2,13,14
 138 97 138 97 154 74.5 c 128,-1,15
 170 52 170 52 213 52 c 2,16,-1
 265 52 l 1,17,-1
 257 0 l 1,18,-1
 197 0 l 2,19,20
 65 0 65 0 89 143 c 2,21,-1
 115 298 l 1,22,-1
 15 298 l 1,23,-1
 24 349 l 1,24,-1
 123 349 l 1,25,-1
 144 474 l 1,26,-1
 53 474 l 1,0,-1
EndSplineSet
EndChar

StartChar: longs
Encoding: 383 383 321
Width: 282
GlyphClass: 2
Flags: W
LayerCount: 2
Fore
SplineSet
39 0 m 1,0,-1
 139 605 l 2,1,2
 152 681 152 681 194.5 718.5 c 128,-1,3
 237 756 237 756 299 756 c 2,4,-1
 352 756 l 1,5,-1
 344 704 l 1,6,-1
 299 704 l 2,7,8
 213 704 213 704 195 597 c 2,9,-1
 96 0 l 1,10,-1
 39 0 l 1,0,-1
EndSplineSet
EndChar

StartChar: uni0180
Encoding: 384 384 322
Width: 551
GlyphClass: 2
Flags: W
LayerCount: 2
Fore
SplineSet
138 263 m 0,0,1
 120 157 120 157 154.5 95 c 128,-1,2
 189 33 189 33 253 33 c 0,3,4
 323 33 323 33 377 95 c 128,-1,5
 431 157 431 157 448 263 c 0,6,7
 465 367 465 367 433 429.5 c 128,-1,8
 401 492 401 492 330 492 c 0,9,10
 266 492 266 492 210.5 430 c 128,-1,11
 155 368 155 368 138 263 c 0,0,1
75 633 m 1,12,-1
 83 681 l 1,13,-1
 151 681 l 1,14,-1
 165 764 l 1,15,-1
 223 764 l 1,16,-1
 209 681 l 1,17,-1
 411 681 l 1,18,-1
 403 633 l 1,19,-1
 201 633 l 1,20,-1
 165 417 l 1,21,22
 185 463 185 463 235 503 c 128,-1,23
 285 543 285 543 345 543 c 0,24,25
 439 543 439 543 483 468 c 128,-1,26
 527 393 527 393 506 263 c 0,27,28
 494 191 494 191 466 134.5 c 128,-1,29
 438 78 438 78 402 46 c 128,-1,30
 366 14 366 14 327.5 -2 c 128,-1,31
 289 -18 289 -18 251 -18 c 0,32,33
 193 -18 193 -18 157.5 17.5 c 128,-1,34
 122 53 122 53 112 104 c 1,35,-1
 95 0 l 1,36,-1
 39 0 l 1,37,-1
 143 633 l 1,38,-1
 75 633 l 1,12,-1
EndSplineSet
EndChar

StartChar: uni0182
Encoding: 386 386 324
Width: 635
GlyphClass: 2
Flags: W
LayerCount: 2
Fore
SplineSet
124 54 m 1,0,-1
 328 54 l 2,1,2
 402 54 402 54 452.5 92 c 128,-1,3
 503 130 503 130 515 203 c 0,4,5
 526 272 526 272 487 314 c 128,-1,6
 448 356 448 356 372 356 c 2,7,-1
 174 356 l 1,8,-1
 124 54 l 1,0,-1
53 0 m 1,9,-1
 175 735 l 1,10,-1
 583 735 l 1,11,-1
 574 681 l 1,12,-1
 228 681 l 1,13,-1
 183 410 l 1,14,-1
 389 410 l 2,15,16
 493 410 493 410 543.5 352.5 c 128,-1,17
 594 295 594 295 579 203 c 0,18,19
 564 114 564 114 495.5 57 c 128,-1,20
 427 0 427 0 329 0 c 2,21,-1
 53 0 l 1,9,-1
EndSplineSet
EndChar

StartChar: uni0183
Encoding: 387 387 325
Width: 549
GlyphClass: 2
Flags: W
LayerCount: 2
Fore
SplineSet
135 263 m 0,0,1
 117 157 117 157 151 95 c 128,-1,2
 185 33 185 33 250 33 c 0,3,4
 319 33 319 33 373.5 95 c 128,-1,5
 428 157 428 157 445 263 c 0,6,7
 462 368 462 368 429.5 430 c 128,-1,8
 397 492 397 492 328 492 c 0,9,10
 264 492 264 492 208 430 c 128,-1,11
 152 368 152 368 135 263 c 0,0,1
36 0 m 1,12,-1
 162 764 l 1,13,-1
 490 764 l 1,14,-1
 482 713 l 1,15,-1
 211 713 l 1,16,-1
 162 418 l 1,17,18
 180 461 180 461 230.5 502 c 128,-1,19
 281 543 281 543 342 543 c 0,20,21
 435 543 435 543 479.5 467.5 c 128,-1,22
 524 392 524 392 503 263 c 0,23,24
 480 124 480 124 406 53 c 128,-1,25
 332 -18 332 -18 249 -18 c 0,26,27
 192 -18 192 -18 155.5 17.5 c 128,-1,28
 119 53 119 53 109 104 c 1,29,-1
 92 0 l 1,30,-1
 36 0 l 1,12,-1
EndSplineSet
EndChar

StartChar: uni0184
Encoding: 388 388 326
Width: 645
GlyphClass: 2
Flags: W
LayerCount: 2
Fore
SplineSet
97 679 m 1,0,-1
 202 735 l 1,1,-1
 243 735 l 1,2,-1
 188 406 l 1,3,-1
 398 406 l 2,4,5
 501 406 501 406 552 348.5 c 128,-1,6
 603 291 603 291 589 203 c 0,7,8
 575 120 575 120 509 60 c 128,-1,9
 443 0 443 0 345 0 c 2,10,-1
 58 0 l 1,11,-1
 161 622 l 1,12,-1
 97 679 l 1,0,-1
130 54 m 1,13,-1
 340 54 l 2,14,15
 410 54 410 54 462 93.5 c 128,-1,16
 514 133 514 133 525 202 c 0,17,18
 536 266 536 266 498 309.5 c 128,-1,19
 460 353 460 353 385 353 c 2,20,-1
 180 353 l 1,21,-1
 130 54 l 1,13,-1
EndSplineSet
EndChar

StartChar: uni0185
Encoding: 389 389 327
Width: 551
GlyphClass: 2
Flags: W
LayerCount: 2
Fore
SplineSet
86 704 m 1,0,-1
 190 764 l 1,1,-1
 223 764 l 1,2,-1
 165 418 l 1,3,4
 195 477 195 477 247.5 510 c 128,-1,5
 300 543 300 543 345 543 c 0,6,7
 438 543 438 543 482.5 468 c 128,-1,8
 527 393 527 393 506 263 c 0,9,10
 494 191 494 191 466 135.5 c 128,-1,11
 438 80 438 80 402.5 47.5 c 128,-1,12
 367 15 367 15 328.5 -1.5 c 128,-1,13
 290 -18 290 -18 251 -18 c 0,14,15
 194 -18 194 -18 158.5 17.5 c 128,-1,16
 123 53 123 53 112 104 c 1,17,-1
 95 0 l 1,18,-1
 39 0 l 1,19,-1
 146 647 l 1,20,-1
 86 704 l 1,0,-1
138 263 m 0,21,22
 120 157 120 157 154 95 c 128,-1,23
 188 33 188 33 253 33 c 0,24,25
 323 33 323 33 377 95 c 128,-1,26
 431 157 431 157 448 263 c 0,27,28
 465 367 465 367 432.5 429.5 c 128,-1,29
 400 492 400 492 330 492 c 0,30,31
 266 492 266 492 210.5 430 c 128,-1,32
 155 368 155 368 138 263 c 0,21,22
EndSplineSet
EndChar

StartChar: uni0186
Encoding: 390 390 328
Width: 625
GlyphClass: 2
Flags: W
LayerCount: 2
Fore
SplineSet
5 148 m 1,0,-1
 64 167 l 1,1,2
 80 111 80 111 122.5 74 c 128,-1,3
 165 37 165 37 232 37 c 0,4,5
 338 37 338 37 419 126 c 128,-1,6
 500 215 500 215 525 368 c 0,7,8
 550 518 550 518 500.5 608.5 c 128,-1,9
 451 699 451 699 342 699 c 0,10,11
 231 699 231 699 149 578 c 1,12,-1
 99 598 l 1,13,14
 137 660 137 660 202.5 707 c 128,-1,15
 268 754 268 754 351 754 c 0,16,17
 485 754 485 754 552 651 c 128,-1,18
 619 548 619 548 589 368 c 256,19,20
 559 188 559 188 458.5 85 c 128,-1,21
 358 -18 358 -18 223 -18 c 0,22,23
 132 -18 132 -18 79 29.5 c 128,-1,24
 26 77 26 77 5 148 c 1,0,-1
EndSplineSet
EndChar

StartChar: uni018B
Encoding: 395 395 333
Width: 635
GlyphClass: 2
Flags: W
LayerCount: 2
Fore
SplineSet
94 203 m 0,0,1
 82 132 82 132 120.5 93 c 128,-1,2
 159 54 159 54 232 54 c 2,3,-1
 435 54 l 1,4,-1
 485 356 l 1,5,-1
 291 356 l 2,6,7
 214 356 214 356 160 314.5 c 128,-1,8
 106 273 106 273 94 203 c 0,0,1
30 203 m 0,9,10
 45 295 45 295 116 352.5 c 128,-1,11
 187 410 187 410 292 410 c 2,12,-1
 494 410 l 1,13,-1
 539 681 l 1,14,-1
 193 681 l 1,15,-1
 202 735 l 1,16,-1
 610 735 l 1,17,-1
 489 0 l 1,18,-1
 212 0 l 2,19,20
 115 0 115 0 65 56.5 c 128,-1,21
 15 113 15 113 30 203 c 0,9,10
EndSplineSet
EndChar

StartChar: uni018C
Encoding: 396 396 334
Width: 549
GlyphClass: 2
Flags: W
LayerCount: 2
Fore
SplineSet
98 263 m 256,0,1
 80 157 80 157 114 95 c 128,-1,2
 148 33 148 33 217 33 c 0,3,4
 282 33 282 33 336.5 95 c 128,-1,5
 391 157 391 157 408 263 c 0,6,7
 425 368 425 368 390 430 c 128,-1,8
 355 492 355 492 291 492 c 0,9,10
 223 492 223 492 169.5 430.5 c 128,-1,11
 116 369 116 369 98 263 c 256,0,1
40 263 m 0,12,13
 61 392 61 392 132 467.5 c 128,-1,14
 203 543 203 543 294 543 c 0,15,16
 355 543 355 543 390.5 503.5 c 128,-1,17
 426 464 426 464 432 419 c 1,18,-1
 481 713 l 1,19,-1
 205 713 l 1,20,-1
 214 764 l 1,21,-1
 547 764 l 1,22,-1
 420 0 l 1,23,-1
 365 0 l 1,24,-1
 382 105 l 1,25,26
 356 54 356 54 307.5 18 c 128,-1,27
 259 -18 259 -18 200 -18 c 0,28,29
 162 -18 162 -18 129.5 -2 c 128,-1,30
 97 14 97 14 72 46.5 c 128,-1,31
 47 79 47 79 37.5 135 c 128,-1,32
 28 191 28 191 40 263 c 0,12,13
EndSplineSet
EndChar

StartChar: uni018D
Encoding: 397 397 335
Width: 578
GlyphClass: 2
Flags: W
LayerCount: 2
Fore
SplineSet
107 317 m 0,0,1
 99 267 99 267 123 220.5 c 128,-1,2
 147 174 147 174 183 145.5 c 128,-1,3
 219 117 219 117 263 95 c 1,4,5
 348 131 348 131 409.5 192 c 128,-1,6
 471 253 471 253 482 318 c 0,7,8
 494 390 494 390 455 441 c 128,-1,9
 416 492 416 492 328 492 c 0,10,11
 245 492 245 492 182.5 444.5 c 128,-1,12
 120 397 120 397 107 317 c 0,0,1
49 314 m 0,13,14
 67 421 67 421 144.5 482 c 128,-1,15
 222 543 222 543 336 543 c 0,16,17
 448 543 448 543 503 480 c 128,-1,18
 558 417 558 417 542 320 c 0,19,20
 531 251 531 251 467.5 181 c 128,-1,21
 404 111 404 111 308 67 c 1,22,23
 418 -4 418 -4 406 -82 c 0,24,25
 395 -147 395 -147 338 -189 c 128,-1,26
 281 -231 281 -231 194 -231 c 0,27,28
 60 -231 60 -231 9 -121 c 1,29,-1
 58 -92 l 1,30,31
 75 -127 75 -127 111.5 -153 c 128,-1,32
 148 -179 148 -179 202 -179 c 256,33,34
 256 -179 256 -179 298.5 -153 c 128,-1,35
 341 -127 341 -127 348 -83 c 0,36,37
 351 -63 351 -63 341.5 -43.5 c 128,-1,38
 332 -24 332 -24 308 -4.5 c 128,-1,39
 284 15 284 15 262.5 28.5 c 128,-1,40
 241 42 241 42 203 63 c 0,41,42
 24 166 24 166 49 314 c 0,13,14
EndSplineSet
EndChar

StartChar: uni018E
Encoding: 398 398 336
Width: 590
GlyphClass: 2
Flags: W
LayerCount: 2
Fore
SplineSet
-10 0 m 1,0,-1
 -1 54 l 1,1,-1
 390 54 l 1,2,-1
 440 354 l 1,3,-1
 95 354 l 1,4,-1
 104 407 l 1,5,-1
 449 407 l 1,6,-1
 494 681 l 1,7,-1
 114 681 l 1,8,-1
 123 735 l 1,9,-1
 566 735 l 1,10,-1
 444 0 l 1,11,-1
 -10 0 l 1,0,-1
EndSplineSet
EndChar

StartChar: uni018F
Encoding: 399 399 337
Width: 675
GlyphClass: 2
Flags: W
LayerCount: 2
Fore
SplineSet
56 334 m 0,0,1
 63 376 63 376 66 391 c 1,2,-1
 580 391 l 1,3,4
 598 532 598 532 553 615.5 c 128,-1,5
 508 699 508 699 393 699 c 0,6,7
 265 699 265 699 173 581 c 1,8,-1
 124 603 l 1,9,10
 171 673 171 673 244 713.5 c 128,-1,11
 317 754 317 754 403 754 c 0,12,13
 505 754 505 754 565 702 c 128,-1,14
 625 650 625 650 642 565 c 128,-1,15
 659 480 659 480 640 366 c 0,16,17
 610 182 610 182 509.5 82 c 128,-1,18
 409 -18 409 -18 279 -18 c 0,19,20
 206 -18 206 -18 155 12 c 128,-1,21
 104 42 104 42 80 92.5 c 128,-1,22
 56 143 56 143 50.5 204 c 128,-1,23
 45 265 45 265 56 334 c 0,0,1
121 337 m 1,24,25
 120 332 120 332 119 323.5 c 128,-1,26
 118 315 118 315 118 312 c 0,27,28
 112 272 112 272 113 235.5 c 128,-1,29
 114 199 114 199 123.5 162 c 128,-1,30
 133 125 133 125 151.5 97.5 c 128,-1,31
 170 70 170 70 205.5 53 c 128,-1,32
 241 36 241 36 289 36 c 0,33,34
 329 36 329 36 370.5 52 c 128,-1,35
 412 68 412 68 453 101.5 c 128,-1,36
 494 135 494 135 525.5 196 c 128,-1,37
 557 257 557 257 572 337 c 1,38,-1
 121 337 l 1,24,25
EndSplineSet
EndChar

StartChar: uni0190
Encoding: 400 400 338
Width: 583
GlyphClass: 2
Flags: W
LayerCount: 2
Fore
SplineSet
36 201 m 0,0,1
 49 280 49 280 105.5 328 c 128,-1,2
 162 376 162 376 227 391 c 1,3,4
 178 409 178 409 147 455.5 c 128,-1,5
 116 502 116 502 127 569 c 0,6,7
 140 648 140 648 208.5 701 c 128,-1,8
 277 754 277 754 380 754 c 0,9,10
 536 754 536 754 581 607 c 1,11,-1
 525 588 l 1,12,13
 486 701 486 701 373 701 c 0,14,15
 302 701 302 701 250 662.5 c 128,-1,16
 198 624 198 624 188 563 c 0,17,18
 177 494 177 494 223 453.5 c 128,-1,19
 269 413 269 413 341 413 c 0,20,21
 388 413 388 413 398 414 c 1,22,-1
 389 361 l 1,23,24
 378 362 378 362 330 362 c 0,25,26
 250 362 250 362 181.5 320.5 c 128,-1,27
 113 279 113 279 100 202 c 0,28,29
 86 120 86 120 136.5 77 c 128,-1,30
 187 34 187 34 266 34 c 0,31,32
 321 34 321 34 379 64 c 128,-1,33
 437 94 437 94 472 139 c 1,34,-1
 519 117 l 1,35,36
 477 56 477 56 405.5 19 c 128,-1,37
 334 -18 334 -18 256 -18 c 0,38,39
 147 -18 147 -18 83 40 c 128,-1,40
 19 98 19 98 36 201 c 0,0,1
EndSplineSet
EndChar

StartChar: uni0191
Encoding: 401 401 339
Width: 560
GlyphClass: 2
Flags: W
LayerCount: 2
Fore
SplineSet
-106 -181 m 1,0,1
 -81 -185 -81 -185 -59 -185 c 0,2,3
 -9 -185 -9 -185 17.5 -151 c 128,-1,4
 44 -117 44 -117 55 -47 c 2,5,-1
 185 735 l 1,6,-1
 613 735 l 1,7,-1
 604 681 l 1,8,-1
 238 681 l 1,9,-1
 191 397 l 1,10,-1
 521 397 l 1,11,-1
 512 344 l 1,12,-1
 182 344 l 1,13,-1
 117 -47 l 2,14,15
 85 -239 85 -239 -58 -239 c 0,16,17
 -89 -239 -89 -239 -115 -234 c 1,18,-1
 -106 -181 l 1,0,1
EndSplineSet
EndChar

StartChar: florin
Encoding: 402 402 340
Width: 315
GlyphClass: 2
Flags: W
LayerCount: 2
Fore
SplineSet
-104 -182 m 1,0,1
 -85 -186 -85 -186 -58 -186 c 0,2,3
 36 -186 36 -186 61 -39 c 2,4,-1
 146 474 l 1,5,-1
 55 474 l 1,6,-1
 64 525 l 1,7,-1
 154 525 l 1,8,-1
 169 614 l 2,9,10
 182 690 182 690 224.5 727 c 128,-1,11
 267 764 267 764 329 764 c 2,12,-1
 387 764 l 1,13,-1
 378 713 l 1,14,-1
 327 713 l 2,15,16
 242 713 242 713 225 607 c 2,17,-1
 211 525 l 1,18,-1
 334 525 l 1,19,-1
 326 474 l 1,20,-1
 203 474 l 1,21,-1
 118 -41 l 2,22,23
 101 -142 101 -142 55.5 -190.5 c 128,-1,24
 10 -239 10 -239 -57 -239 c 0,25,26
 -75 -239 -75 -239 -112 -234 c 1,27,-1
 -104 -182 l 1,0,1
EndSplineSet
EndChar

StartChar: uni0194
Encoding: 404 404 342
Width: 586
GlyphClass: 2
Flags: W
LayerCount: 2
Fore
SplineSet
73 735 m 1,0,-1
 142 735 l 1,1,-1
 271 136 l 1,2,-1
 272 136 l 1,3,-1
 288 171 l 1,4,-1
 594 735 l 1,5,-1
 664 735 l 1,6,-1
 312 103 l 1,7,8
 346 45 346 45 362 0 c 128,-1,9
 378 -45 378 -45 370 -95 c 0,10,11
 360 -155 360 -155 314.5 -197 c 128,-1,12
 269 -239 269 -239 209 -239 c 256,13,14
 148 -239 148 -239 115.5 -199.5 c 128,-1,15
 83 -160 83 -160 94 -95 c 0,16,17
 99 -62 99 -62 121 -23.5 c 128,-1,18
 143 15 143 15 163 40 c 128,-1,19
 183 65 183 65 217 103 c 1,20,-1
 73 735 l 1,0,-1
157 -93 m 0,21,22
 150 -134 150 -134 166.5 -161 c 128,-1,23
 183 -188 183 -188 217 -188 c 0,24,25
 250 -188 250 -188 276 -159.5 c 128,-1,26
 302 -131 302 -131 308 -93 c 0,27,28
 319 -26 319 -26 258 67 c 1,29,30
 169 -22 169 -22 157 -93 c 0,21,22
EndSplineSet
EndChar

StartChar: uni0195
Encoding: 405 405 343
Width: 851
GlyphClass: 2
Flags: W
LayerCount: 2
Fore
SplineSet
36 0 m 1,0,-1
 162 764 l 1,1,-1
 220 764 l 1,2,-1
 165 433 l 1,3,-1
 166 433 l 1,4,5
 194 480 194 480 243 511.5 c 128,-1,6
 292 543 292 543 347 543 c 0,7,8
 507 543 507 543 474 340 c 2,9,-1
 445 168 l 2,10,11
 435 106 435 106 460.5 69.5 c 128,-1,12
 486 33 486 33 549 33 c 0,13,14
 679 33 679 33 703 173 c 2,15,-1
 761 525 l 1,16,-1
 819 525 l 1,17,-1
 760 167 l 2,18,19
 745 77 745 77 688 29.5 c 128,-1,20
 631 -18 631 -18 541 -18 c 0,21,22
 463 -18 463 -18 417 23 c 128,-1,23
 371 64 371 64 386 157 c 2,24,-1
 415 329 l 2,25,26
 442 492 442 492 328 492 c 0,27,28
 267 492 267 492 212 439.5 c 128,-1,29
 157 387 157 387 146 318 c 0,30,31
 146 316 146 316 145 315 c 2,32,-1
 93 0 l 1,33,-1
 36 0 l 1,0,-1
EndSplineSet
EndChar

StartChar: uni0196
Encoding: 406 406 344
Width: 326
GlyphClass: 2
Flags: W
LayerCount: 2
Fore
SplineSet
77 158 m 2,0,-1
 173 735 l 1,1,-1
 235 735 l 1,2,-1
 140 160 l 2,3,4
 129 95 129 95 144 65.5 c 128,-1,5
 159 36 159 36 202 36 c 0,6,7
 243 36 243 36 272 41 c 1,8,-1
 263 -12 l 1,9,10
 221 -18 221 -18 185 -18 c 0,11,12
 48 -18 48 -18 77 158 c 2,0,-1
EndSplineSet
EndChar

StartChar: uni0197
Encoding: 407 407 345
Width: 273
GlyphClass: 2
Flags: W
LayerCount: 2
Fore
SplineSet
39 351 m 1,0,-1
 47 400 l 1,1,-1
 125 400 l 1,2,-1
 180 735 l 1,3,-1
 242 735 l 1,4,-1
 187 400 l 1,5,-1
 265 400 l 1,6,-1
 257 351 l 1,7,-1
 178 351 l 1,8,-1
 120 0 l 1,9,-1
 59 0 l 1,10,-1
 117 351 l 1,11,-1
 39 351 l 1,0,-1
EndSplineSet
EndChar

StartChar: uni0198
Encoding: 408 408 346
Width: 617
GlyphClass: 2
Flags: W
LayerCount: 2
Fore
SplineSet
53 0 m 1,0,-1
 175 735 l 1,1,-1
 237 735 l 1,2,-1
 169 325 l 1,3,-1
 171 325 l 1,4,-1
 550 700 l 2,5,6
 605 754 605 754 677 754 c 0,7,8
 703 754 703 754 737 746 c 1,9,-1
 728 692 l 1,10,11
 698 699 698 699 671 699 c 0,12,13
 633 699 633 699 602 670 c 2,14,-1
 344 418 l 1,15,-1
 566 0 l 1,16,-1
 486 0 l 1,17,-1
 296 372 l 1,18,-1
 154 234 l 1,19,-1
 115 0 l 1,20,-1
 53 0 l 1,0,-1
EndSplineSet
EndChar

StartChar: uni0199
Encoding: 409 409 347
Width: 473
GlyphClass: 2
Flags: W
LayerCount: 2
Fore
SplineSet
37 0 m 1,0,-1
 139 615 l 2,1,2
 151 688 151 688 198 728.5 c 128,-1,3
 245 769 245 769 317 769 c 0,4,5
 350 769 350 769 378 766 c 1,6,-1
 369 713 l 1,7,8
 337 717 337 717 317 717 c 0,9,10
 270 717 270 717 237 688 c 128,-1,11
 204 659 204 659 195 605 c 2,12,-1
 135 242 l 1,13,-1
 418 525 l 1,14,-1
 494 525 l 1,15,-1
 282 317 l 1,16,-1
 430 0 l 1,17,-1
 359 0 l 1,18,-1
 237 273 l 1,19,-1
 121 159 l 1,20,-1
 95 0 l 1,21,-1
 37 0 l 1,0,-1
EndSplineSet
EndChar

StartChar: uni019A
Encoding: 410 410 348
Width: 237
GlyphClass: 2
Flags: W
LayerCount: 2
Fore
SplineSet
25 371 m 1,0,-1
 34 421 l 1,1,-1
 113 421 l 1,2,-1
 170 764 l 1,3,-1
 228 764 l 1,4,-1
 171 421 l 1,5,-1
 251 421 l 1,6,-1
 242 371 l 1,7,-1
 162 371 l 1,8,-1
 101 0 l 1,9,-1
 44 0 l 1,10,-1
 105 371 l 1,11,-1
 25 371 l 1,0,-1
EndSplineSet
EndChar

StartChar: uni019B
Encoding: 411 411 349
Width: 458
GlyphClass: 2
Flags: W
LayerCount: 2
Fore
SplineSet
-39 0 m 1,0,-1
 246 539 l 1,1,-1
 237 595 l 1,2,-1
 104 506 l 1,3,-1
 82 544 l 1,4,-1
 227 639 l 1,5,6
 206 710 206 710 147 710 c 2,7,-1
 128 710 l 1,8,-1
 137 761 l 1,9,-1
 165 761 l 2,10,11
 241 761 241 761 276 671 c 1,12,-1
 381 743 l 1,13,-1
 403 704 l 1,14,-1
 288 627 l 1,15,-1
 289 619 l 1,16,-1
 403 0 l 1,17,-1
 336 0 l 1,18,-1
 284 330 l 2,19,20
 272 396 272 396 263 463 c 1,21,-1
 260 463 l 1,22,23
 249 439 249 439 196 331 c 2,24,-1
 29 0 l 1,25,-1
 -39 0 l 1,0,-1
EndSplineSet
EndChar

StartChar: uni019C
Encoding: 412 412 350
Width: 925
GlyphClass: 2
Flags: W
CounterMasks: 1 1c
LayerCount: 2
Fore
SplineSet
88 208 m 2,0,-1
 175 735 l 1,1,-1
 237 735 l 1,2,-1
 149 207 l 2,3,4
 121 35 121 35 234 35 c 0,5,6
 298 35 298 35 354 91 c 128,-1,7
 410 147 410 147 424 231 c 2,8,-1
 507 735 l 1,9,-1
 569 735 l 1,10,-1
 481 206 l 2,11,12
 468 127 468 127 489.5 81.5 c 128,-1,13
 511 36 511 36 570 36 c 0,14,15
 637 36 637 36 689 89 c 128,-1,16
 741 142 741 142 755 225 c 2,17,-1
 839 735 l 1,18,-1
 901 735 l 1,19,-1
 779 0 l 1,20,-1
 719 0 l 1,21,-1
 735 91 l 1,22,-1
 733 91 l 1,23,24
 710 46 710 46 659 14 c 128,-1,25
 608 -18 608 -18 548 -18 c 0,26,27
 482 -18 482 -18 452 19 c 128,-1,28
 422 56 422 56 419 111 c 1,29,30
 402 68 402 68 345.5 25 c 128,-1,31
 289 -18 289 -18 212 -18 c 0,32,33
 51 -18 51 -18 88 208 c 2,0,-1
EndSplineSet
EndChar

StartChar: uni019D
Encoding: 413 413 351
Width: 716
GlyphClass: 2
Flags: W
LayerCount: 2
Fore
SplineSet
184 735 m 1,0,-1
 257 735 l 1,1,-1
 483 195 l 1,2,-1
 526 89 l 1,3,-1
 531 89 l 1,4,5
 536 175 536 175 555 286 c 2,6,-1
 629 735 l 1,7,-1
 692 735 l 1,8,-1
 570 0 l 1,9,-1
 498 0 l 1,10,-1
 270 542 l 1,11,-1
 228 645 l 1,12,-1
 224 645 l 1,13,14
 216 551 216 551 198 442 c 2,15,-1
 121 -23 l 2,16,17
 85 -239 85 -239 -65 -239 c 0,18,19
 -88 -239 -88 -239 -107 -235 c 1,20,-1
 -98 -182 l 1,21,22
 -86 -185 -86 -185 -66 -185 c 0,23,24
 -7 -185 -7 -185 19 -144.5 c 128,-1,25
 45 -104 45 -104 59 -21 c 2,26,-1
 184 735 l 1,0,-1
EndSplineSet
EndChar

StartChar: uni019E
Encoding: 414 414 352
Width: 541
GlyphClass: 2
Flags: W
LayerCount: 2
Fore
SplineSet
30 0 m 1,0,-1
 117 525 l 1,1,-1
 174 525 l 1,2,-1
 158 429 l 1,3,-1
 159 429 l 1,4,5
 184 476 184 476 233.5 509.5 c 128,-1,6
 283 543 283 543 344 543 c 0,7,8
 411 543 411 543 449.5 497.5 c 128,-1,9
 488 452 488 452 469 340 c 2,10,-1
 374 -235 l 1,11,-1
 316 -235 l 1,12,-1
 409 329 l 2,13,14
 436 492 436 492 323 492 c 0,15,16
 262 492 262 492 207 440.5 c 128,-1,17
 152 389 152 389 141 320 c 0,18,19
 141 318 141 318 140 317 c 2,20,-1
 88 0 l 1,21,-1
 30 0 l 1,0,-1
EndSplineSet
EndChar

StartChar: uni019F
Encoding: 415 415 353
Width: 687
GlyphClass: 2
Flags: W
LayerCount: 2
Fore
SplineSet
64 368 m 0,0,1
 93 542 93 542 190.5 648 c 128,-1,2
 288 754 288 754 422 754 c 0,3,4
 557 754 557 754 618.5 647.5 c 128,-1,5
 680 541 680 541 651 367 c 0,6,7
 622 191 622 191 525 86.5 c 128,-1,8
 428 -18 428 -18 294 -18 c 256,9,10
 160 -18 160 -18 97.5 87.5 c 128,-1,11
 35 193 35 193 64 368 c 0,0,1
583 341 m 1,12,-1
 124 341 l 1,13,14
 106 202 106 202 153.5 119.5 c 128,-1,15
 201 37 201 37 303 37 c 0,16,17
 404 37 404 37 479.5 118.5 c 128,-1,18
 555 200 555 200 583 341 c 1,12,-1
132 391 m 1,19,-1
 591 391 l 1,20,21
 609 532 609 532 562.5 615.5 c 128,-1,22
 516 699 516 699 413 699 c 0,23,24
 311 699 311 699 235.5 616 c 128,-1,25
 160 533 160 533 132 391 c 1,19,-1
EndSplineSet
EndChar

StartChar: uni01A2
Encoding: 418 418 356
Width: 955
GlyphClass: 2
Flags: W
LayerCount: 2
Fore
SplineSet
63 362 m 0,0,1
 93 544 93 544 193.5 649 c 128,-1,2
 294 754 294 754 419 754 c 0,3,4
 472 754 472 754 559.5 733.5 c 128,-1,5
 647 713 647 713 727 713 c 0,6,7
 798 713 798 713 930 735 c 1,8,-1
 809 0 l 1,9,-1
 748 0 l 1,10,-1
 859 673 l 1,11,12
 784 660 784 660 717 660 c 256,13,14
 649 660 649 660 587 671 c 1,15,-1
 485 52 l 1,16,17
 399 -18 399 -18 291 -18 c 0,18,19
 166 -18 166 -18 100.5 87 c 128,-1,20
 35 192 35 192 63 362 c 0,0,1
127 362 m 0,21,22
 102 211 102 211 154 123.5 c 128,-1,23
 206 36 206 36 300 36 c 0,24,25
 330 36 330 36 358 43.5 c 128,-1,26
 386 51 386 51 396 56.5 c 128,-1,27
 406 62 406 62 427 75 c 1,28,-1
 527 680 l 1,29,30
 519 682 519 682 504.5 686.5 c 128,-1,31
 490 691 490 691 481.5 693.5 c 128,-1,32
 473 696 473 696 453.5 698 c 128,-1,33
 434 700 434 700 410 700 c 0,34,35
 318 700 318 700 236 612.5 c 128,-1,36
 154 525 154 525 127 362 c 0,21,22
EndSplineSet
EndChar

StartChar: uni01A3
Encoding: 419 419 357
Width: 766
GlyphClass: 2
Flags: W
LayerCount: 2
Fore
SplineSet
40 262 m 256,0,1
 62 397 62 397 136 470 c 128,-1,2
 210 543 210 543 311 543 c 0,3,4
 356 543 356 543 431 528 c 128,-1,5
 506 513 506 513 572 513 c 0,6,7
 650 513 650 513 730 528 c 1,8,-1
 643 0 l 1,9,-1
 586 0 l 1,10,-1
 664 470 l 1,11,12
 606 462 606 462 564 462 c 0,13,14
 502 462 502 462 470 467 c 1,15,-1
 405 75 l 1,16,17
 329 -18 329 -18 218 -18 c 0,18,19
 120 -18 120 -18 69 54.5 c 128,-1,20
 18 127 18 127 40 262 c 256,0,1
98 262 m 0,21,22
 81 158 81 158 116.5 95.5 c 128,-1,23
 152 33 152 33 227 33 c 0,24,25
 297 33 297 33 352 102 c 1,26,-1
 414 476 l 1,27,28
 347 492 347 492 303 492 c 0,29,30
 221 492 221 492 168 427.5 c 128,-1,31
 115 363 115 363 98 262 c 0,21,22
EndSplineSet
EndChar

StartChar: uni01A5
Encoding: 421 421 359
Width: 549
GlyphClass: 2
Flags: W
LayerCount: 2
Fore
SplineSet
136 264 m 0,0,1
 118 158 118 158 150.5 95.5 c 128,-1,2
 183 33 183 33 251 33 c 0,3,4
 319 33 319 33 373.5 95 c 128,-1,5
 428 157 428 157 445 263 c 0,6,7
 462 365 462 365 430 428.5 c 128,-1,8
 398 492 398 492 327 492 c 0,9,10
 262 492 262 492 207.5 429.5 c 128,-1,11
 153 367 153 367 136 264 c 0,0,1
-3 -235 m 1,12,-1
 137 613 l 2,13,14
 150 694 150 694 200 731.5 c 128,-1,15
 250 769 250 769 311 769 c 0,16,17
 334 769 334 769 375 765 c 1,18,-1
 366 712 l 1,19,20
 339 715 339 715 310 715 c 0,21,22
 260 715 260 715 230 682.5 c 128,-1,23
 200 650 200 650 192 604 c 2,24,-1
 161 416 l 1,25,26
 183 465 183 465 233 504 c 128,-1,27
 283 543 283 543 343 543 c 0,28,29
 434 543 434 543 479 467 c 128,-1,30
 524 391 524 391 503 263 c 0,31,32
 480 125 480 125 406.5 53.5 c 128,-1,33
 333 -18 333 -18 249 -18 c 0,34,35
 189 -18 189 -18 154.5 17.5 c 128,-1,36
 120 53 120 53 110 104 c 1,37,-1
 54 -235 l 1,38,-1
 -3 -235 l 1,12,-1
EndSplineSet
EndChar

StartChar: uni01A6
Encoding: 422 422 360
Width: 590
GlyphClass: 2
Flags: W
LayerCount: 2
Fore
SplineSet
148 290 m 1,0,-1
 307 290 l 2,1,2
 350 290 350 290 385.5 301 c 128,-1,3
 421 312 421 312 451 345.5 c 128,-1,4
 481 379 481 379 489 432 c 0,5,6
 499 494 499 494 467.5 529.5 c 128,-1,7
 436 565 436 565 356 565 c 2,8,-1
 194 565 l 1,9,-1
 148 290 l 1,0,-1
38 0 m 1,10,-1
 159 735 l 1,11,-1
 222 735 l 1,12,-1
 203 618 l 1,13,-1
 380 618 l 2,14,15
 483 618 483 618 524.5 566.5 c 128,-1,16
 566 515 566 515 553 436 c 0,17,18
 546 395 546 395 527 362.5 c 128,-1,19
 508 330 508 330 489.5 313 c 128,-1,20
 471 296 471 296 441.5 282 c 128,-1,21
 412 268 412 268 401 264.5 c 128,-1,22
 390 261 390 261 369 256 c 1,23,24
 405 237 405 237 419 208 c 128,-1,25
 433 179 433 179 442 126 c 0,26,27
 444 114 444 114 448.5 84.5 c 128,-1,28
 453 55 453 55 456.5 41 c 128,-1,29
 460 27 460 27 465 4 c 128,-1,30
 470 -19 470 -19 476 -39 c 128,-1,31
 482 -59 482 -59 490 -80 c 1,32,-1
 421 -80 l 1,33,34
 410 -50 410 -50 403 -17.5 c 128,-1,35
 396 15 396 15 388 60.5 c 128,-1,36
 380 106 380 106 374 132 c 0,37,38
 363 185 363 185 339 211 c 128,-1,39
 315 237 315 237 264 237 c 2,40,-1
 140 237 l 1,41,-1
 100 0 l 1,42,-1
 38 0 l 1,10,-1
EndSplineSet
EndChar

StartChar: uni01A7
Encoding: 423 423 361
Width: 588
GlyphClass: 2
Flags: W
LayerCount: 2
Fore
SplineSet
26 190 m 0,0,1
 32 227 32 227 50.5 257.5 c 128,-1,2
 69 288 69 288 91 308 c 128,-1,3
 113 328 113 328 148 346 c 128,-1,4
 183 364 183 364 210 374.5 c 128,-1,5
 237 385 237 385 278 398 c 0,6,7
 323 412 323 412 344 419.5 c 128,-1,8
 365 427 365 427 401 443 c 128,-1,9
 437 459 437 459 455.5 474 c 128,-1,10
 474 489 474 489 490.5 512.5 c 128,-1,11
 507 536 507 536 512 565 c 0,12,13
 522 627 522 627 483 663 c 128,-1,14
 444 699 444 699 363 699 c 0,15,16
 250 699 250 699 167 604 c 1,17,-1
 117 623 l 1,18,19
 156 678 156 678 223.5 716 c 128,-1,20
 291 754 291 754 371 754 c 0,21,22
 480 754 480 754 535.5 702.5 c 128,-1,23
 591 651 591 651 576 565 c 0,24,25
 570 526 570 526 549.5 494 c 128,-1,26
 529 462 529 462 507 443 c 128,-1,27
 485 424 485 424 444.5 404.5 c 128,-1,28
 404 385 404 385 380 376.5 c 128,-1,29
 356 368 356 368 306 352 c 0,30,31
 257 336 257 336 229.5 325 c 128,-1,32
 202 314 202 314 167.5 294.5 c 128,-1,33
 133 275 133 275 114 248.5 c 128,-1,34
 95 222 95 222 90 187 c 0,35,36
 78 117 78 117 122 76.5 c 128,-1,37
 166 36 166 36 247 36 c 0,38,39
 310 36 310 36 370.5 68.5 c 128,-1,40
 431 101 431 101 470 150 c 1,41,-1
 521 128 l 1,42,43
 474 63 474 63 400.5 22.5 c 128,-1,44
 327 -18 327 -18 240 -18 c 0,45,46
 126 -18 126 -18 68 37.5 c 128,-1,47
 10 93 10 93 26 190 c 0,0,1
EndSplineSet
EndChar

StartChar: uni01A8
Encoding: 424 424 362
Width: 461
GlyphClass: 2
Flags: W
LayerCount: 2
Fore
SplineSet
10 127 m 0,0,1
 14 154 14 154 29 176.5 c 128,-1,2
 44 199 44 199 62.5 214 c 128,-1,3
 81 229 81 229 110.5 243 c 128,-1,4
 140 257 140 257 160.5 264.5 c 128,-1,5
 181 272 181 272 213 282 c 0,6,7
 246 292 246 292 267.5 300 c 128,-1,8
 289 308 289 308 314 321.5 c 128,-1,9
 339 335 339 335 353.5 354 c 128,-1,10
 368 373 368 373 372 398 c 0,11,12
 379 441 379 441 349.5 466.5 c 128,-1,13
 320 492 320 492 261 492 c 0,14,15
 214 492 214 492 173.5 467 c 128,-1,16
 133 442 133 442 107 406 c 1,17,-1
 71 433 l 1,18,19
 102 479 102 479 156.5 511 c 128,-1,20
 211 543 211 543 271 543 c 0,21,22
 352 543 352 543 397 505 c 128,-1,23
 442 467 442 467 430 399 c 0,24,25
 424 365 424 365 407 339 c 128,-1,26
 390 313 390 313 361 295 c 128,-1,27
 332 277 332 277 308 267 c 128,-1,28
 284 257 284 257 247 245 c 0,29,30
 241 243 241 243 223.5 237.5 c 128,-1,31
 206 232 206 232 199 230 c 128,-1,32
 192 228 192 228 175.5 222.5 c 128,-1,33
 159 217 159 217 152 213.5 c 128,-1,34
 145 210 145 210 132 203.5 c 128,-1,35
 119 197 119 197 112.5 192 c 128,-1,36
 106 187 106 187 97 179.5 c 128,-1,37
 88 172 88 172 83 164.5 c 128,-1,38
 78 157 78 157 74 147.5 c 128,-1,39
 70 138 70 138 68 127 c 0,40,41
 61 84 61 84 92 58.5 c 128,-1,42
 123 33 123 33 185 33 c 0,43,44
 232 33 232 33 277.5 57.5 c 128,-1,45
 323 82 323 82 355 125 c 1,46,-1
 394 98 l 1,47,48
 310 -18 310 -18 177 -18 c 0,49,50
 86 -18 86 -18 43 24.5 c 128,-1,51
 0 67 0 67 10 127 c 0,0,1
EndSplineSet
EndChar

StartChar: uni01A9
Encoding: 425 425 363
Width: 591
GlyphClass: 2
Flags: W
LayerCount: 2
Fore
SplineSet
35 0 m 1,0,-1
 42 44 l 1,1,-1
 367 368 l 1,2,-1
 149 691 l 1,3,-1
 157 735 l 1,4,-1
 595 735 l 1,5,-1
 586 680 l 1,6,-1
 232 680 l 1,7,-1
 439 368 l 1,8,-1
 128 54 l 1,9,-1
 488 54 l 1,10,-1
 479 0 l 1,11,-1
 35 0 l 1,0,-1
EndSplineSet
EndChar

StartChar: uni01AA
Encoding: 426 426 364
Width: 410
GlyphClass: 2
Flags: W
LayerCount: 2
Fore
SplineSet
73 615 m 256,0,1
 67 577 67 577 89 554.5 c 128,-1,2
 111 532 111 532 147 532 c 0,3,4
 212 532 212 532 254 568 c 1,5,6
 258 591 258 591 257.5 612.5 c 128,-1,7
 257 634 257 634 250 655 c 128,-1,8
 243 676 243 676 224.5 689 c 128,-1,9
 206 702 206 702 177 702 c 0,10,11
 140 702 140 702 109.5 677.5 c 128,-1,12
 79 653 79 653 73 615 c 256,0,1
14 613 m 0,13,14
 25 678 25 678 73.5 716 c 128,-1,15
 122 754 122 754 184 754 c 0,16,17
 262 754 262 754 293 702 c 128,-1,18
 324 650 324 650 310 562 c 2,19,-1
 203 -80 l 2,20,21
 194 -132 194 -132 209.5 -158.5 c 128,-1,22
 225 -185 225 -185 272 -185 c 0,23,24
 292 -185 292 -185 321 -181 c 1,25,-1
 312 -234 l 1,26,27
 271 -239 271 -239 253 -239 c 0,28,29
 119 -239 119 -239 145 -82 c 2,30,-1
 243 512 l 1,31,32
 202 480 202 480 131 480 c 0,33,34
 72 480 72 480 38 517 c 128,-1,35
 4 554 4 554 14 613 c 0,13,14
EndSplineSet
EndChar

StartChar: uni01AB
Encoding: 427 427 365
Width: 344
GlyphClass: 2
Flags: W
LayerCount: 2
Fore
SplineSet
52 474 m 1,0,-1
 61 525 l 1,1,-1
 152 525 l 1,2,-1
 181 698 l 1,3,-1
 238 698 l 1,4,-1
 209 525 l 1,5,-1
 338 525 l 1,6,-1
 330 474 l 1,7,-1
 201 474 l 1,8,-1
 147 149 l 2,9,10
 138 97 138 97 154 74.5 c 128,-1,11
 170 52 170 52 212 52 c 0,12,13
 263 52 263 52 290 57 c 1,14,-1
 275 -35 l 2,15,16
 241 -239 241 -239 99 -239 c 0,17,18
 85 -239 85 -239 53 -234 c 1,19,-1
 61 -181 l 1,20,21
 83 -185 83 -185 103 -185 c 0,22,23
 149 -185 149 -185 177 -153 c 128,-1,24
 205 -121 205 -121 218 -42 c 2,25,-1
 225 0 l 1,26,27
 221 0 221 0 216 0 c 0,28,29
 199 0 199 0 169 2 c 0,30,31
 68 14 68 14 89 143 c 2,32,-1
 144 474 l 1,33,-1
 52 474 l 1,0,-1
EndSplineSet
EndChar

StartChar: uni01AC
Encoding: 428 428 366
Width: 559
GlyphClass: 2
Flags: W
LayerCount: 2
Fore
SplineSet
38 609 m 0,0,1
 59 735 59 735 232 735 c 2,2,-1
 623 735 l 1,3,-1
 614 680 l 1,4,-1
 390 680 l 1,5,-1
 278 0 l 1,6,-1
 216 0 l 1,7,-1
 328 680 l 1,8,-1
 225 680 l 2,9,10
 165 680 165 680 133 662.5 c 128,-1,11
 101 645 101 645 95 605 c 0,12,13
 92 588 92 588 92 574 c 1,14,-1
 37 574 l 1,15,16
 36 594 36 594 38 609 c 0,0,1
EndSplineSet
EndChar

StartChar: uni01AD
Encoding: 429 429 367
Width: 333
GlyphClass: 2
Flags: W
LayerCount: 2
Fore
SplineSet
52 474 m 1,0,-1
 61 525 l 1,1,-1
 152 525 l 1,2,-1
 166 611 l 2,3,4
 178 684 178 684 225.5 724.5 c 128,-1,5
 273 765 273 765 344 765 c 0,6,7
 376 765 376 765 404 762 c 1,8,-1
 396 709 l 1,9,10
 372 712 372 712 344 712 c 0,11,12
 296 712 296 712 263.5 684 c 128,-1,13
 231 656 231 656 222 604 c 2,14,-1
 209 525 l 1,15,-1
 339 525 l 1,16,-1
 330 474 l 1,17,-1
 201 474 l 1,18,-1
 147 149 l 2,19,20
 138 97 138 97 154 74.5 c 128,-1,21
 170 52 170 52 213 52 c 2,22,-1
 261 52 l 1,23,-1
 253 0 l 1,24,-1
 197 0 l 2,25,26
 65 0 65 0 89 143 c 2,27,-1
 144 474 l 1,28,-1
 52 474 l 1,0,-1
EndSplineSet
EndChar

StartChar: uni01AE
Encoding: 430 430 368
Width: 534
GlyphClass: 2
Flags: W
LayerCount: 2
Fore
SplineSet
80 680 m 1,0,-1
 89 735 l 1,1,-1
 597 735 l 1,2,-1
 588 680 l 1,3,-1
 363 680 l 1,4,-1
 239 -73 l 2,5,6
 229 -133 229 -133 244 -159 c 128,-1,7
 259 -185 259 -185 309 -185 c 0,8,9
 328 -185 328 -185 356 -181 c 1,10,-1
 347 -234 l 1,11,12
 310 -239 310 -239 291 -239 c 0,13,14
 223 -239 223 -239 192.5 -201 c 128,-1,15
 162 -163 162 -163 177 -72 c 2,16,-1
 302 680 l 1,17,-1
 80 680 l 1,0,-1
EndSplineSet
EndChar

StartChar: uni01B1
Encoding: 433 433 371
Width: 730
GlyphClass: 2
Flags: W
LayerCount: 2
Fore
SplineSet
53 302 m 0,0,1
 88 516 88 516 314 597 c 1,2,-1
 327 680 l 1,3,-1
 122 680 l 1,4,-1
 132 735 l 1,5,-1
 386 735 l 1,6,-1
 358 562 l 1,7,8
 257 534 257 534 195 464 c 128,-1,9
 133 394 133 394 118 302 c 0,10,11
 99 186 99 186 156 111.5 c 128,-1,12
 213 37 213 37 325 37 c 256,13,14
 437 37 437 37 518.5 112 c 128,-1,15
 600 187 600 187 619 302 c 0,16,17
 634 393 634 393 596 463 c 128,-1,18
 558 533 558 533 466 562 c 1,19,-1
 494 735 l 1,20,-1
 749 735 l 1,21,-1
 740 680 l 1,22,-1
 534 680 l 1,23,-1
 520 597 l 1,24,25
 609 562 609 562 655.5 489.5 c 128,-1,26
 702 417 702 417 683 302 c 0,27,28
 660 166 660 166 562 74 c 128,-1,29
 464 -18 464 -18 316 -18 c 256,30,31
 168 -18 168 -18 99 73.5 c 128,-1,32
 30 165 30 165 53 302 c 0,0,1
EndSplineSet
EndChar

StartChar: uni01B2
Encoding: 434 434 372
Width: 697
GlyphClass: 2
Flags: W
LayerCount: 2
Fore
SplineSet
93 241 m 2,0,-1
 175 735 l 1,1,-1
 237 735 l 1,2,-1
 155 243 l 2,3,4
 137 133 137 133 174.5 84.5 c 128,-1,5
 212 36 212 36 300 36 c 0,6,7
 406 36 406 36 491 141 c 128,-1,8
 576 246 576 246 604 414 c 0,9,10
 626 549 626 549 600 624 c 128,-1,11
 574 699 574 699 505 699 c 0,12,13
 475 699 475 699 443 692 c 1,14,-1
 452 748 l 1,15,16
 509 754 509 754 523 754 c 0,17,18
 613 754 613 754 654.5 670 c 128,-1,19
 696 586 696 586 668 416 c 0,20,21
 637 227 637 227 534.5 104.5 c 128,-1,22
 432 -18 432 -18 291 -18 c 0,23,24
 169 -18 169 -18 120 44.5 c 128,-1,25
 71 107 71 107 93 241 c 2,0,-1
EndSplineSet
EndChar

StartChar: uni01B3
Encoding: 435 435 373
Width: 572
GlyphClass: 2
Flags: W
LayerCount: 2
Fore
SplineSet
72 735 m 1,0,-1
 144 735 l 1,1,-1
 250 473 l 2,2,3
 275 413 275 413 296 359 c 1,4,-1
 299 359 l 1,5,6
 322 394 322 394 381 473 c 2,7,-1
 530 677 l 2,8,9
 586 754 586 754 660 754 c 0,10,11
 674 754 674 754 700 751 c 1,12,-1
 691 697 l 1,13,14
 675 700 675 700 656 700 c 0,15,16
 618 700 618 700 578 646 c 2,17,-1
 319 302 l 1,18,-1
 269 0 l 1,19,-1
 207 0 l 1,20,-1
 257 302 l 1,21,-1
 72 735 l 1,0,-1
EndSplineSet
EndChar

StartChar: uni01B4
Encoding: 436 436 374
Width: 461
GlyphClass: 2
Flags: W
LayerCount: 2
Fore
SplineSet
49 525 m 1,0,-1
 116 525 l 1,1,-1
 174 194 l 2,2,3
 177 174 177 174 180.5 152 c 128,-1,4
 184 130 184 130 187.5 103.5 c 128,-1,5
 191 77 191 77 194 62 c 1,6,-1
 198 62 l 1,7,8
 208 83 208 83 229.5 127.5 c 128,-1,9
 251 172 251 172 262 195 c 2,10,-1
 396 468 l 2,11,12
 432 540 432 540 512 540 c 0,13,14
 530 540 530 540 554 536 c 1,15,-1
 546 483 l 1,16,17
 526 487 526 487 514 487 c 0,18,19
 471 487 471 487 449 443 c 2,20,-1
 177 -86 l 2,21,22
 136 -166 136 -166 95 -200.5 c 128,-1,23
 54 -235 54 -235 7 -235 c 2,24,-1
 -24 -235 l 1,25,-1
 -15 -184 l 1,26,-1
 4 -184 l 2,27,28
 76 -184 76 -184 132 -60 c 1,29,-1
 155 -14 l 1,30,-1
 49 525 l 1,0,-1
EndSplineSet
EndChar

StartChar: uni01B5
Encoding: 437 437 375
Width: 594
GlyphClass: 2
Flags: W
LayerCount: 2
Fore
SplineSet
114 339 m 1,0,-1
 123 389 l 1,1,-1
 289 389 l 1,2,-1
 531 681 l 1,3,-1
 144 681 l 1,4,-1
 153 735 l 1,5,-1
 614 735 l 1,6,-1
 606 687 l 1,7,-1
 361 389 l 1,8,-1
 502 389 l 1,9,-1
 494 339 l 1,10,-1
 318 339 l 1,11,-1
 84 54 l 1,12,-1
 512 54 l 1,13,-1
 503 0 l 1,14,-1
 0 0 l 1,15,-1
 8 47 l 1,16,-1
 248 339 l 1,17,-1
 114 339 l 1,0,-1
EndSplineSet
EndChar

StartChar: uni01B6
Encoding: 438 438 376
Width: 449
GlyphClass: 2
Flags: W
LayerCount: 2
Fore
SplineSet
-14 0 m 1,0,-1
 -7 42 l 1,1,-1
 167 244 l 1,2,-1
 62 244 l 1,3,-1
 70 293 l 1,4,-1
 209 293 l 1,5,-1
 365 474 l 1,6,-1
 89 474 l 1,7,-1
 97 525 l 1,8,-1
 448 525 l 1,9,-1
 441 485 l 1,10,-1
 276 293 l 1,11,-1
 380 293 l 1,12,-1
 372 244 l 1,13,-1
 232 244 l 1,14,-1
 67 51 l 1,15,-1
 379 51 l 1,16,-1
 371 0 l 1,17,-1
 -14 0 l 1,0,-1
EndSplineSet
EndChar

StartChar: uni01B7
Encoding: 439 439 377
Width: 665
GlyphClass: 2
Flags: W
LayerCount: 2
Fore
SplineSet
-9 -70 m 1,0,-1
 47 -47 l 1,1,2
 63 -104 63 -104 111.5 -141 c 128,-1,3
 160 -178 160 -178 230 -178 c 0,4,5
 345 -178 345 -178 420.5 -109 c 128,-1,6
 496 -40 496 -40 515 75 c 0,7,8
 533 184 533 184 473 248 c 128,-1,9
 413 312 413 312 272 312 c 2,10,-1
 208 312 l 1,11,-1
 217 366 l 1,12,-1
 539 680 l 1,13,-1
 138 680 l 1,14,-1
 147 735 l 1,15,-1
 641 735 l 1,16,-1
 635 699 l 1,17,-1
 290 364 l 1,18,-1
 312 364 l 1,19,20
 460 357 460 357 530.5 281 c 128,-1,21
 601 205 601 205 579 76 c 0,22,23
 556 -65 556 -65 457.5 -148.5 c 128,-1,24
 359 -232 359 -232 222 -232 c 0,25,26
 129 -232 129 -232 69.5 -185.5 c 128,-1,27
 10 -139 10 -139 -9 -70 c 1,0,-1
EndSplineSet
EndChar

StartChar: uni01B8
Encoding: 440 440 378
Width: 665
GlyphClass: 2
Flags: W
LayerCount: 2
Fore
SplineSet
18 76 m 0,0,1
 39 205 39 205 139 284.5 c 128,-1,2
 239 364 239 364 381 364 c 2,3,-1
 402 364 l 1,4,-1
 170 699 l 1,5,-1
 175 735 l 1,6,-1
 668 735 l 1,7,-1
 659 680 l 1,8,-1
 258 680 l 1,9,-1
 476 366 l 1,10,-1
 467 312 l 1,11,-1
 404 312 l 2,12,13
 263 312 263 312 181.5 248 c 128,-1,14
 100 184 100 184 82 75 c 0,15,16
 63 -40 63 -40 115.5 -109 c 128,-1,17
 168 -178 168 -178 283 -178 c 0,18,19
 354 -178 354 -178 414.5 -141 c 128,-1,20
 475 -104 475 -104 510 -47 c 1,21,-1
 559 -70 l 1,22,23
 517 -139 517 -139 441.5 -185.5 c 128,-1,24
 366 -232 366 -232 273 -232 c 0,25,26
 137 -232 137 -232 66 -148.5 c 128,-1,27
 -5 -65 -5 -65 18 76 c 0,0,1
EndSplineSet
EndChar

StartChar: uni01B9
Encoding: 441 441 379
Width: 510
GlyphClass: 2
Flags: W
LayerCount: 2
Fore
SplineSet
1 -4 m 0,0,1
 18 99 18 99 93 161.5 c 128,-1,2
 168 224 168 224 271 224 c 2,3,-1
 301 224 l 1,4,-1
 107 485 l 1,5,-1
 114 525 l 1,6,-1
 485 525 l 1,7,-1
 476 474 l 1,8,-1
 187 474 l 1,9,-1
 372 220 l 1,10,-1
 365 177 l 1,11,-1
 289 177 l 2,12,13
 193 177 193 177 133.5 128.5 c 128,-1,14
 74 80 74 80 60 -4 c 0,15,16
 47 -83 47 -83 81.5 -135 c 128,-1,17
 116 -187 116 -187 190 -187 c 0,18,19
 292 -187 292 -187 360 -84 c 1,20,-1
 406 -102 l 1,21,22
 369 -165 369 -165 311 -202 c 128,-1,23
 253 -239 253 -239 180 -239 c 0,24,25
 82 -239 82 -239 33 -173.5 c 128,-1,26
 -16 -108 -16 -108 1 -4 c 0,0,1
EndSplineSet
EndChar

StartChar: uni01BA
Encoding: 442 442 380
Width: 430
GlyphClass: 2
Flags: W
LayerCount: 2
Fore
SplineSet
-14 -87 m 0,0,1
 -8 -50 -8 -50 23.5 -19.5 c 128,-1,2
 55 11 55 11 96.5 31.5 c 128,-1,3
 138 52 138 52 179 71.5 c 128,-1,4
 220 91 220 91 251 117 c 128,-1,5
 282 143 282 143 287 175 c 0,6,7
 292 208 292 208 260.5 229 c 128,-1,8
 229 250 229 250 155 250 c 2,9,-1
 121 250 l 1,10,-1
 127 288 l 1,11,-1
 336 474 l 1,12,-1
 82 474 l 1,13,-1
 90 525 l 1,14,-1
 418 525 l 1,15,-1
 412 484 l 1,16,-1
 192 288 l 1,17,-1
 211 287 l 2,18,19
 286 286 286 286 320 257 c 128,-1,20
 354 228 354 228 346 177 c 0,21,22
 339 137 339 137 307 104 c 128,-1,23
 275 71 275 71 233.5 50 c 128,-1,24
 192 29 192 29 151.5 9.5 c 128,-1,25
 111 -10 111 -10 80.5 -33.5 c 128,-1,26
 50 -57 50 -57 46 -84 c 0,27,28
 34 -154 34 -154 124 -154 c 0,29,30
 158 -154 158 -154 215 -144 c 1,31,-1
 207 -196 l 1,32,33
 154 -205 154 -205 109 -205 c 0,34,35
 45 -205 45 -205 11 -174.5 c 128,-1,36
 -23 -144 -23 -144 -14 -87 c 0,0,1
EndSplineSet
EndChar

StartChar: uni01BB
Encoding: 443 443 381
Width: 538
GlyphClass: 2
Flags: W
LayerCount: 2
Fore
SplineSet
119 334 m 1,0,-1
 127 384 l 1,1,-1
 345 384 l 1,2,3
 438 468 438 468 452 554 c 0,4,5
 464 626 464 626 430.5 663.5 c 128,-1,6
 397 701 397 701 332 701 c 0,7,8
 273 701 273 701 226 663.5 c 128,-1,9
 179 626 179 626 149 559 c 1,10,-1
 99 575 l 1,11,12
 132 655 132 655 195 704.5 c 128,-1,13
 258 754 258 754 343 754 c 0,14,15
 434 754 434 754 482.5 700.5 c 128,-1,16
 531 647 531 647 515 552 c 0,17,18
 501 467 501 467 418 384 c 1,19,-1
 518 384 l 1,20,-1
 510 334 l 1,21,-1
 368 334 l 1,22,23
 353 322 353 322 318.5 292.5 c 128,-1,24
 284 263 284 263 270.5 252 c 128,-1,25
 257 241 257 241 230 217 c 128,-1,26
 203 193 203 193 191.5 181.5 c 128,-1,27
 180 170 180 170 160.5 150 c 128,-1,28
 141 130 141 130 131 116.5 c 128,-1,29
 121 103 121 103 109.5 86 c 128,-1,30
 98 69 98 69 90 52 c 1,31,-1
 431 52 l 1,32,-1
 422 0 l 1,33,-1
 8 0 l 1,34,35
 20 70 20 70 88.5 146.5 c 128,-1,36
 157 223 157 223 288 334 c 1,37,-1
 119 334 l 1,0,-1
EndSplineSet
EndChar

StartChar: uni01BC
Encoding: 444 444 382
Width: 530
GlyphClass: 2
Flags: W
LayerCount: 2
Fore
SplineSet
17 111 m 1,0,-1
 71 132 l 1,1,2
 101 34 101 34 211 34 c 0,3,4
 285 34 285 34 336.5 82 c 128,-1,5
 388 130 388 130 401 210 c 0,6,7
 413 284 413 284 369.5 337 c 128,-1,8
 326 390 326 390 218 390 c 0,9,10
 171 390 171 390 118 381 c 1,11,-1
 202 681 l 1,12,-1
 150 681 l 1,13,-1
 159 735 l 1,14,-1
 514 735 l 1,15,-1
 505 680 l 1,16,-1
 259 680 l 1,17,-1
 194 440 l 1,18,19
 211 442 211 442 251 442 c 0,20,21
 368 442 368 442 424.5 376 c 128,-1,22
 481 310 481 310 464 210 c 0,23,24
 447 108 447 108 377.5 45 c 128,-1,25
 308 -18 308 -18 204 -18 c 0,26,27
 125 -18 125 -18 78.5 18 c 128,-1,28
 32 54 32 54 17 111 c 1,0,-1
EndSplineSet
EndChar

StartChar: uni01BD
Encoding: 445 445 383
Width: 428
GlyphClass: 2
Flags: W
LayerCount: 2
Fore
SplineSet
12 80 m 1,0,-1
 62 104 l 1,1,2
 74 72 74 72 100.5 52.5 c 128,-1,3
 127 33 127 33 160 33 c 0,4,5
 217 33 217 33 252 65 c 128,-1,6
 287 97 287 97 295 147 c 0,7,8
 304 202 304 202 268 239 c 128,-1,9
 232 276 232 276 166 276 c 0,10,11
 142 276 142 276 93 270 c 1,12,-1
 155 474 l 1,13,-1
 111 474 l 1,14,-1
 120 525 l 1,15,-1
 390 525 l 1,16,-1
 382 474 l 1,17,-1
 206 474 l 1,18,-1
 160 327 l 1,19,-1
 186 327 l 2,20,21
 276 327 276 327 321.5 276 c 128,-1,22
 367 225 367 225 354 149 c 0,23,24
 342 76 342 76 289.5 29 c 128,-1,25
 237 -18 237 -18 151 -18 c 0,26,27
 49 -18 49 -18 12 80 c 1,0,-1
EndSplineSet
EndChar

StartChar: uni01BE
Encoding: 446 446 384
Width: 407
GlyphClass: 2
Flags: W
LayerCount: 2
Fore
SplineSet
70 474 m 1,0,-1
 78 525 l 1,1,-1
 151 525 l 1,2,-1
 179 691 l 1,3,-1
 235 691 l 1,4,-1
 208 525 l 1,5,-1
 337 525 l 1,6,-1
 328 474 l 1,7,-1
 199 474 l 1,8,-1
 186 394 l 2,9,10
 180 357 180 357 194 328 c 128,-1,11
 208 299 208 299 232 278.5 c 128,-1,12
 256 258 256 258 280.5 238 c 128,-1,13
 305 218 305 218 319 188 c 128,-1,14
 333 158 333 158 326 121 c 0,15,16
 316 59 316 59 271.5 20.5 c 128,-1,17
 227 -18 227 -18 147 -18 c 0,18,19
 43 -18 43 -18 7 76 c 1,20,-1
 53 102 l 1,21,22
 89 33 89 33 154 33 c 0,23,24
 254 33 254 33 269 120 c 0,25,26
 273 147 273 147 258 170 c 128,-1,27
 243 193 243 193 218.5 212 c 128,-1,28
 194 231 194 231 171 253 c 128,-1,29
 148 275 148 275 134.5 309.5 c 128,-1,30
 121 344 121 344 128 387 c 2,31,-1
 143 474 l 1,32,-1
 70 474 l 1,0,-1
EndSplineSet
EndChar

StartChar: uni01BF
Encoding: 447 447 385
Width: 544
GlyphClass: 2
Flags: W
LayerCount: 2
Fore
SplineSet
-3 -235 m 1,0,-1
 123 525 l 1,1,-1
 180 525 l 1,2,-1
 173 480 l 1,3,4
 257 543 257 543 341 543 c 0,5,6
 435 543 435 543 479.5 485 c 128,-1,7
 524 427 524 427 508 328 c 0,8,9
 462 51 462 51 93 1 c 1,10,-1
 54 -235 l 1,11,-1
 -3 -235 l 1,0,-1
102 51 m 1,12,13
 251 73 251 73 341.5 140.5 c 128,-1,14
 432 208 432 208 450 322 c 0,15,16
 464 406 464 406 428.5 449 c 128,-1,17
 393 492 393 492 326 492 c 0,18,19
 244 492 244 492 163 419 c 1,20,-1
 102 51 l 1,12,13
EndSplineSet
EndChar

StartChar: uni01C0
Encoding: 448 448 386
Width: 207
GlyphClass: 2
Flags: W
LayerCount: 2
Fore
SplineSet
-6 -218 m 1,0,-1
 166 820 l 1,1,-1
 221 820 l 1,2,-1
 49 -218 l 1,3,-1
 -6 -218 l 1,0,-1
EndSplineSet
EndChar

StartChar: uni01C1
Encoding: 449 449 387
Width: 362
GlyphClass: 2
Flags: W
LayerCount: 2
Fore
SplineSet
-7 -218 m 1,0,-1
 165 820 l 1,1,-1
 221 820 l 1,2,-1
 49 -218 l 1,3,-1
 -7 -218 l 1,0,-1
148 -218 m 1,4,-1
 320 820 l 1,5,-1
 377 820 l 1,6,-1
 205 -218 l 1,7,-1
 148 -218 l 1,4,-1
EndSplineSet
EndChar

StartChar: uni01C2
Encoding: 450 450 388
Width: 297
GlyphClass: 2
Flags: W
LayerCount: 2
Fore
SplineSet
43 426 m 1,0,-1
 50 470 l 1,1,-1
 153 470 l 1,2,-1
 211 820 l 1,3,-1
 267 820 l 1,4,-1
 209 470 l 1,5,-1
 310 470 l 1,6,-1
 302 426 l 1,7,-1
 201 426 l 1,8,-1
 172 251 l 1,9,-1
 273 251 l 1,10,-1
 266 206 l 1,11,-1
 165 206 l 1,12,-1
 95 -218 l 1,13,-1
 39 -218 l 1,14,-1
 109 206 l 1,15,-1
 6 206 l 1,16,-1
 14 251 l 1,17,-1
 117 251 l 1,18,-1
 146 426 l 1,19,-1
 43 426 l 1,0,-1
EndSplineSet
EndChar

StartChar: uni01DD
Encoding: 477 477 415
Width: 522
GlyphClass: 2
Flags: W
LayerCount: 2
Fore
SplineSet
91 235 m 1,0,1
 77 151 77 151 110.5 92 c 128,-1,2
 144 33 144 33 216 33 c 256,3,4
 288 33 288 33 342 92.5 c 128,-1,5
 396 152 396 152 413 235 c 1,6,-1
 91 235 l 1,0,1
36 246 m 2,7,-1
 42 282 l 1,8,-1
 421 282 l 1,9,10
 435 368 435 368 401 430 c 128,-1,11
 367 492 367 492 289 492 c 0,12,13
 237 492 237 492 192.5 465 c 128,-1,14
 148 438 148 438 122 398 c 1,15,-1
 76 415 l 1,16,17
 155 543 155 543 297 543 c 0,18,19
 402 543 402 543 449 464 c 128,-1,20
 496 385 496 385 475 259 c 0,21,22
 455 136 455 136 380.5 59 c 128,-1,23
 306 -18 306 -18 208 -18 c 256,24,25
 109 -18 109 -18 63 57 c 128,-1,26
 17 132 17 132 36 246 c 2,7,-1
EndSplineSet
EndChar

StartChar: uni01E4
Encoding: 484 484 422
Width: 702
GlyphClass: 2
Flags: W
LayerCount: 2
Fore
SplineSet
64 368 m 0,0,1
 92 538 92 538 191.5 646 c 128,-1,2
 291 754 291 754 439 754 c 0,3,4
 526 754 526 754 577.5 708 c 128,-1,5
 629 662 629 662 647 603 c 1,6,-1
 590 584 l 1,7,8
 580 607 580 607 569.5 623.5 c 128,-1,9
 559 640 559 640 540.5 659 c 128,-1,10
 522 678 522 678 494 688.5 c 128,-1,11
 466 699 466 699 429 699 c 0,12,13
 312 699 312 699 232.5 608.5 c 128,-1,14
 153 518 153 518 128 368 c 0,15,16
 103 216 103 216 153.5 126.5 c 128,-1,17
 204 37 204 37 316 37 c 0,18,19
 390 37 390 37 446.5 78 c 128,-1,20
 503 119 503 119 534 186 c 1,21,-1
 335 186 l 1,22,-1
 342 230 l 1,23,-1
 550 230 l 1,24,25
 558 253 558 253 562 278 c 2,26,-1
 571 337 l 1,27,-1
 357 337 l 1,28,-1
 366 391 l 1,29,-1
 641 391 l 1,30,-1
 614 230 l 1,31,-1
 691 230 l 1,32,-1
 684 186 l 1,33,-1
 607 186 l 1,34,-1
 576 0 l 1,35,-1
 529 0 l 1,36,-1
 545 122 l 1,37,38
 511 61 511 61 451 21.5 c 128,-1,39
 391 -18 391 -18 307 -18 c 0,40,41
 167 -18 167 -18 101 86.5 c 128,-1,42
 35 191 35 191 64 368 c 0,0,1
EndSplineSet
EndChar

StartChar: uni01E5
Encoding: 485 485 423
Width: 544
GlyphClass: 2
Flags: W
LayerCount: 2
Fore
SplineSet
42 275 m 0,0,1
 62 393 62 393 130 468 c 128,-1,2
 198 543 198 543 290 543 c 0,3,4
 351 543 351 543 384 508 c 128,-1,5
 417 473 417 473 426 427 c 1,6,-1
 442 525 l 1,7,-1
 498 525 l 1,8,-1
 421 61 l 2,9,10
 410 -6 410 -6 397 -49 c 1,11,-1
 472 -49 l 1,12,-1
 465 -89 l 1,13,-1
 382 -89 l 1,14,15
 350 -163 350 -163 298 -201 c 128,-1,16
 246 -239 246 -239 166 -239 c 0,17,18
 50 -239 50 -239 1 -147 c 1,19,-1
 47 -118 l 1,20,21
 91 -189 91 -189 176 -189 c 0,22,23
 273 -189 273 -189 321 -89 c 1,24,-1
 133 -89 l 1,25,-1
 140 -49 l 1,26,-1
 339 -49 l 1,27,28
 352 -14 352 -14 363 51 c 2,29,-1
 377 131 l 1,30,31
 350 81 350 81 305 49 c 128,-1,32
 260 17 260 17 203 17 c 0,33,34
 112 17 112 17 67.5 88 c 128,-1,35
 23 159 23 159 42 275 c 0,0,1
100 275 m 0,36,37
 84 180 84 180 118 124.5 c 128,-1,38
 152 69 152 69 215 69 c 0,39,40
 282 69 282 69 333 126 c 128,-1,41
 384 183 384 183 401 282 c 0,42,43
 417 376 417 376 384.5 434 c 128,-1,44
 352 492 352 492 288 492 c 0,45,46
 219 492 219 492 167.5 430.5 c 128,-1,47
 116 369 116 369 100 275 c 0,36,37
EndSplineSet
EndChar

StartChar: uni01EF
Encoding: 495 495 433
Width: 510
GlyphClass: 2
Flags: W
LayerCount: 2
Fore
SplineSet
151 788 m 1,0,-1
 212 788 l 1,1,-1
 307 668 l 1,2,-1
 442 788 l 1,3,-1
 503 788 l 1,4,-1
 327 631 l 1,5,-1
 273 631 l 1,6,-1
 151 788 l 1,0,-1
-24 -102 m 1,7,-1
 29 -84 l 1,8,9
 63 -187 63 -187 165 -187 c 0,10,11
 239 -187 239 -187 291 -134.5 c 128,-1,12
 343 -82 343 -82 357 0 c 0,13,14
 370 81 370 81 326 129 c 128,-1,15
 282 177 282 177 187 177 c 2,16,-1
 111 177 l 1,17,-1
 118 220 l 1,18,-1
 387 474 l 1,19,-1
 98 474 l 1,20,-1
 107 525 l 1,21,-1
 478 525 l 1,22,-1
 471 485 l 1,23,-1
 191 224 l 1,24,-1
 234 223 l 1,25,26
 329 215 329 215 380.5 155 c 128,-1,27
 432 95 432 95 416 0 c 0,28,29
 398 -107 398 -107 327 -173 c 128,-1,30
 256 -239 256 -239 157 -239 c 0,31,32
 84 -239 84 -239 38 -202 c 128,-1,33
 -8 -165 -8 -165 -24 -102 c 1,7,-1
EndSplineSet
EndChar

StartChar: uni01F6
Encoding: 502 502 440
Width: 996
GlyphClass: 2
Flags: W
LayerCount: 2
Fore
SplineSet
53 0 m 1,0,-1
 175 735 l 1,1,-1
 237 735 l 1,2,-1
 182 406 l 1,3,-1
 540 406 l 1,4,-1
 594 735 l 1,5,-1
 657 735 l 1,6,-1
 566 187 l 2,7,8
 553 108 553 108 587.5 70.5 c 128,-1,9
 622 33 622 33 684 33 c 0,10,11
 742 33 742 33 788 73 c 128,-1,12
 834 113 834 113 846 182 c 2,13,-1
 902 525 l 1,14,-1
 963 525 l 1,15,-1
 905 175 l 2,16,17
 890 83 890 83 825 32.5 c 128,-1,18
 760 -18 760 -18 675 -18 c 0,19,20
 587 -18 587 -18 536 28.5 c 128,-1,21
 485 75 485 75 502 175 c 2,22,-1
 531 352 l 1,23,-1
 173 352 l 1,24,-1
 115 0 l 1,25,-1
 53 0 l 1,0,-1
EndSplineSet
EndChar

StartChar: uni01F7
Encoding: 503 503 441
Width: 625
GlyphClass: 2
Flags: W
LayerCount: 2
Fore
SplineSet
15 -228 m 1,0,-1
 175 735 l 1,1,-1
 237 735 l 1,2,-1
 224 651 l 1,3,4
 342 754 342 754 448 754 c 0,5,6
 549 754 549 754 591 684.5 c 128,-1,7
 633 615 633 615 613 495 c 0,8,9
 600 418 600 418 559.5 347.5 c 128,-1,10
 519 277 519 277 468 226.5 c 128,-1,11
 417 176 417 176 349.5 129.5 c 128,-1,12
 282 83 282 83 228.5 55.5 c 128,-1,13
 175 28 175 28 116 2 c 1,14,-1
 78 -228 l 1,15,-1
 15 -228 l 1,0,-1
126 61 m 1,16,17
 508 240 508 240 550 492 c 0,18,19
 565 585 565 585 534.5 642.5 c 128,-1,20
 504 700 504 700 426 700 c 0,21,22
 374 700 374 700 312.5 664 c 128,-1,23
 251 628 251 628 212 583 c 1,24,-1
 126 61 l 1,16,17
EndSplineSet
EndChar

StartChar: Aringacute
Encoding: 506 506 444
Width: 619
GlyphClass: 2
Flags: W
LayerCount: 2
Fore
SplineSet
-49 0 m 1,0,-1
 346 735 l 1,1,-1
 424 735 l 1,2,-1
 574 0 l 1,3,-1
 506 0 l 1,4,-1
 464 222 l 1,5,-1
 136 222 l 1,6,-1
 20 0 l 1,7,-1
 -49 0 l 1,0,-1
163 273 m 1,8,-1
 453 273 l 1,9,-1
 401 547 l 2,10,11
 398 568 398 568 389.5 613.5 c 128,-1,12
 381 659 381 659 378 677 c 1,13,-1
 373 677 l 1,14,15
 366 664 366 664 342 616.5 c 128,-1,16
 318 569 318 569 307 547 c 2,17,-1
 163 273 l 1,8,-1
279 885 m 0,18,19
 287 935 287 935 330 972 c 0,20,21
 361 998 361 998 400 1006 c 1,22,-1
 492 1122 l 1,23,-1
 575 1122 l 1,24,-1
 458 1005 l 1,25,26
 493 998 493 998 514 972 c 0,27,28
 544 936 544 936 536 885 c 0,29,30
 528 835 528 835 485 798.5 c 128,-1,31
 442 762 442 762 387 762 c 0,32,33
 333 762 333 762 302 798 c 128,-1,34
 271 834 271 834 279 885 c 0,18,19
324 885 m 0,35,36
 318 850 318 850 337.5 826.5 c 128,-1,37
 357 803 357 803 394 803 c 0,38,39
 430 803 430 803 457 826 c 128,-1,40
 484 849 484 849 490 885 c 0,41,42
 496 919 496 919 477 943.5 c 128,-1,43
 458 968 458 968 421 968 c 256,44,45
 384 968 384 968 357 943.5 c 128,-1,46
 330 919 330 919 324 885 c 0,35,36
EndSplineSet
EndChar

StartChar: aringacute
Encoding: 507 507 445
Width: 521
GlyphClass: 2
Flags: W
LayerCount: 2
Fore
SplineSet
15 126 m 0,0,1
 27 198 27 198 85 242.5 c 128,-1,2
 143 287 143 287 255 305 c 0,3,4
 368 324 368 324 402 337 c 1,5,-1
 407 367 l 2,6,7
 416 422 416 422 385.5 457.5 c 128,-1,8
 355 493 355 493 288 493 c 0,9,10
 243 493 243 493 197 470.5 c 128,-1,11
 151 448 151 448 116 410 c 1,12,-1
 84 442 l 1,13,14
 125 487 125 487 181 515 c 128,-1,15
 237 543 237 543 295 543 c 0,16,17
 398 543 398 543 436 489 c 128,-1,18
 474 435 474 435 459 344 c 2,19,-1
 402 0 l 1,20,-1
 347 0 l 1,21,-1
 362 95 l 1,22,23
 338 50 338 50 283 16 c 128,-1,24
 228 -18 228 -18 163 -18 c 0,25,26
 83 -18 83 -18 44 22.5 c 128,-1,27
 5 63 5 63 15 126 c 0,0,1
201 726 m 0,28,29
 209 776 209 776 250 813 c 0,30,31
 280 839 280 839 318 847 c 1,32,-1
 408 963 l 1,33,-1
 488 963 l 1,34,-1
 374 846 l 1,35,36
 408 839 408 839 428 813 c 0,37,38
 457 777 457 777 449 726 c 0,39,40
 441 676 441 676 399.5 639.5 c 128,-1,41
 358 603 358 603 305 603 c 0,42,43
 253 603 253 603 223 639 c 128,-1,44
 193 675 193 675 201 726 c 0,28,29
74 130 m 0,45,46
 67 90 67 90 94.5 61.5 c 128,-1,47
 122 33 122 33 179 33 c 0,48,49
 250 33 250 33 308.5 81.5 c 128,-1,50
 367 130 367 130 380 205 c 2,51,-1
 393 288 l 1,52,53
 348 274 348 274 246 258 c 0,54,55
 164 244 164 244 123.5 213 c 128,-1,56
 83 182 83 182 74 130 c 0,45,46
244 726 m 0,57,58
 238 691 238 691 256.5 667.5 c 128,-1,59
 275 644 275 644 311 644 c 0,60,61
 346 644 346 644 372.5 667 c 128,-1,62
 399 690 399 690 405 726 c 0,63,64
 411 760 411 760 393 784.5 c 128,-1,65
 375 809 375 809 339 809 c 256,66,67
 303 809 303 809 276.5 784.5 c 128,-1,68
 250 760 250 760 244 726 c 0,57,58
EndSplineSet
EndChar

StartChar: uni021C
Encoding: 540 540 478
Width: 557
GlyphClass: 2
Flags: W
LayerCount: 2
Fore
SplineSet
-26 -164 m 1,0,1
 40 -176 40 -176 103 -176 c 0,2,3
 222 -176 222 -176 306 -112 c 128,-1,4
 390 -48 390 -48 408 62 c 0,5,6
 418 123 418 123 407 167 c 128,-1,7
 396 211 396 211 369 234 c 128,-1,8
 342 257 342 257 311 267.5 c 128,-1,9
 280 278 280 278 243 278 c 0,10,11
 206 278 206 278 150 258 c 1,12,-1
 159 313 l 1,13,-1
 250 336 l 2,14,15
 342 360 342 360 402 414.5 c 128,-1,16
 462 469 462 469 474 541 c 0,17,18
 486 615 486 615 448.5 656.5 c 128,-1,19
 411 698 411 698 330 698 c 0,20,21
 223 698 223 698 153 594 c 1,22,-1
 105 617 l 1,23,24
 143 677 143 677 203.5 715.5 c 128,-1,25
 264 754 264 754 339 754 c 0,26,27
 456 754 456 754 505.5 697 c 128,-1,28
 555 640 555 640 540 547 c 0,29,30
 526 461 526 461 462.5 400 c 128,-1,31
 399 339 399 339 329 315 c 1,32,-1
 329 314 l 1,33,34
 399 299 399 299 445 237.5 c 128,-1,35
 491 176 491 176 472 62 c 0,36,37
 450 -69 450 -69 347 -150 c 128,-1,38
 244 -231 244 -231 95 -231 c 0,39,40
 29 -231 29 -231 -36 -222 c 1,41,-1
 -26 -164 l 1,0,1
EndSplineSet
EndChar

StartChar: uni021D
Encoding: 541 541 479
Width: 425
GlyphClass: 2
Flags: W
LayerCount: 2
Fore
SplineSet
-29 -178 m 1,0,1
 14 -187 14 -187 61 -187 c 0,2,3
 143 -187 143 -187 199 -139 c 128,-1,4
 255 -91 255 -91 270 -3 c 0,5,6
 283 75 283 75 249.5 117.5 c 128,-1,7
 216 160 216 160 162 160 c 0,8,9
 146 160 146 160 98 148 c 1,10,-1
 106 199 l 1,11,-1
 167 213 l 2,12,13
 232 230 232 230 273 273.5 c 128,-1,14
 314 317 314 317 323 371 c 0,15,16
 331 422 331 422 309.5 457 c 128,-1,17
 288 492 288 492 232 492 c 0,18,19
 165 492 165 492 117 421 c 1,20,-1
 75 443 l 1,21,22
 102 488 102 488 146.5 515.5 c 128,-1,23
 191 543 191 543 243 543 c 0,24,25
 325 543 325 543 358.5 494 c 128,-1,26
 392 445 392 445 381 378 c 0,27,28
 370 309 370 309 328 262 c 128,-1,29
 286 215 286 215 231 192 c 1,30,31
 279 180 279 180 310 130.5 c 128,-1,32
 341 81 341 81 327 -1 c 0,33,34
 309 -112 309 -112 235.5 -175.5 c 128,-1,35
 162 -239 162 -239 53 -239 c 0,36,37
 5 -239 5 -239 -38 -232 c 1,38,-1
 -29 -178 l 1,0,1
EndSplineSet
EndChar

StartChar: uni0220
Encoding: 544 544 482
Width: 696
GlyphClass: 2
Flags: W
LayerCount: 2
Fore
SplineSet
53 0 m 1,0,-1
 175 735 l 1,1,-1
 235 735 l 1,2,-1
 218 636 l 1,3,-1
 219 636 l 1,4,5
 252 678 252 678 316 716 c 128,-1,6
 380 754 380 754 459 754 c 0,7,8
 676 754 676 754 634 502 c 2,9,-1
 512 -235 l 1,10,-1
 449 -235 l 1,11,-1
 570 493 l 2,12,13
 588 599 588 599 557 649 c 128,-1,14
 526 699 526 699 437 699 c 0,15,16
 363 699 363 699 287 638.5 c 128,-1,17
 211 578 211 578 198 504 c 2,18,-1
 115 0 l 1,19,-1
 53 0 l 1,0,-1
EndSplineSet
EndChar

StartChar: uni0221
Encoding: 545 545 483
Width: 721
GlyphClass: 2
Flags: W
LayerCount: 2
Fore
SplineSet
417 -117 m 1,0,1
 422 -147 422 -147 446.5 -167.5 c 128,-1,2
 471 -188 471 -188 505 -188 c 0,3,4
 537 -188 537 -188 560 -171 c 128,-1,5
 583 -154 583 -154 587 -126 c 0,6,7
 592 -96 592 -96 575.5 -77 c 128,-1,8
 559 -58 559 -58 526 -58 c 0,9,10
 468 -58 468 -58 417 -117 c 1,0,1
40 263 m 0,11,12
 62 393 62 393 132.5 468 c 128,-1,13
 203 543 203 543 294 543 c 0,14,15
 352 543 352 543 387.5 506 c 128,-1,16
 423 469 423 469 432 419 c 1,17,-1
 489 764 l 1,18,-1
 547 764 l 1,19,-1
 423 17 l 2,20,21
 414 -40 414 -40 416 -60 c 1,22,23
 436 -39 436 -39 469 -23 c 128,-1,24
 502 -7 502 -7 536 -7 c 0,25,26
 598 -7 598 -7 625.5 -41 c 128,-1,27
 653 -75 653 -75 645 -124 c 0,28,29
 637 -175 637 -175 596 -207 c 128,-1,30
 555 -239 555 -239 497 -239 c 0,31,32
 415 -239 415 -239 382 -165 c 1,33,34
 362 -192 362 -192 339 -233 c 1,35,-1
 293 -217 l 1,36,37
 329 -147 329 -147 358 -114 c 1,38,39
 351 -83 351 -83 365 4 c 2,40,-1
 382 105 l 1,41,42
 355 53 355 53 307 17.5 c 128,-1,43
 259 -18 259 -18 200 -18 c 0,44,45
 117 -18 117 -18 67 52.5 c 128,-1,46
 17 123 17 123 40 263 c 0,11,12
98 263 m 256,47,48
 81 159 81 159 114 96 c 128,-1,49
 147 33 147 33 217 33 c 0,50,51
 282 33 282 33 336 94.5 c 128,-1,52
 390 156 390 156 408 263 c 0,53,54
 425 368 425 368 390 430 c 128,-1,55
 355 492 355 492 291 492 c 0,56,57
 222 492 222 492 168.5 429.5 c 128,-1,58
 115 367 115 367 98 263 c 256,47,48
EndSplineSet
EndChar

StartChar: uni0222
Encoding: 546 546 484
Width: 656
GlyphClass: 2
Flags: W
LayerCount: 2
Fore
SplineSet
37 234 m 0,0,1
 51 316 51 316 109 378 c 128,-1,2
 167 440 167 440 246 468 c 1,3,4
 188 490 188 490 157 540 c 128,-1,5
 126 590 126 590 138 665 c 0,6,7
 145 710 145 710 157 735 c 1,8,-1
 217 735 l 1,9,10
 216 730 216 730 210.5 706 c 128,-1,11
 205 682 205 682 202 669 c 0,12,13
 190 596 190 596 233.5 544 c 128,-1,14
 277 492 277 492 363 492 c 0,15,16
 444 492 444 492 507.5 542 c 128,-1,17
 571 592 571 592 584 669 c 0,18,19
 589 698 589 698 590 735 c 1,20,-1
 649 735 l 1,21,22
 653 711 653 711 646 665 c 0,23,24
 633 587 633 587 583 537.5 c 128,-1,25
 533 488 533 488 469 468 c 1,26,27
 541 445 541 445 579 380.5 c 128,-1,28
 617 316 617 316 604 234 c 0,29,30
 587 132 587 132 502 57 c 128,-1,31
 417 -18 417 -18 279 -18 c 0,32,33
 143 -18 143 -18 81.5 56.5 c 128,-1,34
 20 131 20 131 37 234 c 0,0,1
102 234 m 0,35,36
 88 148 88 148 140 92 c 128,-1,37
 192 36 192 36 288 36 c 0,38,39
 381 36 381 36 453 91 c 128,-1,40
 525 146 525 146 540 234 c 0,41,42
 554 318 554 318 501 378 c 128,-1,43
 448 438 448 438 354 438 c 0,44,45
 263 438 263 438 190 380 c 128,-1,46
 117 322 117 322 102 234 c 0,35,36
EndSplineSet
EndChar

StartChar: uni0223
Encoding: 547 547 485
Width: 525
GlyphClass: 2
Flags: W
LayerCount: 2
Fore
SplineSet
37 241 m 0,0,1
 53 336 53 336 105 402 c 128,-1,2
 157 468 157 468 221 485 c 1,3,4
 170 502 170 502 144.5 551 c 128,-1,5
 119 600 119 600 132 680 c 0,6,7
 140 726 140 726 151 754 c 1,8,-1
 207 754 l 1,9,10
 192 694 192 694 191 683 c 0,11,12
 179 608 179 608 206.5 558.5 c 128,-1,13
 234 509 234 509 300 509 c 0,14,15
 363 509 363 509 409 557 c 128,-1,16
 455 605 455 605 468 683 c 0,17,18
 470 697 470 697 474 754 c 1,19,-1
 531 754 l 1,20,21
 533 729 533 729 525 680 c 0,22,23
 512 602 512 602 470 551.5 c 128,-1,24
 428 501 428 501 371 485 c 1,25,26
 430 469 430 469 460.5 402.5 c 128,-1,27
 491 336 491 336 476 241 c 0,28,29
 458 133 458 133 388.5 57.5 c 128,-1,30
 319 -18 319 -18 213 -18 c 0,31,32
 108 -18 108 -18 63.5 56.5 c 128,-1,33
 19 131 19 131 37 241 c 0,0,1
95 241 m 0,34,35
 80 151 80 151 114.5 92.5 c 128,-1,36
 149 34 149 34 222 34 c 0,37,38
 292 34 292 34 347 90.5 c 128,-1,39
 402 147 402 147 417 241 c 0,40,41
 432 334 432 334 397 395.5 c 128,-1,42
 362 457 362 457 292 457 c 0,43,44
 226 457 226 457 168.5 397.5 c 128,-1,45
 111 338 111 338 95 241 c 0,34,35
EndSplineSet
EndChar

StartChar: uni0224
Encoding: 548 548 486
Width: 598
GlyphClass: 2
Flags: W
LayerCount: 2
Fore
SplineSet
0 0 m 1,0,-1
 8 47 l 1,1,-1
 531 681 l 1,2,-1
 144 681 l 1,3,-1
 153 735 l 1,4,-1
 614 735 l 1,5,-1
 606 687 l 1,6,-1
 84 54 l 1,7,-1
 403 54 l 2,8,9
 483 54 483 54 514.5 14.5 c 128,-1,10
 546 -25 546 -25 532 -112 c 0,11,12
 522 -170 522 -170 487 -235 c 1,13,-1
 430 -235 l 1,14,15
 465 -170 465 -170 474 -118 c 0,16,17
 484 -60 484 -60 463 -30 c 128,-1,18
 442 0 442 0 376 0 c 2,19,-1
 0 0 l 1,0,-1
EndSplineSet
EndChar

StartChar: uni0225
Encoding: 549 549 487
Width: 473
GlyphClass: 2
Flags: W
LayerCount: 2
Fore
SplineSet
-14 0 m 1,0,-1
 -7 42 l 1,1,-1
 366 477 l 1,2,-1
 89 477 l 1,3,-1
 98 528 l 1,4,-1
 448 528 l 1,5,-1
 442 488 l 1,6,-1
 67 51 l 1,7,-1
 323 51 l 2,8,9
 392 51 392 51 418.5 11.5 c 128,-1,10
 445 -28 445 -28 432 -109 c 0,11,12
 420 -184 420 -184 393 -235 c 1,13,-1
 340 -235 l 1,14,15
 367 -180 367 -180 378 -116 c 0,16,17
 388 -55 388 -55 370 -27.5 c 128,-1,18
 352 0 352 0 300 0 c 2,19,-1
 -14 0 l 1,0,-1
EndSplineSet
EndChar

StartChar: uni0234
Encoding: 564 564 502
Width: 389
GlyphClass: 2
Flags: W
LayerCount: 2
Fore
SplineSet
92 -118 m 1,0,1
 97 -147 97 -147 121.5 -167.5 c 128,-1,2
 146 -188 146 -188 179 -188 c 0,3,4
 212 -188 212 -188 235 -171 c 128,-1,5
 258 -154 258 -154 263 -126 c 0,6,7
 268 -96 268 -96 251 -77 c 128,-1,8
 234 -58 234 -58 202 -58 c 0,9,10
 144 -58 144 -58 92 -118 c 1,0,1
-32 -217 m 1,11,12
 5 -147 5 -147 34 -115 c 1,13,14
 25 -77 25 -77 40 9 c 2,15,-1
 165 764 l 1,16,-1
 222 764 l 1,17,-1
 98 18 l 2,18,19
 89 -38 89 -38 91 -60 c 1,20,21
 112 -38 112 -38 145 -22.5 c 128,-1,22
 178 -7 178 -7 211 -7 c 0,23,24
 273 -7 273 -7 300.5 -41.5 c 128,-1,25
 328 -76 328 -76 320 -124 c 0,26,27
 312 -175 312 -175 271 -207 c 128,-1,28
 230 -239 230 -239 173 -239 c 0,29,30
 129 -239 129 -239 99.5 -217.5 c 128,-1,31
 70 -196 70 -196 57 -165 c 1,32,33
 36 -191 36 -191 15 -233 c 1,34,-1
 -32 -217 l 1,11,12
EndSplineSet
EndChar

StartChar: uni0235
Encoding: 565 565 503
Width: 708
GlyphClass: 2
Flags: W
LayerCount: 2
Fore
SplineSet
410 -118 m 1,0,1
 415 -147 415 -147 439 -167.5 c 128,-1,2
 463 -188 463 -188 497 -188 c 256,3,4
 531 -188 531 -188 553 -170.5 c 128,-1,5
 575 -153 575 -153 579 -126 c 0,6,7
 584 -97 584 -97 568 -77.5 c 128,-1,8
 552 -58 552 -58 519 -58 c 0,9,10
 462 -58 462 -58 410 -118 c 1,0,1
30 0 m 1,11,-1
 117 525 l 1,12,-1
 174 525 l 1,13,-1
 157 426 l 1,14,-1
 158 426 l 1,15,16
 174 464 174 464 225.5 503.5 c 128,-1,17
 277 543 277 543 344 543 c 0,18,19
 411 543 411 543 449.5 497.5 c 128,-1,20
 488 452 488 452 469 340 c 2,21,-1
 416 19 l 2,22,23
 406 -39 406 -39 409 -60 c 1,24,25
 459 -7 459 -7 528 -7 c 0,26,27
 588 -7 588 -7 617 -40.5 c 128,-1,28
 646 -74 646 -74 638 -124 c 0,29,30
 630 -175 630 -175 589 -207 c 128,-1,31
 548 -239 548 -239 490 -239 c 0,32,33
 446 -239 446 -239 416.5 -217.5 c 128,-1,34
 387 -196 387 -196 374 -165 c 1,35,36
 354 -192 354 -192 331 -233 c 1,37,-1
 285 -217 l 1,38,39
 320 -151 320 -151 351 -115 c 1,40,41
 342 -78 342 -78 357 12 c 2,42,-1
 409 329 l 2,43,44
 436 492 436 492 323 492 c 0,45,46
 262 492 262 492 207 440 c 128,-1,47
 152 388 152 388 140 317 c 2,48,-1
 88 0 l 1,49,-1
 30 0 l 1,11,-1
EndSplineSet
EndChar

StartChar: uni0236
Encoding: 566 566 504
Width: 416
GlyphClass: 2
Flags: W
LayerCount: 2
Fore
SplineSet
119 -118 m 1,0,1
 124 -147 124 -147 148.5 -167.5 c 128,-1,2
 173 -188 173 -188 207 -188 c 256,3,4
 241 -188 241 -188 263 -170 c 128,-1,5
 285 -152 285 -152 290 -126 c 0,6,7
 295 -98 295 -98 279 -78 c 128,-1,8
 263 -58 263 -58 229 -58 c 0,9,10
 171 -58 171 -58 119 -118 c 1,0,1
52 474 m 1,11,-1
 61 525 l 1,12,-1
 152 525 l 1,13,-1
 181 698 l 1,14,-1
 238 698 l 1,15,-1
 209 525 l 1,16,-1
 342 525 l 1,17,-1
 334 474 l 1,18,-1
 201 474 l 1,19,-1
 125 17 l 2,20,21
 116 -39 116 -39 118 -60 c 1,22,23
 168 -7 168 -7 238 -7 c 0,24,25
 300 -7 300 -7 327.5 -41 c 128,-1,26
 355 -75 355 -75 347 -124 c 0,27,28
 339 -175 339 -175 298 -207 c 128,-1,29
 257 -239 257 -239 200 -239 c 0,30,31
 156 -239 156 -239 126.5 -217.5 c 128,-1,32
 97 -196 97 -196 84 -165 c 1,33,34
 60 -197 60 -197 42 -233 c 1,35,-1
 -5 -217 l 1,36,37
 35 -143 35 -143 60 -115 c 1,38,39
 52 -81 52 -81 67 13 c 2,40,-1
 144 474 l 1,41,-1
 52 474 l 1,11,-1
EndSplineSet
EndChar

StartChar: uni0237
Encoding: 567 567 505
Width: 255
GlyphClass: 2
Flags: W
LayerCount: 2
Fore
SplineSet
-85 -183 m 1,0,-1
 -63 -183 l 2,1,2
 26 -183 26 -183 48 -56 c 2,3,-1
 144 525 l 1,4,-1
 201 525 l 1,5,-1
 104 -60 l 2,6,7
 90 -145 90 -145 46.5 -190 c 128,-1,8
 3 -235 3 -235 -61 -235 c 2,9,-1
 -94 -235 l 1,10,-1
 -85 -183 l 1,0,-1
EndSplineSet
EndChar

StartChar: uni0238
Encoding: 568 568 506
Width: 876
GlyphClass: 2
Flags: W
LayerCount: 2
Fore
SplineSet
40 263 m 0,0,1
 62 394 62 394 133 468.5 c 128,-1,2
 204 543 204 543 294 543 c 0,3,4
 352 543 352 543 387.5 506 c 128,-1,5
 423 469 423 469 432 419 c 1,6,-1
 489 764 l 1,7,-1
 547 764 l 1,8,-1
 489 418 l 1,9,10
 509 464 509 464 559.5 503.5 c 128,-1,11
 610 543 610 543 669 543 c 0,12,13
 762 543 762 543 806.5 468.5 c 128,-1,14
 851 394 851 394 830 263 c 0,15,16
 818 190 818 190 790 134 c 128,-1,17
 762 78 762 78 726 46 c 128,-1,18
 690 14 690 14 652 -2 c 128,-1,19
 614 -18 614 -18 576 -18 c 0,20,21
 519 -18 519 -18 483 17.5 c 128,-1,22
 447 53 447 53 437 104 c 1,23,-1
 420 0 l 1,24,-1
 365 0 l 1,25,-1
 382 105 l 1,26,27
 354 52 354 52 306 17 c 128,-1,28
 258 -18 258 -18 200 -18 c 0,29,30
 163 -18 163 -18 130.5 -2.5 c 128,-1,31
 98 13 98 13 72.5 44.5 c 128,-1,32
 47 76 47 76 37.5 132.5 c 128,-1,33
 28 189 28 189 40 263 c 0,0,1
98 263 m 0,34,35
 81 158 81 158 114 95.5 c 128,-1,36
 147 33 147 33 217 33 c 0,37,38
 282 33 282 33 335 93.5 c 128,-1,39
 388 154 388 154 406 252 c 2,40,-1
 410 273 l 2,41,42
 424 370 424 370 389.5 431 c 128,-1,43
 355 492 355 492 291 492 c 0,44,45
 224 492 224 492 170 430.5 c 128,-1,46
 116 369 116 369 98 263 c 0,34,35
461 251 m 2,47,48
 447 155 447 155 479.5 94 c 128,-1,49
 512 33 512 33 577 33 c 0,50,51
 647 33 647 33 701 94.5 c 128,-1,52
 755 156 755 156 772 263 c 0,53,54
 789 368 789 368 756.5 430 c 128,-1,55
 724 492 724 492 655 492 c 0,56,57
 591 492 591 492 536.5 430.5 c 128,-1,58
 482 369 482 369 464 273 c 2,59,-1
 461 251 l 2,47,48
EndSplineSet
EndChar

StartChar: uni0239
Encoding: 569 569 507
Width: 878
GlyphClass: 2
Flags: W
LayerCount: 2
Fore
SplineSet
40 263 m 0,0,1
 61 391 61 391 131.5 467 c 128,-1,2
 202 543 202 543 294 543 c 0,3,4
 348 543 348 543 385 510 c 128,-1,5
 422 477 422 477 434 419 c 1,6,-1
 452 525 l 1,7,-1
 507 525 l 1,8,-1
 489 418 l 1,9,10
 519 473 519 473 568.5 508 c 128,-1,11
 618 543 618 543 673 543 c 0,12,13
 764 543 764 543 808.5 467 c 128,-1,14
 853 391 853 391 832 263 c 0,15,16
 809 127 809 127 737.5 54.5 c 128,-1,17
 666 -18 666 -18 579 -18 c 0,18,19
 521 -18 521 -18 484 17.5 c 128,-1,20
 447 53 447 53 437 105 c 1,21,-1
 381 -235 l 1,22,-1
 324 -235 l 1,23,-1
 380 104 l 1,24,25
 351 51 351 51 304 16.5 c 128,-1,26
 257 -18 257 -18 201 -18 c 0,27,28
 115 -18 115 -18 66.5 55 c 128,-1,29
 18 128 18 128 40 263 c 0,0,1
98 263 m 0,30,31
 80 157 80 157 113.5 95 c 128,-1,32
 147 33 147 33 215 33 c 0,33,34
 282 33 282 33 335.5 94.5 c 128,-1,35
 389 156 389 156 406 256 c 2,36,-1
 409 276 l 2,37,38
 423 371 423 371 390 431.5 c 128,-1,39
 357 492 357 492 292 492 c 0,40,41
 218 492 218 492 166.5 427.5 c 128,-1,42
 115 363 115 363 98 263 c 0,30,31
463 256 m 2,43,44
 448 154 448 154 481.5 93.5 c 128,-1,45
 515 33 515 33 581 33 c 0,46,47
 648 33 648 33 702 95 c 128,-1,48
 756 157 756 157 773 263 c 0,49,50
 790 363 790 363 760.5 427.5 c 128,-1,51
 731 492 731 492 657 492 c 0,52,53
 593 492 593 492 539 432 c 128,-1,54
 485 372 485 372 467 276 c 2,55,-1
 463 256 l 2,43,44
EndSplineSet
EndChar

StartChar: uni023A
Encoding: 570 570 508
Width: 619
GlyphClass: 2
Flags: W
LayerCount: 2
Fore
SplineSet
-49 0 m 1,0,-1
 346 735 l 1,1,-1
 424 735 l 1,2,-1
 458 567 l 1,3,-1
 613 768 l 1,4,-1
 666 768 l 1,5,-1
 469 514 l 1,6,-1
 574 0 l 1,7,-1
 506 0 l 1,8,-1
 464 222 l 1,9,-1
 243 222 l 1,10,-1
 2 -88 l 1,11,-1
 -50 -88 l 1,12,-1
 19 0 l 1,13,-1
 -49 0 l 1,0,-1
163 273 m 1,14,-1
 230 273 l 1,15,-1
 409 505 l 1,16,-1
 401 547 l 2,17,18
 390 596 390 596 378 677 c 1,19,-1
 374 677 l 1,20,21
 370 668 370 668 307 547 c 2,22,-1
 163 273 l 1,14,-1
283 273 m 1,23,-1
 454 273 l 1,24,-1
 420 450 l 1,25,-1
 283 273 l 1,23,-1
137 222 m 1,26,-1
 25 9 l 1,27,-1
 191 222 l 1,28,-1
 137 222 l 1,26,-1
EndSplineSet
EndChar

StartChar: uni023B
Encoding: 571 571 509
Width: 623
GlyphClass: 2
Flags: W
LayerCount: 2
Fore
SplineSet
64 368 m 0,0,1
 94 548 94 548 195 651 c 128,-1,2
 296 754 296 754 431 754 c 0,3,4
 490 754 490 754 534 728 c 1,5,-1
 571 795 l 1,6,-1
 619 795 l 1,7,-1
 569 702 l 1,8,9
 612 661 612 661 630 598 c 1,10,-1
 574 578 l 1,11,12
 559 620 559 620 538 645 c 1,13,-1
 223 57 l 1,14,15
 260 37 260 37 311 37 c 0,16,17
 378 37 378 37 433.5 74.5 c 128,-1,18
 489 112 489 112 523 167 c 1,19,-1
 575 148 l 1,20,21
 531 77 531 77 462.5 29.5 c 128,-1,22
 394 -18 394 -18 303 -18 c 0,23,24
 241 -18 241 -18 195 4 c 1,25,-1
 153 -73 l 1,26,-1
 105 -73 l 1,27,-1
 158 25 l 1,28,29
 95 70 95 70 69.5 158.5 c 128,-1,30
 44 247 44 247 64 368 c 0,0,1
189 81 m 1,31,-1
 506 675 l 1,32,33
 471 699 471 699 421 699 c 0,34,35
 312 699 312 699 232.5 608.5 c 128,-1,36
 153 518 153 518 128 368 c 0,37,38
 94 166 94 166 189 81 c 1,31,-1
EndSplineSet
EndChar

StartChar: uni023C
Encoding: 572 572 510
Width: 473
GlyphClass: 2
Flags: W
LayerCount: 2
Fore
SplineSet
40 263 m 0,0,1
 60 385 60 385 131 464 c 128,-1,2
 202 543 202 543 307 543 c 0,3,4
 350 543 350 543 380 526 c 1,5,-1
 415 598 l 1,6,-1
 459 598 l 1,7,-1
 412 503 l 1,8,9
 450 471 450 471 458 414 c 1,10,-1
 406 398 l 1,11,12
 397 430 397 430 385 448 c 1,13,-1
 182 39 l 1,14,15
 199 33 199 33 222 33 c 0,16,17
 269 33 269 33 309.5 63.5 c 128,-1,18
 350 94 350 94 375 134 c 1,19,-1
 422 117 l 1,20,21
 391 63 391 63 336 22.5 c 128,-1,22
 281 -18 281 -18 213 -18 c 0,23,24
 181 -18 181 -18 157 -11 c 1,25,-1
 129 -69 l 1,26,-1
 85 -69 l 1,27,-1
 121 5 l 1,28,29
 68 36 68 36 46.5 105 c 128,-1,30
 25 174 25 174 40 263 c 0,0,1
148 59 m 1,31,-1
 355 475 l 1,32,33
 331 492 331 492 298 492 c 0,34,35
 225 492 225 492 170 427.5 c 128,-1,36
 115 363 115 363 98 263 c 0,37,38
 86 192 86 192 99.5 138 c 128,-1,39
 113 84 113 84 148 59 c 1,31,-1
EndSplineSet
EndChar

StartChar: uni023D
Encoding: 573 573 511
Width: 525
GlyphClass: 2
Flags: W
LayerCount: 2
Fore
SplineSet
36 394 m 1,0,-1
 44 444 l 1,1,-1
 133 444 l 1,2,-1
 181 735 l 1,3,-1
 243 735 l 1,4,-1
 195 444 l 1,5,-1
 401 444 l 1,6,-1
 392 394 l 1,7,-1
 186 394 l 1,8,-1
 130 54 l 1,9,-1
 479 54 l 1,10,-1
 470 0 l 1,11,-1
 59 0 l 1,12,-1
 125 394 l 1,13,-1
 36 394 l 1,0,-1
EndSplineSet
EndChar

StartChar: uni023E
Encoding: 574 574 512
Width: 534
GlyphClass: 2
Flags: W
LayerCount: 2
Fore
SplineSet
364 681 m 1,0,-1
 325 450 l 1,1,-1
 488 681 l 1,2,-1
 364 681 l 1,0,-1
79 681 m 1,3,-1
 88 735 l 1,4,-1
 526 735 l 1,5,-1
 569 795 l 1,6,-1
 617 795 l 1,7,-1
 574 735 l 1,8,-1
 596 735 l 1,9,-1
 587 681 l 1,10,-1
 536 681 l 1,11,-1
 310 360 l 1,12,-1
 251 0 l 1,13,-1
 189 0 l 1,14,-1
 230 245 l 1,15,-1
 32 -35 l 1,16,-1
 -17 -35 l 1,17,-1
 245 336 l 1,18,-1
 302 681 l 1,19,-1
 79 681 l 1,3,-1
EndSplineSet
EndChar

StartChar: uni023F
Encoding: 575 575 513
Width: 461
GlyphClass: 2
Flags: W
LayerCount: 2
Fore
SplineSet
6 98 m 1,0,-1
 54 125 l 1,1,2
 94 33 94 33 193 33 c 0,3,4
 255 33 255 33 294.5 58.5 c 128,-1,5
 334 84 334 84 341 127 c 0,6,7
 344 146 344 146 338 162 c 128,-1,8
 332 178 332 178 323 188 c 128,-1,9
 314 198 314 198 292.5 209 c 128,-1,10
 271 220 271 220 258.5 224.5 c 128,-1,11
 246 229 246 229 219 239 c 0,12,13
 207 243 207 243 202 245 c 0,14,15
 133 269 133 269 96 303 c 128,-1,16
 59 337 59 337 70 399 c 0,17,18
 81 466 81 466 138.5 504.5 c 128,-1,19
 196 543 196 543 276 543 c 0,20,21
 336 543 336 543 379.5 511.5 c 128,-1,22
 423 480 423 480 439 433 c 1,23,-1
 395 406 l 1,24,25
 379 445 379 445 346 468.5 c 128,-1,26
 313 492 313 492 269 492 c 0,27,28
 208 492 208 492 171 466 c 128,-1,29
 134 440 134 440 127 398 c 0,30,31
 119 352 119 352 153 326 c 128,-1,32
 187 300 187 300 247 282 c 0,33,34
 282 271 282 271 307.5 259.5 c 128,-1,35
 333 248 333 248 358.5 230 c 128,-1,36
 384 212 384 212 394.5 186 c 128,-1,37
 405 160 405 160 400 127 c 0,38,39
 390 66 390 66 332.5 24 c 128,-1,40
 275 -18 275 -18 184 -18 c 0,41,42
 120 -18 120 -18 79 10 c 1,43,44
 88 -98 88 -98 101 -132 c 0,45,46
 124 -194 124 -194 188 -194 c 0,47,48
 212 -194 212 -194 230 -191 c 1,49,-1
 223 -235 l 1,50,51
 198 -239 198 -239 178 -239 c 0,52,53
 154 -239 154 -239 135 -234.5 c 128,-1,54
 116 -230 116 -230 102.5 -218 c 128,-1,55
 89 -206 89 -206 79 -196 c 128,-1,56
 69 -186 69 -186 61 -164 c 128,-1,57
 53 -142 53 -142 49 -129 c 128,-1,58
 45 -116 45 -116 41.5 -86.5 c 128,-1,59
 38 -57 38 -57 36.5 -44.5 c 128,-1,60
 35 -32 35 -32 32 1 c 0,61,62
 28 60 28 60 6 98 c 1,0,-1
EndSplineSet
EndChar

StartChar: uni0240
Encoding: 576 576 514
Width: 449
GlyphClass: 2
Flags: W
LayerCount: 2
Fore
SplineSet
-14 0 m 1,0,-1
 -7 42 l 1,1,-1
 365 474 l 1,2,-1
 89 474 l 1,3,-1
 97 525 l 1,4,-1
 448 525 l 1,5,-1
 441 485 l 1,6,-1
 59 42 l 1,7,8
 97 39 97 39 126 14 c 128,-1,9
 155 -11 155 -11 173 -44 c 128,-1,10
 191 -77 191 -77 207.5 -109.5 c 128,-1,11
 224 -142 224 -142 246.5 -164.5 c 128,-1,12
 269 -187 269 -187 299 -187 c 0,13,14
 326 -187 326 -187 342 -184 c 1,15,-1
 334 -234 l 1,16,17
 311 -239 311 -239 286 -239 c 0,18,19
 248 -239 248 -239 219.5 -215 c 128,-1,20
 191 -191 191 -191 172.5 -156.5 c 128,-1,21
 154 -122 154 -122 135.5 -87 c 128,-1,22
 117 -52 117 -52 89 -27 c 128,-1,23
 61 -2 61 -2 26 0 c 2,24,-1
 -14 0 l 1,0,-1
EndSplineSet
EndChar

StartChar: uni0241
Encoding: 577 577 515
Width: 534
GlyphClass: 2
Flags: W
LayerCount: 2
Fore
SplineSet
112 599 m 1,0,1
 151 672 151 672 213.5 713 c 128,-1,2
 276 754 276 754 347 754 c 0,3,4
 437 754 437 754 481.5 699.5 c 128,-1,5
 526 645 526 645 511 557 c 0,6,7
 504 512 504 512 479.5 475.5 c 128,-1,8
 455 439 455 439 425 413 c 128,-1,9
 395 387 395 387 364.5 361.5 c 128,-1,10
 334 336 334 336 310 300.5 c 128,-1,11
 286 265 286 265 279 221 c 2,12,-1
 242 0 l 1,13,-1
 180 0 l 1,14,-1
 217 226 l 2,15,16
 225 274 225 274 249.5 313 c 128,-1,17
 274 352 274 352 304.5 378 c 128,-1,18
 335 404 335 404 364.5 428.5 c 128,-1,19
 394 453 394 453 417.5 486 c 128,-1,20
 441 519 441 519 447 558 c 0,21,22
 458 622 458 622 429 661 c 128,-1,23
 400 700 400 700 339 700 c 0,24,25
 285 700 285 700 240 667 c 128,-1,26
 195 634 195 634 164 581 c 1,27,-1
 112 599 l 1,0,1
EndSplineSet
EndChar

StartChar: uni0250
Encoding: 592 592 516
Width: 521
GlyphClass: 2
Flags: W
LayerCount: 2
Fore
SplineSet
121 237 m 1,0,1
 160 250 160 250 269 267 c 0,2,3
 350 280 350 280 391.5 311.5 c 128,-1,4
 433 343 433 343 441 395 c 0,5,6
 448 435 448 435 420.5 463.5 c 128,-1,7
 393 492 393 492 336 492 c 0,8,9
 265 492 265 492 206.5 443.5 c 128,-1,10
 148 395 148 395 135 320 c 2,11,-1
 121 237 l 1,0,1
55 182 m 2,12,-1
 112 525 l 1,13,-1
 168 525 l 1,14,-1
 152 430 l 1,15,16
 176 476 176 476 231 509.5 c 128,-1,17
 286 543 286 543 351 543 c 0,18,19
 431 543 431 543 471 503.5 c 128,-1,20
 511 464 511 464 500 399 c 0,21,22
 488 327 488 327 430.5 282.5 c 128,-1,23
 373 238 373 238 260 220 c 0,24,25
 162 205 162 205 112 188 c 0,26,27
 111 184 111 184 110 173 c 128,-1,28
 109 162 109 162 108 158 c 0,29,30
 99 103 99 103 130.5 67.5 c 128,-1,31
 162 32 162 32 227 32 c 0,32,33
 321 32 321 32 399 116 c 1,34,-1
 432 83 l 1,35,36
 391 38 391 38 334 10 c 128,-1,37
 277 -18 277 -18 219 -18 c 0,38,39
 120 -18 120 -18 79.5 34.5 c 128,-1,40
 39 87 39 87 55 182 c 2,12,-1
EndSplineSet
EndChar

StartChar: uni0251
Encoding: 593 593 517
Width: 543
GlyphClass: 2
Flags: W
LayerCount: 2
Fore
SplineSet
98 263 m 0,0,1
 80 157 80 157 114.5 95 c 128,-1,2
 149 33 149 33 217 33 c 0,3,4
 279 33 279 33 334.5 93 c 128,-1,5
 390 153 390 153 408 262 c 0,6,7
 425 367 425 367 390 429.5 c 128,-1,8
 355 492 355 492 291 492 c 0,9,10
 222 492 222 492 168.5 430 c 128,-1,11
 115 368 115 368 98 263 c 0,0,1
40 263 m 0,12,13
 61 392 61 392 132 467.5 c 128,-1,14
 203 543 203 543 294 543 c 0,15,16
 353 543 353 543 390.5 503.5 c 128,-1,17
 428 464 428 464 432 420 c 1,18,-1
 450 525 l 1,19,-1
 507 525 l 1,20,-1
 420 0 l 1,21,-1
 364 0 l 1,22,-1
 381 104 l 1,23,24
 354 53 354 53 305.5 17.5 c 128,-1,25
 257 -18 257 -18 201 -18 c 0,26,27
 118 -18 118 -18 67.5 52.5 c 128,-1,28
 17 123 17 123 40 263 c 0,12,13
EndSplineSet
EndChar

StartChar: uni0252
Encoding: 594 594 518
Width: 544
GlyphClass: 2
Flags: W
LayerCount: 2
Fore
SplineSet
30 0 m 1,0,-1
 117 525 l 1,1,-1
 175 525 l 1,2,-1
 157 419 l 1,3,4
 176 464 176 464 226 503.5 c 128,-1,5
 276 543 276 543 337 543 c 0,6,7
 430 543 430 543 474.5 467.5 c 128,-1,8
 519 392 519 392 497 263 c 0,9,10
 474 123 474 123 400.5 52.5 c 128,-1,11
 327 -18 327 -18 244 -18 c 0,12,13
 187 -18 187 -18 150.5 17.5 c 128,-1,14
 114 53 114 53 104 103 c 1,15,-1
 87 0 l 1,16,-1
 30 0 l 1,0,-1
129 262 m 256,17,18
 112 157 112 157 146.5 95 c 128,-1,19
 181 33 181 33 245 33 c 0,20,21
 314 33 314 33 368 95 c 128,-1,22
 422 157 422 157 440 263 c 0,23,24
 457 368 457 368 424 430 c 128,-1,25
 391 492 391 492 322 492 c 0,26,27
 258 492 258 492 202 429.5 c 128,-1,28
 146 367 146 367 129 262 c 256,17,18
EndSplineSet
EndChar

StartChar: uni0253
Encoding: 595 595 519
Width: 547
GlyphClass: 2
Flags: W
LayerCount: 2
Fore
SplineSet
133 262 m 0,0,1
 116 158 116 158 149 95.5 c 128,-1,2
 182 33 182 33 248 33 c 0,3,4
 318 33 318 33 371.5 95.5 c 128,-1,5
 425 158 425 158 443 263 c 0,6,7
 460 366 460 366 428 429 c 128,-1,8
 396 492 396 492 325 492 c 0,9,10
 259 492 259 492 204.5 428.5 c 128,-1,11
 150 365 150 365 133 262 c 0,0,1
34 0 m 1,12,-1
 122 532 l 2,13,14
 141 644 141 644 196.5 707 c 128,-1,15
 252 770 252 770 341 770 c 0,16,17
 391 770 391 770 451 753 c 1,18,-1
 439 701 l 1,19,20
 375 716 375 716 339 716 c 0,21,22
 210 716 210 716 178 523 c 2,23,-1
 161 418 l 1,24,25
 187 469 187 469 234.5 506 c 128,-1,26
 282 543 282 543 341 543 c 0,27,28
 436 543 436 543 479 466.5 c 128,-1,29
 522 390 522 390 501 263 c 0,30,31
 479 129 479 129 407 55.5 c 128,-1,32
 335 -18 335 -18 247 -18 c 0,33,34
 187 -18 187 -18 152.5 18.5 c 128,-1,35
 118 55 118 55 108 104 c 1,36,-1
 90 0 l 1,37,-1
 34 0 l 1,12,-1
EndSplineSet
EndChar

StartChar: uni0254
Encoding: 596 596 520
Width: 473
GlyphClass: 2
Flags: W
LayerCount: 2
Fore
SplineSet
-3 117 m 1,0,-1
 49 134 l 1,1,2
 59 93 59 93 92 63 c 128,-1,3
 125 33 125 33 170 33 c 0,4,5
 240 33 240 33 295.5 95.5 c 128,-1,6
 351 158 351 158 369 262 c 0,7,8
 386 362 386 362 352.5 427 c 128,-1,9
 319 492 319 492 246 492 c 0,10,11
 203 492 203 492 165.5 465 c 128,-1,12
 128 438 128 438 106 398 c 1,13,-1
 59 414 l 1,14,15
 85 468 85 468 137.5 505.5 c 128,-1,16
 190 543 190 543 255 543 c 0,17,18
 357 543 357 543 402 464.5 c 128,-1,19
 447 386 447 386 427 262 c 0,20,21
 406 133 406 133 333 57.5 c 128,-1,22
 260 -18 260 -18 161 -18 c 0,23,24
 96 -18 96 -18 52.5 21.5 c 128,-1,25
 9 61 9 61 -3 117 c 1,0,-1
EndSplineSet
EndChar

StartChar: uni0255
Encoding: 597 597 521
Width: 472
GlyphClass: 2
Flags: W
LayerCount: 2
Fore
SplineSet
176 45 m 1,0,1
 207 33 207 33 250 33 c 0,2,3
 292 33 292 33 321.5 51 c 128,-1,4
 351 69 351 69 355 94 c 0,5,6
 358 114 358 114 345.5 127 c 128,-1,7
 333 140 333 140 306 140 c 0,8,9
 267 140 267 140 232 111.5 c 128,-1,10
 197 83 197 83 176 45 c 1,0,1
41 266 m 0,11,12
 61 385 61 385 131.5 464 c 128,-1,13
 202 543 202 543 307 543 c 0,14,15
 371 543 371 543 409.5 504.5 c 128,-1,16
 448 466 448 466 457 414 c 1,17,-1
 405 398 l 1,18,19
 398 435 398 435 369.5 463.5 c 128,-1,20
 341 492 341 492 299 492 c 0,21,22
 224 492 224 492 169.5 427.5 c 128,-1,23
 115 363 115 363 98 263 c 0,24,25
 77 135 77 135 135 74 c 1,26,27
 212 191 212 191 316 191 c 0,28,29
 369 191 369 191 394 162 c 128,-1,30
 419 133 419 133 412 94 c 0,31,32
 404 46 404 46 356 14 c 128,-1,33
 308 -18 308 -18 238 -18 c 0,34,35
 181 -18 181 -18 147 -4 c 1,36,37
 128 -38 128 -38 119 -65 c 1,38,-1
 70 -52 l 1,39,40
 81 -20 81 -20 104 20 c 1,41,42
 12 93 12 93 41 266 c 0,11,12
EndSplineSet
EndChar

StartChar: uni0256
Encoding: 598 598 522
Width: 555
GlyphClass: 2
Flags: W
LayerCount: 2
Fore
SplineSet
40 263 m 0,0,1
 62 394 62 394 133 468.5 c 128,-1,2
 204 543 204 543 294 543 c 0,3,4
 352 543 352 543 387.5 506 c 128,-1,5
 423 469 423 469 432 419 c 1,6,-1
 489 764 l 1,7,-1
 547 764 l 1,8,-1
 414 -38 l 2,9,10
 401 -118 401 -118 417.5 -152 c 128,-1,11
 434 -186 434 -186 480 -186 c 0,12,13
 511 -186 511 -186 540 -180 c 1,14,-1
 532 -233 l 1,15,16
 493 -239 493 -239 463 -239 c 0,17,18
 398 -239 398 -239 368.5 -195.5 c 128,-1,19
 339 -152 339 -152 358 -42 c 2,20,-1
 382 105 l 1,21,22
 354 52 354 52 306 17 c 128,-1,23
 258 -18 258 -18 200 -18 c 0,24,25
 117 -18 117 -18 67 52.5 c 128,-1,26
 17 123 17 123 40 263 c 0,0,1
98 263 m 0,27,28
 81 159 81 159 114 96 c 128,-1,29
 147 33 147 33 217 33 c 0,30,31
 281 33 281 33 336 95 c 128,-1,32
 391 157 391 157 408 263 c 0,33,34
 425 368 425 368 390 430 c 128,-1,35
 355 492 355 492 291 492 c 0,36,37
 224 492 224 492 169.5 430 c 128,-1,38
 115 368 115 368 98 263 c 0,27,28
EndSplineSet
EndChar

StartChar: uni0257
Encoding: 599 599 523
Width: 555
GlyphClass: 2
Flags: W
LayerCount: 2
Fore
SplineSet
40 264 m 0,0,1
 62 395 62 395 133 469 c 128,-1,2
 204 543 204 543 294 543 c 0,3,4
 352 543 352 543 388 505.5 c 128,-1,5
 424 468 424 468 432 418 c 1,6,-1
 466 625 l 2,7,8
 478 696 478 696 526 732.5 c 128,-1,9
 574 769 574 769 643 769 c 0,10,11
 677 769 677 769 705 766 c 1,12,-1
 696 712 l 1,13,14
 675 715 675 715 643 715 c 0,15,16
 595 715 595 715 562.5 688.5 c 128,-1,17
 530 662 530 662 521 611 c 2,18,-1
 420 0 l 1,19,-1
 365 0 l 1,20,-1
 382 106 l 1,21,22
 355 54 355 54 306.5 18 c 128,-1,23
 258 -18 258 -18 200 -18 c 0,24,25
 117 -18 117 -18 67 53.5 c 128,-1,26
 17 125 17 125 40 264 c 0,0,1
99 264 m 256,27,28
 82 159 82 159 114.5 96 c 128,-1,29
 147 33 147 33 217 33 c 0,30,31
 281 33 281 33 335.5 94.5 c 128,-1,32
 390 156 390 156 408 264 c 0,33,34
 425 369 425 369 390 430.5 c 128,-1,35
 355 492 355 492 291 492 c 0,36,37
 223 492 223 492 169.5 430.5 c 128,-1,38
 116 369 116 369 99 264 c 256,27,28
EndSplineSet
EndChar

StartChar: uni0258
Encoding: 600 600 524
Width: 522
GlyphClass: 2
Flags: W
LayerCount: 2
Fore
SplineSet
100 290 m 1,0,-1
 422 290 l 1,1,2
 432 372 432 372 399 432 c 128,-1,3
 366 492 366 492 292 492 c 0,4,5
 220 492 220 492 167.5 433 c 128,-1,6
 115 374 115 374 100 290 c 1,0,-1
35 243 m 1,7,-1
 41 279 l 2,8,9
 60 394 60 394 131 468.5 c 128,-1,10
 202 543 202 543 301 543 c 0,11,12
 400 543 400 543 448.5 466.5 c 128,-1,13
 497 390 497 390 477 266 c 0,14,15
 456 137 456 137 381 59.5 c 128,-1,16
 306 -18 306 -18 204 -18 c 0,17,18
 129 -18 129 -18 84.5 18 c 128,-1,19
 40 54 40 54 24 109 c 1,20,-1
 77 127 l 1,21,22
 91 85 91 85 126 59 c 128,-1,23
 161 33 161 33 213 33 c 0,24,25
 290 33 290 33 344.5 94 c 128,-1,26
 399 155 399 155 414 243 c 1,27,-1
 35 243 l 1,7,-1
EndSplineSet
EndChar

StartChar: uni025A
Encoding: 602 602 526
Width: 601
GlyphClass: 2
Flags: W
LayerCount: 2
Fore
SplineSet
31 224 m 1,0,-1
 415 393 l 1,1,2
 385 492 385 492 286 492 c 0,3,4
 236 492 236 492 192 465.5 c 128,-1,5
 148 439 148 439 122 398 c 1,6,-1
 75 415 l 1,7,8
 110 474 110 474 166.5 508.5 c 128,-1,9
 223 543 223 543 295 543 c 0,10,11
 429 543 429 543 467 417 c 1,12,-1
 544 457 l 1,13,14
 557 391 557 391 614 391 c 0,15,16
 634 391 634 391 646 394 c 1,17,-1
 638 345 l 1,18,19
 616 341 616 341 603 341 c 0,20,21
 571 341 571 341 548.5 355.5 c 128,-1,22
 526 370 526 370 519 390 c 1,23,-1
 477 368 l 1,24,25
 484 323 484 323 474 261 c 0,26,27
 454 141 454 141 381.5 61.5 c 128,-1,28
 309 -18 309 -18 204 -18 c 0,29,30
 110 -18 110 -18 65 51.5 c 128,-1,31
 20 121 20 121 31 224 c 1,0,-1
88 198 m 1,32,33
 86 120 86 120 120.5 76.5 c 128,-1,34
 155 33 155 33 213 33 c 0,35,36
 289 33 289 33 344 96.5 c 128,-1,37
 399 160 399 160 414 256 c 0,38,39
 422 307 422 307 422 343 c 1,40,-1
 88 198 l 1,32,33
EndSplineSet
EndChar

StartChar: uni025B
Encoding: 603 603 527
Width: 436
GlyphClass: 2
Flags: W
LayerCount: 2
Fore
SplineSet
20 138 m 0,0,1
 29 194 29 194 68 229.5 c 128,-1,2
 107 265 107 265 155 278 c 1,3,-1
 155 279 l 1,4,5
 118 292 118 292 96.5 323 c 128,-1,6
 75 354 75 354 83 401 c 0,7,8
 93 463 93 463 143.5 503 c 128,-1,9
 194 543 194 543 274 543 c 0,10,11
 381 543 381 543 423 445 c 1,12,-1
 372 422 l 1,13,14
 340 492 340 492 267 492 c 0,15,16
 212 492 212 492 180 466 c 128,-1,17
 148 440 148 440 141 398 c 0,18,19
 134 355 134 355 162 327.5 c 128,-1,20
 190 300 190 300 258 300 c 2,21,-1
 292 300 l 1,22,-1
 284 254 l 1,23,-1
 251 254 l 2,24,25
 171 254 171 254 128.5 220 c 128,-1,26
 86 186 86 186 78 139 c 0,27,28
 70 91 70 91 102 62 c 128,-1,29
 134 33 134 33 193 33 c 0,30,31
 234 33 234 33 274.5 55 c 128,-1,32
 315 77 315 77 338 106 c 1,33,-1
 379 82 l 1,34,35
 344 37 344 37 292 9.5 c 128,-1,36
 240 -18 240 -18 184 -18 c 0,37,38
 99 -18 99 -18 53.5 23.5 c 128,-1,39
 8 65 8 65 20 138 c 0,0,1
EndSplineSet
EndChar

StartChar: uni025C
Encoding: 604 604 528
Width: 437
GlyphClass: 2
Flags: W
LayerCount: 2
Fore
SplineSet
-9 82 m 1,0,-1
 40 106 l 1,1,2
 54 77 54 77 87 55 c 128,-1,3
 120 33 120 33 161 33 c 0,4,5
 220 33 220 33 262 62 c 128,-1,6
 304 91 304 91 312 139 c 0,7,8
 320 186 320 186 288.5 220 c 128,-1,9
 257 254 257 254 177 254 c 2,10,-1
 142 254 l 1,11,-1
 150 300 l 1,12,-1
 185 300 l 2,13,14
 253 300 253 300 290.5 327.5 c 128,-1,15
 328 355 328 355 335 398 c 0,16,17
 342 440 342 440 318.5 466 c 128,-1,18
 295 492 295 492 240 492 c 0,19,20
 167 492 167 492 111 422 c 1,21,-1
 68 445 l 1,22,23
 142 543 142 543 249 543 c 0,24,25
 330 543 330 543 367 503 c 128,-1,26
 404 463 404 463 394 401 c 0,27,28
 386 354 386 354 354.5 323 c 128,-1,29
 323 292 323 292 280 279 c 1,30,-1
 281 278 l 1,31,32
 325 265 325 265 352 229.5 c 128,-1,33
 379 194 379 194 370 138 c 0,34,35
 358 65 358 65 298.5 23.5 c 128,-1,36
 239 -18 239 -18 154 -18 c 0,37,38
 98 -18 98 -18 54.5 9.5 c 128,-1,39
 11 37 11 37 -9 82 c 1,0,-1
EndSplineSet
EndChar

StartChar: uni025D
Encoding: 605 605 529
Width: 486
GlyphClass: 2
Flags: W
LayerCount: 2
Fore
SplineSet
-9 82 m 1,0,-1
 40 106 l 1,1,2
 52 80 52 80 86 56.5 c 128,-1,3
 120 33 120 33 159 33 c 0,4,5
 224 33 224 33 264 63 c 128,-1,6
 304 93 304 93 312 140 c 256,7,8
 320 187 320 187 288 220.5 c 128,-1,9
 256 254 256 254 177 254 c 2,10,-1
 142 254 l 1,11,-1
 150 300 l 1,12,-1
 185 300 l 2,13,14
 253 300 253 300 290.5 327.5 c 128,-1,15
 328 355 328 355 335 398 c 256,16,17
 342 441 342 441 318 466.5 c 128,-1,18
 294 492 294 492 240 492 c 0,19,20
 166 492 166 492 111 422 c 1,21,-1
 68 445 l 1,22,23
 141 543 141 543 249 543 c 0,24,25
 364 543 364 543 390 463 c 1,26,-1
 464 501 l 1,27,28
 470 470 470 470 489.5 449 c 128,-1,29
 509 428 509 428 538 428 c 0,30,31
 556 428 556 428 568 431 c 1,32,-1
 560 382 l 1,33,34
 538 378 538 378 526 378 c 0,35,36
 492 378 492 378 468.5 395 c 128,-1,37
 445 412 445 412 438 434 c 1,38,-1
 395 412 l 1,39,40
 395 406 395 406 394 400 c 256,41,42
 393 394 393 394 391 387 c 0,43,44
 381 347 381 347 349.5 318.5 c 128,-1,45
 318 290 318 290 281 279 c 1,46,-1
 281 278 l 1,47,48
 325 265 325 265 352 229.5 c 128,-1,49
 379 194 379 194 370 139 c 0,50,51
 358 65 358 65 299 23.5 c 128,-1,52
 240 -18 240 -18 151 -18 c 0,53,54
 95 -18 95 -18 52 11 c 128,-1,55
 9 40 9 40 -9 82 c 1,0,-1
EndSplineSet
EndChar

StartChar: uni025E
Encoding: 606 606 530
Width: 520
GlyphClass: 2
Flags: W
LayerCount: 2
Fore
SplineSet
41 265 m 0,0,1
 62 393 62 393 135.5 468 c 128,-1,2
 209 543 209 543 314 543 c 0,3,4
 397 543 397 543 441.5 503.5 c 128,-1,5
 486 464 486 464 474 396 c 0,6,7
 466 348 466 348 436.5 315.5 c 128,-1,8
 407 283 407 283 370 271 c 1,9,-1
 369 270 l 1,10,11
 411 259 411 259 436 224.5 c 128,-1,12
 461 190 461 190 452 136 c 0,13,14
 440 62 440 62 379 22 c 128,-1,15
 318 -18 318 -18 224 -18 c 0,16,17
 125 -18 125 -18 71.5 54.5 c 128,-1,18
 18 127 18 127 41 265 c 0,0,1
99 265 m 0,19,20
 88 201 88 201 97 153.5 c 128,-1,21
 106 106 106 106 128.5 81 c 128,-1,22
 151 56 151 56 177 44.5 c 128,-1,23
 203 33 203 33 232 33 c 0,24,25
 303 33 303 33 344.5 60.5 c 128,-1,26
 386 88 386 88 393 134 c 0,27,28
 400 177 400 177 372 210 c 128,-1,29
 344 243 344 243 267 243 c 2,30,-1
 235 243 l 1,31,-1
 243 292 l 1,32,-1
 275 292 l 2,33,34
 341 292 341 292 375 321.5 c 128,-1,35
 409 351 409 351 416 391 c 0,36,37
 424 439 424 439 394.5 465.5 c 128,-1,38
 365 492 365 492 306 492 c 0,39,40
 234 492 234 492 175.5 434 c 128,-1,41
 117 376 117 376 99 265 c 0,19,20
EndSplineSet
EndChar

StartChar: uni025F
Encoding: 607 607 531
Width: 263
GlyphClass: 2
Flags: W
LayerCount: 2
Fore
SplineSet
-8 275 m 1,0,-1
 0 325 l 1,1,-1
 113 325 l 1,2,-1
 146 525 l 1,3,-1
 203 525 l 1,4,-1
 170 325 l 1,5,-1
 272 325 l 1,6,-1
 263 275 l 1,7,-1
 162 275 l 1,8,-1
 106 -59 l 2,9,10
 92 -144 92 -144 49 -188.5 c 128,-1,11
 6 -233 6 -233 -59 -233 c 2,12,-1
 -92 -233 l 1,13,-1
 -83 -182 l 1,14,-1
 -61 -182 l 2,15,16
 28 -182 28 -182 50 -55 c 2,17,-1
 104 275 l 1,18,-1
 -8 275 l 1,0,-1
EndSplineSet
EndChar

StartChar: uni0260
Encoding: 608 608 532
Width: 545
GlyphClass: 2
Flags: W
LayerCount: 2
Fore
SplineSet
42 273 m 256,0,1
 62 394 62 394 130 468.5 c 128,-1,2
 198 543 198 543 290 543 c 0,3,4
 350 543 350 543 382.5 508 c 128,-1,5
 415 473 415 473 426 427 c 1,6,-1
 458 623 l 2,7,8
 469 692 469 692 519 731 c 128,-1,9
 569 770 569 770 635 770 c 0,10,11
 660 770 660 770 695 766 c 1,12,-1
 687 714 l 1,13,14
 673 716 673 716 636 716 c 0,15,16
 590 716 590 716 555.5 688.5 c 128,-1,17
 521 661 521 661 512 609 c 2,18,-1
 420 54 l 2,19,20
 409 -12 409 -12 392 -61.5 c 128,-1,21
 375 -111 375 -111 346.5 -153 c 128,-1,22
 318 -195 318 -195 272.5 -217 c 128,-1,23
 227 -239 227 -239 166 -239 c 0,24,25
 49 -239 49 -239 1 -147 c 1,26,-1
 47 -118 l 1,27,28
 97 -189 97 -189 177 -189 c 0,29,30
 323 -189 323 -189 360 34 c 2,31,-1
 374 114 l 1,32,33
 347 64 347 64 303.5 32.5 c 128,-1,34
 260 1 260 1 203 1 c 0,35,36
 111 1 111 1 66.5 76.5 c 128,-1,37
 22 152 22 152 42 273 c 256,0,1
100 272 m 0,38,39
 83 171 83 171 116 111.5 c 128,-1,40
 149 52 149 52 215 52 c 0,41,42
 284 52 284 52 333.5 111 c 128,-1,43
 383 170 383 170 401 274 c 0,44,45
 417 372 417 372 385.5 432 c 128,-1,46
 354 492 354 492 287 492 c 0,47,48
 220 492 220 492 168 431 c 128,-1,49
 116 370 116 370 100 272 c 0,38,39
EndSplineSet
EndChar

StartChar: uni0262
Encoding: 610 610 534
Width: 546
GlyphClass: 2
Flags: W
LayerCount: 2
Fore
SplineSet
40 262 m 0,0,1
 61 389 61 389 137.5 466 c 128,-1,2
 214 543 214 543 325 543 c 0,3,4
 445 543 445 543 491 430 c 1,5,-1
 439 408 l 1,6,7
 399 491 399 491 317 491 c 0,8,9
 234 491 234 491 175 428.5 c 128,-1,10
 116 366 116 366 98 262 c 0,11,12
 81 157 81 157 119 95.5 c 128,-1,13
 157 34 157 34 239 34 c 0,14,15
 310 34 310 34 358.5 80.5 c 128,-1,16
 407 127 407 127 417 191 c 2,17,-1
 424 231 l 1,18,-1
 262 231 l 1,19,-1
 271 281 l 1,20,-1
 487 281 l 1,21,-1
 440 0 l 1,22,-1
 394 0 l 1,23,-1
 405 78 l 1,24,25
 382 39 382 39 336 10.5 c 128,-1,26
 290 -18 290 -18 228 -18 c 0,27,28
 122 -18 122 -18 70 57 c 128,-1,29
 18 132 18 132 40 262 c 0,0,1
EndSplineSet
EndChar

StartChar: uni0263
Encoding: 611 611 535
Width: 462
GlyphClass: 2
Flags: W
LayerCount: 2
Fore
SplineSet
50 525 m 1,0,-1
 114 525 l 1,1,-1
 195 127 l 1,2,-1
 200 96 l 1,3,-1
 201 96 l 1,4,-1
 429 525 l 1,5,-1
 493 525 l 1,6,-1
 232 52 l 1,7,8
 291 -43 291 -43 280 -112 c 0,9,10
 271 -168 271 -168 233 -203.5 c 128,-1,11
 195 -239 195 -239 145 -239 c 0,12,13
 97 -239 97 -239 70.5 -204.5 c 128,-1,14
 44 -170 44 -170 54 -112 c 0,15,16
 61 -71 61 -71 85 -34.5 c 128,-1,17
 109 2 109 2 154 51 c 1,18,-1
 50 525 l 1,0,-1
102 -113 m 0,19,20
 96 -147 96 -147 110 -171 c 128,-1,21
 124 -195 124 -195 153 -195 c 0,22,23
 182 -195 182 -195 203.5 -171 c 128,-1,24
 225 -147 225 -147 231 -113 c 0,25,26
 237 -78 237 -78 225.5 -46.5 c 128,-1,27
 214 -15 214 -15 189 25 c 1,28,29
 112 -50 112 -50 102 -113 c 0,19,20
EndSplineSet
Substitution2: "'sups' Superscript lookup 5 subtable" uni02E0
Substitution2: "'aalt' Access All Alternates lookup 0 subtable" uni02E0
EndChar

StartChar: uni0264
Encoding: 612 612 536
Width: 449
GlyphClass: 2
Flags: W
LayerCount: 2
Fore
SplineSet
237 355 m 1,0,1
 187 302 187 302 157 255 c 128,-1,2
 127 208 127 208 117 147 c 0,3,4
 109 97 109 97 127 65.5 c 128,-1,5
 145 34 145 34 186 34 c 0,6,7
 225 34 225 34 253 67 c 128,-1,8
 281 100 281 100 289 147 c 0,9,10
 299 207 299 207 285.5 253.5 c 128,-1,11
 272 300 272 300 237 355 c 1,0,1
65 487 m 1,12,-1
 74 538 l 1,13,14
 97 543 97 543 116 543 c 0,15,16
 161 543 161 543 191 518 c 128,-1,17
 221 493 221 493 251 442 c 1,18,19
 298 492 298 492 337 517.5 c 128,-1,20
 376 543 376 543 419 543 c 0,21,22
 435 543 435 543 461 538 c 1,23,-1
 453 486 l 1,24,25
 432 491 432 491 413 491 c 0,26,27
 380 491 380 491 349 467.5 c 128,-1,28
 318 444 318 444 278 400 c 1,29,30
 323 330 323 330 340.5 274.5 c 128,-1,31
 358 219 358 219 346 147 c 0,32,33
 334 74 334 74 288 28 c 128,-1,34
 242 -18 242 -18 177 -18 c 0,35,36
 108 -18 108 -18 77.5 28 c 128,-1,37
 47 74 47 74 59 147 c 0,38,39
 68 200 68 200 95 250.5 c 128,-1,40
 122 301 122 301 143.5 326.5 c 128,-1,41
 165 352 165 352 210 400 c 1,42,43
 186 446 186 446 163 468.5 c 128,-1,44
 140 491 140 491 106 491 c 0,45,46
 92 491 92 491 65 487 c 1,12,-1
EndSplineSet
EndChar

StartChar: uni0265
Encoding: 613 613 537
Width: 537
GlyphClass: 2
Flags: W
LayerCount: 2
Fore
SplineSet
56 185 m 2,0,-1
 113 525 l 1,1,-1
 171 525 l 1,2,-1
 117 196 l 2,3,4
 90 33 90 33 204 33 c 0,5,6
 264 33 264 33 319 86 c 128,-1,7
 374 139 374 139 386 210 c 2,8,-1
 438 525 l 1,9,-1
 495 525 l 1,10,-1
 369 -235 l 1,11,-1
 312 -235 l 1,12,-1
 366 93 l 1,13,-1
 365 93 l 1,14,15
 341 50 341 50 292 16 c 128,-1,16
 243 -18 243 -18 184 -18 c 0,17,18
 153 -18 153 -18 128.5 -9.5 c 128,-1,19
 104 -1 104 -1 82.5 20 c 128,-1,20
 61 41 61 41 53.5 83 c 128,-1,21
 46 125 46 125 56 185 c 2,0,-1
EndSplineSet
EndChar

StartChar: uni0266
Encoding: 614 614 538
Width: 537
GlyphClass: 2
Flags: W
LayerCount: 2
Fore
SplineSet
36 0 m 1,0,-1
 136 604 l 2,1,2
 149 683 149 683 200.5 726.5 c 128,-1,3
 252 770 252 770 322 770 c 0,4,5
 363 770 363 770 416 762 c 1,6,-1
 407 710 l 1,7,8
 367 716 367 716 320 716 c 0,9,10
 266 716 266 716 232.5 678.5 c 128,-1,11
 199 641 199 641 192 595 c 2,12,-1
 165 432 l 1,13,-1
 166 432 l 1,14,15
 192 476 192 476 241 509.5 c 128,-1,16
 290 543 290 543 347 543 c 0,17,18
 507 543 507 543 474 340 c 2,19,-1
 417 0 l 1,20,-1
 360 0 l 1,21,-1
 415 329 l 2,22,23
 442 492 442 492 328 492 c 0,24,25
 268 492 268 492 212.5 440 c 128,-1,26
 157 388 157 388 145 315 c 2,27,-1
 93 0 l 1,28,-1
 36 0 l 1,0,-1
EndSplineSet
Substitution2: "'sups' Superscript lookup 5 subtable" uni02B1
Substitution2: "'aalt' Access All Alternates lookup 0 subtable" uni02B1
EndChar

StartChar: uni0267
Encoding: 615 615 539
Width: 541
GlyphClass: 2
Flags: W
LayerCount: 2
Fore
SplineSet
36 0 m 1,0,-1
 136 603 l 2,1,2
 149 683 149 683 200.5 726.5 c 128,-1,3
 252 770 252 770 322 770 c 0,4,5
 363 770 363 770 416 762 c 1,6,-1
 407 710 l 1,7,8
 367 716 367 716 320 716 c 0,9,10
 265 716 265 716 232 678.5 c 128,-1,11
 199 641 199 641 191 592 c 2,12,-1
 165 432 l 1,13,-1
 166 432 l 1,14,15
 192 476 192 476 241 509.5 c 128,-1,16
 290 543 290 543 347 543 c 0,17,18
 376 543 376 543 400 535 c 128,-1,19
 424 527 424 527 446.5 506.5 c 128,-1,20
 469 486 469 486 476.5 443.5 c 128,-1,21
 484 401 484 401 474 340 c 2,22,-1
 408 -59 l 2,23,24
 393 -148 393 -148 352 -193.5 c 128,-1,25
 311 -239 311 -239 231 -239 c 0,26,27
 230 -239 230 -239 171 -236 c 1,28,-1
 179 -185 l 1,29,30
 213 -187 213 -187 231 -187 c 0,31,32
 281 -187 281 -187 310 -158 c 128,-1,33
 339 -129 339 -129 351 -57 c 2,34,-1
 415 329 l 2,35,36
 442 492 442 492 328 492 c 0,37,38
 268 492 268 492 212.5 439.5 c 128,-1,39
 157 387 157 387 145 315 c 2,40,-1
 93 0 l 1,41,-1
 36 0 l 1,0,-1
EndSplineSet
EndChar

StartChar: uni0268
Encoding: 616 616 540
Width: 256
GlyphClass: 2
Flags: W
LayerCount: 2
Fore
SplineSet
149 654 m 1,0,-1
 164 746 l 1,1,-1
 247 746 l 1,2,-1
 232 654 l 1,3,-1
 149 654 l 1,0,-1
15 266 m 1,4,-1
 24 316 l 1,5,-1
 106 316 l 1,6,-1
 141 525 l 1,7,-1
 198 525 l 1,8,-1
 163 316 l 1,9,-1
 246 316 l 1,10,-1
 238 266 l 1,11,-1
 155 266 l 1,12,-1
 111 0 l 1,13,-1
 54 0 l 1,14,-1
 98 266 l 1,15,-1
 15 266 l 1,4,-1
EndSplineSet
EndChar

StartChar: uni0269
Encoding: 617 617 541
Width: 306
GlyphClass: 2
Flags: W
LayerCount: 2
Fore
SplineSet
53 140 m 2,0,-1
 116 525 l 1,1,-1
 174 525 l 1,2,-1
 110 143 l 2,3,4
 92 36 92 36 173 36 c 0,5,6
 216 36 216 36 241 40 c 1,7,-1
 232 -12 l 1,8,9
 187 -18 187 -18 155 -18 c 0,10,11
 93 -18 93 -18 66.5 22 c 128,-1,12
 40 62 40 62 53 140 c 2,0,-1
EndSplineSet
EndChar

StartChar: uni026B
Encoding: 619 619 543
Width: 236
GlyphClass: 2
Flags: W
LayerCount: 2
Fore
SplineSet
3 371 m 1,0,-1
 11 423 l 1,1,2
 51 438 51 438 82 438 c 0,3,4
 91 438 91 438 114 433 c 1,5,-1
 168 764 l 1,6,-1
 227 764 l 1,7,-1
 170 421 l 1,8,9
 195 416 195 416 210 416 c 0,10,11
 213 416 213 416 215 416 c 0,12,13
 243 417 243 417 273 431 c 1,14,-1
 265 379 l 1,15,16
 234 365 234 365 207 364 c 0,17,18
 205 364 205 364 203 364 c 0,19,20
 191 364 191 364 161 370 c 1,21,-1
 100 0 l 1,22,-1
 42 0 l 1,23,-1
 105 382 l 1,24,25
 87 386 87 386 73 386 c 0,26,27
 43 386 43 386 3 371 c 1,0,-1
EndSplineSet
EndChar

StartChar: uni026C
Encoding: 620 620 544
Width: 412
GlyphClass: 2
Flags: W
LayerCount: 2
Fore
SplineSet
65 416 m 0,0,1
 72 460 72 460 106 491.5 c 128,-1,2
 140 523 140 523 189 523 c 0,3,4
 224 523 224 523 251 504 c 128,-1,5
 278 485 278 485 287 462 c 1,6,-1
 337 764 l 1,7,-1
 395 764 l 1,8,-1
 325 341 l 1,9,-1
 427 341 l 1,10,-1
 419 292 l 1,11,-1
 317 292 l 1,12,-1
 268 0 l 1,13,-1
 211 0 l 1,14,-1
 259 292 l 1,15,-1
 194 292 l 2,16,17
 130 292 130 292 92.5 325 c 128,-1,18
 55 358 55 358 65 416 c 0,0,1
121 416 m 0,19,20
 115 382 115 382 139 361.5 c 128,-1,21
 163 341 163 341 202 341 c 2,22,-1
 266 341 l 1,23,-1
 271 367 l 2,24,25
 277 410 277 410 249.5 441 c 128,-1,26
 222 472 222 472 186 472 c 0,27,28
 162 472 162 472 143.5 455.5 c 128,-1,29
 125 439 125 439 121 416 c 0,19,20
EndSplineSet
EndChar

StartChar: uni026D
Encoding: 621 621 545
Width: 311
GlyphClass: 2
Flags: W
LayerCount: 2
Fore
SplineSet
24 -81 m 2,0,-1
 164 764 l 1,1,-1
 221 764 l 1,2,-1
 82 -79 l 2,3,4
 64 -186 64 -186 144 -186 c 0,5,6
 175 -186 175 -186 212 -180 c 1,7,-1
 204 -233 l 1,8,9
 159 -239 159 -239 127 -239 c 0,10,11
 65 -239 65 -239 38 -199 c 128,-1,12
 11 -159 11 -159 24 -81 c 2,0,-1
EndSplineSet
EndChar

StartChar: uni026E
Encoding: 622 622 546
Width: 591
GlyphClass: 2
Flags: W
LayerCount: 2
Fore
SplineSet
59 -157 m 1,0,-1
 110 -135 l 1,1,2
 151 -187 151 -187 225 -187 c 0,3,4
 312 -187 312 -187 368.5 -136 c 128,-1,5
 425 -85 425 -85 438 -5 c 0,6,7
 452 79 452 79 408.5 128.5 c 128,-1,8
 365 178 365 178 268 178 c 2,9,-1
 193 178 l 1,10,-1
 200 220 l 1,11,-1
 469 474 l 1,12,-1
 173 474 l 1,13,-1
 94 0 l 1,14,-1
 36 0 l 1,15,-1
 162 764 l 1,16,-1
 221 764 l 1,17,-1
 181 525 l 1,18,-1
 560 525 l 1,19,-1
 553 485 l 1,20,-1
 273 222 l 1,21,-1
 293 222 l 2,22,23
 400 222 400 222 457 161.5 c 128,-1,24
 514 101 514 101 496 -5 c 0,25,26
 479 -109 479 -109 403.5 -174 c 128,-1,27
 328 -239 328 -239 218 -239 c 0,28,29
 104 -239 104 -239 59 -157 c 1,0,-1
EndSplineSet
EndChar

StartChar: uni026F
Encoding: 623 623 547
Width: 791
GlyphClass: 2
Flags: W
LayerCount: 2
Fore
SplineSet
56 184 m 2,0,-1
 113 525 l 1,1,-1
 170 525 l 1,2,-1
 115 191 l 2,3,4
 102 110 102 110 116 71.5 c 128,-1,5
 130 33 130 33 187 33 c 256,6,7
 244 33 244 33 292 83 c 128,-1,8
 340 133 340 133 353 211 c 2,9,-1
 405 525 l 1,10,-1
 462 525 l 1,11,-1
 407 190 l 2,12,13
 381 33 381 33 481 33 c 0,14,15
 542 33 542 33 586.5 81 c 128,-1,16
 631 129 631 129 644 206 c 2,17,-1
 697 525 l 1,18,-1
 754 525 l 1,19,-1
 667 0 l 1,20,-1
 612 0 l 1,21,-1
 626 86 l 1,22,-1
 625 86 l 1,23,24
 605 48 605 48 564 15 c 128,-1,25
 523 -18 523 -18 462 -18 c 0,26,27
 361 -18 361 -18 351 107 c 1,28,29
 349 98 349 98 335.5 79.5 c 128,-1,30
 322 61 322 61 300 38 c 128,-1,31
 278 15 278 15 242 -1.5 c 128,-1,32
 206 -18 206 -18 165 -18 c 0,33,34
 89 -18 89 -18 64.5 33.5 c 128,-1,35
 40 85 40 85 56 184 c 2,0,-1
EndSplineSet
EndChar

StartChar: uni0270
Encoding: 624 624 548
Width: 808
GlyphClass: 2
Flags: W
LayerCount: 2
Fore
SplineSet
56 184 m 2,0,-1
 113 525 l 1,1,-1
 170 525 l 1,2,-1
 115 191 l 2,3,4
 102 113 102 113 115.5 73 c 128,-1,5
 129 33 129 33 186 33 c 0,6,7
 244 33 244 33 292 83.5 c 128,-1,8
 340 134 340 134 353 211 c 2,9,-1
 405 525 l 1,10,-1
 462 525 l 1,11,-1
 407 190 l 2,12,13
 381 33 381 33 481 33 c 0,14,15
 541 33 541 33 586 81.5 c 128,-1,16
 631 130 631 130 644 206 c 2,17,-1
 697 525 l 1,18,-1
 754 525 l 1,19,-1
 628 -235 l 1,20,-1
 573 -235 l 1,21,-1
 626 86 l 1,22,-1
 625 86 l 1,23,24
 603 44 603 44 561.5 13 c 128,-1,25
 520 -18 520 -18 462 -18 c 0,26,27
 361 -18 361 -18 351 107 c 1,28,29
 345 92 345 92 330.5 73.5 c 128,-1,30
 316 55 316 55 293.5 33 c 128,-1,31
 271 11 271 11 237 -3.5 c 128,-1,32
 203 -18 203 -18 165 -18 c 0,33,34
 89 -18 89 -18 64.5 34 c 128,-1,35
 40 86 40 86 56 184 c 2,0,-1
EndSplineSet
EndChar

